<?xml version="1.0" encoding="utf-8"?>
<!-- Generator: Adobe Illustrator 16.0.3, SVG Export Plug-In . SVG Version: 6.00 Build 0)  -->
<!DOCTYPE svg PUBLIC "-//W3C//DTD SVG 1.1//EN" "http://www.w3.org/Graphics/SVG/1.1/DTD/svg11.dtd">
<svg version="1.1" id="acceptance" xmlns="http://www.w3.org/2000/svg" xmlns:xlink="http://www.w3.org/1999/xlink" x="0px" y="0px"
	 width="188.977px" height="113.387px" viewBox="0 0 188.977 113.387" enable-background="new 0 0 188.977 113.387"
	 xml:space="preserve">
<g id="dankort">
	<path fill="#FFFFFF" d="M132.287,0C117.74,0,71.245,0,56.697,0C25.383,0,0,25.384,0,56.69c0,31.318,25.383,56.696,56.697,56.696
		c14.547,0,61.042,0,75.589,0c31.307,0,56.69-25.378,56.69-56.696C188.977,25.384,163.594,0,132.287,0z"/>
	<path fill="#E2231A" d="M145.5,53.264l25.135,29.894c5.206-7.523,8.264-16.643,8.264-26.467c0-10.366-3.406-19.955-9.154-27.704
		L145.5,53.264z"/>
	<path fill="#E2231A" d="M74.273,26.463c18.771,0,32.914,4.774,34.37,20.59l19.755-20.594h39.336
		c-8.558-10.016-21.273-16.378-35.448-16.378H56.697c-14.179,0-26.898,6.362-35.455,16.382
		C33.763,26.463,62.844,26.463,74.273,26.463z"/>
	<path fill="#E2231A" d="M43.346,46.399l-6.703,18.43c0,0,19.844,0,27.044,0c7.995,0,10.414-3.31,12.203-9.683
		c1.771-6.302-2.677-8.747-8.14-8.747C63.164,46.399,43.346,46.399,43.346,46.399z"/>
	<path fill="#E2231A" d="M128.563,85.673l-20.894-26.404c-3.864,18.003-16.51,26.401-40.216,26.401c-17.794,0-38.591,0-47.244,0
		c8.547,10.74,21.727,17.639,36.489,17.639h75.589c14.758,0,27.935-6.896,36.481-17.636H128.563z"/>
</g>
</svg>
