<?xml version="1.0" encoding="utf-8"?>
<!-- Generator: Adobe Illustrator 16.0.3, SVG Export Plug-In . SVG Version: 6.00 Build 0)  -->
<!DOCTYPE svg PUBLIC "-//W3C//DTD SVG 1.1//EN" "http://www.w3.org/Graphics/SVG/1.1/DTD/svg11.dtd">
<svg version="1.1" id="acceptance" xmlns="http://www.w3.org/2000/svg" xmlns:xlink="http://www.w3.org/1999/xlink" x="0px" y="0px"
	 width="262.106px" height="113.387px" viewBox="0 0 262.106 113.387" enable-background="new 0 0 262.106 113.387"
	 xml:space="preserve">
<g id="giropay">
	<g>
		<path fill="#FFFFFF" d="M236.033,0.155H20.079C9.293,0.156,0.556,8.888,0.551,19.665v74.164
			c0.004,10.776,8.742,19.509,19.527,19.51h215.955V0.155"/>
		<path fill="#FFFFFF" d="M136.046,8.354H19.506c-6.184,0.012-11.188,5.013-11.2,11.191v74.296c0.012,6.176,5.016,11.178,11.2,11.19
			h116.54V8.354"/>
		<g>
			<defs>
				<rect id="SVGID_1_" width="262.106" height="113.387"/>
			</defs>
			<clipPath id="SVGID_2_">
				<use xlink:href="#SVGID_1_"  overflow="visible"/>
			</clipPath>
			<path clip-path="url(#SVGID_2_)" fill="#003A7D" d="M242.544,0H19.506C8.701,0.002-0.052,8.747-0.055,19.546v74.296
				c0.003,10.794,8.756,19.541,19.562,19.545h223.038c10.805-0.004,19.559-8.751,19.563-19.545V19.546
				C262.103,8.747,253.349,0.002,242.544,0 M8.305,93.842V19.546c0.013-6.179,5.016-11.18,11.201-11.191h116.539v96.678H19.506
				C13.321,105.02,8.318,100.018,8.305,93.842z"/>
		</g>
		<path fill="#FFFFFF" d="M167.025,55.832c0,4.509-2.23,7.605-5.924,7.605c-3.263,0-5.984-3.097-5.984-7.226
			c0-4.236,2.394-7.388,5.984-7.388C164.905,48.824,167.025,52.082,167.025,55.832 M145.333,81.688h9.784V66.316h0.109
			c1.849,3.369,5.546,4.616,8.971,4.616c8.426,0,12.938-6.953,12.938-15.318c0-6.843-4.291-14.286-12.121-14.286
			c-4.458,0-8.591,1.793-10.548,5.758h-0.109V41.98h-9.024V81.688z"/>
		<path fill="#FFFFFF" d="M190.498,61.318c0-2.716,2.609-3.747,5.926-3.747c1.467,0,2.881,0.108,4.132,0.161
			c0,3.313-2.335,6.685-6.035,6.685C192.237,64.417,190.498,63.271,190.498,61.318 M210.232,70.278
			c-0.434-2.227-0.546-4.451-0.546-6.681V53.061c0-8.638-6.25-11.732-13.48-11.732c-4.188,0-7.829,0.596-11.308,2.011l0.162,6.626
			c2.721-1.52,5.873-2.118,9.024-2.118c3.534,0,6.417,1.031,6.471,4.89c-1.251-0.219-2.988-0.385-4.566-0.385
			c-5.218,0-14.623,1.036-14.623,9.672c0,6.141,5.001,8.911,10.602,8.911c4.021,0,6.74-1.578,8.967-5.107h0.107
			c0,1.468,0.166,2.935,0.22,4.451H210.232z"/>
		<path fill="#FFFFFF" d="M214.626,81.688c2.014,0.436,4.024,0.654,6.09,0.654c8.973,0,11.091-6.902,13.862-14.014l10.386-26.348
			h-9.786l-5.818,18.467h-0.108l-6.09-18.467h-10.543l11.467,28.952c-0.703,2.498-2.552,3.91-4.94,3.91
			c-1.365,0-2.561-0.159-3.863-0.597L214.626,81.688"/>
		<path fill="#ED1C24" d="M32.285,55.886c0-3.855,1.903-7.062,5.545-7.062c4.403,0,6.252,3.527,6.252,6.68
			c0,4.349-2.773,7.281-6.252,7.281C34.894,62.785,32.285,60.283,32.285,55.886 M53.541,41.98h-8.863v5.104H44.57
			c-2.066-3.476-5.437-5.757-9.622-5.757c-8.805,0-12.775,6.301-12.775,14.722c0,8.367,4.838,14.229,12.613,14.229
			c3.915,0,7.176-1.517,9.512-4.833h0.109v1.523c0,5.54-3.043,8.201-8.698,8.201c-4.077,0-6.577-0.867-9.566-2.335l-0.491,7.714
			c2.284,0.813,6.144,1.793,10.819,1.793c11.415,0,17.069-3.748,17.069-15.373V41.98z"/>
		<path fill="#ED1C24" d="M70.078,30.191h-9.785v7.171h9.785V30.191z M60.292,70.278h9.785V41.98h-9.785V70.278z"/>
		<path fill="#ED1C24" d="M97.324,41.651c-0.979-0.161-2.175-0.324-3.315-0.324c-4.24,0-6.687,2.281-8.373,5.866h-0.107v-5.215
			h-8.916v28.3h9.785V58.331c0-5.543,2.556-8.856,7.122-8.856c1.141,0,2.229,0,3.314,0.325L97.324,41.651"/>
		<path fill="#ED1C24" d="M114.172,64.088c-4.513,0-6.361-3.747-6.361-7.93c0-4.236,1.848-7.985,6.361-7.985
			c4.512,0,6.361,3.749,6.361,7.985C120.533,60.341,118.684,64.088,114.172,64.088 M114.172,70.933
			c9.348,0,16.47-5.432,16.47-14.774c0-9.399-7.123-14.83-16.47-14.83c-9.35,0-16.472,5.431-16.472,14.83
			C97.7,65.501,104.823,70.933,114.172,70.933"/>
	</g>
</g>
</svg>
