<?xml version="1.0" encoding="utf-8"?>
<!-- Generator: Adobe Illustrator 16.0.3, SVG Export Plug-In . SVG Version: 6.00 Build 0)  -->
<!DOCTYPE svg PUBLIC "-//W3C//DTD SVG 1.1//EN" "http://www.w3.org/Graphics/SVG/1.1/DTD/svg11.dtd">
<svg version="1.1" id="acceptance" xmlns="http://www.w3.org/2000/svg" xmlns:xlink="http://www.w3.org/1999/xlink" x="0px" y="0px"
	 width="105.332px" height="113.387px" viewBox="0 0 105.332 113.387" enable-background="new 0 0 105.332 113.387"
	 xml:space="preserve">
<g id="googlewallet">
	<g>
		<g id="g3043">
			<path id="path8" fill="#1476C6" d="M59.986,106.399c-0.223,0.134-0.445,0.268-0.712,0.4c-0.712,0.312-1.424,0.4-2.047,0.4
				c-0.667,0-1.735-0.044-2.803-0.845c-1.513-1.068-2.181-2.893-2.181-4.495c0-3.293,2.67-4.895,4.851-4.895
				c0.756,0,1.558,0.178,2.181,0.578c1.068,0.712,1.335,1.603,1.468,2.092l-4.984,2.003l-1.646,0.133
				c0.534,2.715,2.358,4.272,4.361,4.272c1.068,0,1.869-0.4,2.581-0.757L59.986,106.399z M57.983,100.081
				c0.4-0.134,0.623-0.268,0.623-0.579c0-0.845-0.935-1.824-2.092-1.824c-0.845,0-2.447,0.668-2.447,2.938
				c0,0.355,0.044,0.756,0.044,1.112L57.983,100.081"/>
			<path id="path10" fill="#1476C6" d="M51.753,106.845h-3.738c0.49-0.623,0.579-0.712,0.579-1.112v-3.471
				c0-1.646,0.044-4.006,0.089-6.23c0-1.068,0.089-2.447,0.134-3.427H47.17l1.602-0.756h3.026c-0.667,0.4-0.89,0.489-0.935,1.246
				c-0.178,1.646-0.178,4.227-0.178,7.253v4.896c0,0.845,0.134,0.979,0.846,1.023c0.356,0.044,0.712,0.089,1.068,0.089
				L51.753,106.845"/>
			<path id="path12" fill="#1476C6" d="M44.767,97.989c0.49,0.4,1.513,1.246,1.513,2.893c0,1.558-0.89,2.313-1.78,3.026
				c-0.267,0.267-0.579,0.578-0.579,1.023c0,0.444,0.312,0.712,0.534,0.89l0.756,0.578c0.935,0.801,1.78,1.514,1.78,2.981
				c0,2.003-1.914,4.006-5.607,4.006c-3.07,0-4.583-1.469-4.583-3.026c0-0.757,0.4-1.869,1.646-2.581
				c1.335-0.801,3.115-0.935,4.049-0.979c-0.312-0.4-0.623-0.801-0.623-1.424c0-0.355,0.089-0.578,0.223-0.846
				c-0.223,0-0.489,0.045-0.667,0.045c-2.27,0-3.516-1.691-3.516-3.337c0-0.979,0.445-2.048,1.379-2.849
				c1.202-0.979,2.67-1.157,3.783-1.157h4.361l-1.38,0.757H44.767L44.767,97.989z M43.254,107.423c-0.178,0-0.267,0-0.49,0
				c-0.178,0-1.335,0.045-2.225,0.356c-0.489,0.178-1.824,0.667-1.824,2.181c0,1.513,1.468,2.581,3.738,2.581
				c2.047,0,3.115-0.979,3.115-2.314C45.568,109.158,44.856,108.58,43.254,107.423 M43.877,103.418
				c0.489-0.489,0.534-1.156,0.534-1.558c0-1.513-0.935-3.916-2.67-3.916c-0.534,0-1.157,0.268-1.469,0.713
				c-0.356,0.444-0.489,1.023-0.489,1.557c0,1.425,0.846,3.783,2.67,3.783C42.942,103.997,43.521,103.729,43.877,103.418"/>
			<path id="path14" fill="#1476C6" d="M31.639,107.156c-3.382,0-5.162-2.626-5.162-5.028c0-2.804,2.27-5.162,5.518-5.162
				c3.115,0,5.073,2.447,5.073,5.028C37.024,104.486,35.066,107.156,31.639,107.156 M34.265,105.421
				c0.49-0.668,0.623-1.513,0.623-2.358c0-1.869-0.89-5.43-3.516-5.43c-0.712,0-1.379,0.268-1.914,0.713
				c-0.845,0.756-0.979,1.69-0.979,2.581c0,2.091,1.024,5.562,3.605,5.562C32.93,106.488,33.775,106.088,34.265,105.421"/>
			<path id="path16" fill="#1476C6" d="M20.336,107.156c-3.382,0-5.162-2.626-5.162-5.028c0-2.804,2.27-5.162,5.518-5.162
				c3.115,0,5.073,2.447,5.073,5.028C25.721,104.486,23.763,107.156,20.336,107.156 M22.962,105.421
				c0.489-0.668,0.623-1.513,0.623-2.358c0-1.869-0.89-5.43-3.516-5.43c-0.712,0-1.424,0.268-1.914,0.713
				c-0.846,0.756-0.979,1.69-0.979,2.581c0,2.091,1.023,5.562,3.604,5.562C21.627,106.488,22.472,106.088,22.962,105.421"/>
			<path id="path18" fill="#1476C6" d="M13.75,106.399l-2.848,0.668c-1.157,0.178-2.181,0.355-3.293,0.355
				c-5.518,0-7.609-4.049-7.609-7.209c0-3.871,2.981-7.431,8.054-7.431c1.068,0,2.092,0.178,3.026,0.4
				c1.513,0.4,2.18,0.935,2.625,1.245l-1.646,1.558l-0.712,0.179l0.49-0.802c-0.667-0.667-1.914-1.868-4.272-1.868
				c-3.16,0-5.518,2.402-5.518,5.874c0,3.737,2.714,7.253,7.031,7.253c1.291,0,1.914-0.267,2.537-0.489v-3.204l-3.026,0.178
				l1.602-0.845h4.228l-0.534,0.489c-0.133,0.133-0.178,0.178-0.178,0.312c0,0.178-0.045,0.756-0.045,0.935v2.402"/>
			<path id="path20" fill="#1476C6" d="M69.108,106.845h-1.513l-2.225-9.612h1.202l1.825,8.633l1.869-8.633h1.513l1.958,8.633
				l1.78-8.633h1.157l-2.181,9.612h-1.513l-1.913-8.544L69.108,106.845"/>
			<path id="path22" fill="#1476C6" d="M83.704,100.17c0-1.558-0.712-2.181-2.269-2.181c-1.246,0-1.958,0.668-2.136,1.78
				l-1.112-0.134c0.222-1.558,1.468-2.626,3.249-2.626c2.136,0,3.337,0.935,3.337,3.026v4.896c0,0.845,0.045,1.424,0.178,1.868
				h-1.113c-0.089-0.267-0.133-0.756-0.133-1.023c-0.445,0.668-1.513,1.246-2.537,1.246c-1.78,0-3.159-1.067-3.159-3.204
				c0-1.958,1.424-3.07,3.427-3.07c0.979,0,1.779,0.179,2.269,0.4V100.17L83.704,100.17z M83.704,102.262
				c-0.534-0.268-1.291-0.49-2.314-0.49c-1.335,0-2.314,0.668-2.314,2.092c0,1.469,0.89,2.225,2.136,2.225
				c1.112,0,2.091-0.801,2.492-1.646V102.262"/>
			<path id="path24" fill="#1476C6" d="M86.953,106.845h1.113V93.139h-1.113V106.845z"/>
			<path id="path26" fill="#1476C6" d="M90.379,106.845h1.113V93.139h-1.113V106.845z"/>
			<path id="path28" fill="#1476C6" d="M96.876,106.044c1.157,0,2.047-0.712,2.225-2.492l1.113,0.178
				c-0.267,2.314-1.602,3.382-3.338,3.382c-2.27,0-3.648-1.69-3.648-5.117c0-3.07,1.156-4.939,3.515-4.939
				c2.492,0,3.471,2.047,3.471,4.851v0.356H94.34C94.384,104.887,95.363,106.044,96.876,106.044 M99.057,101.282L99.057,101.282
				c-0.044-1.824-0.756-3.204-2.314-3.204c-1.513,0-2.314,1.246-2.403,3.204H99.057"/>
			<path id="path30" fill="#1476C6" d="M105.332,106.8c-0.223,0.09-0.668,0.179-1.157,0.179c-1.424,0-1.869-0.712-1.869-2.092
				v-6.675h-1.246v-0.979h1.246v-3.114l1.112-0.445v3.56h1.914v0.979h-1.914v6.497c0,0.935,0.178,1.156,0.935,1.156
				c0.4,0,0.712-0.089,0.979-0.222V106.8"/>
		</g>
		<g id="g3025">
			<path id="path34" fill="#1476C6" d="M39.961,37.158c-4.717-6.497-11.259-12.193-18.69-16.153
				c-1.113-0.623-2.403-0.935-3.694-0.935c-2.893,0-5.518,1.557-6.897,4.138c-2.047,3.783-0.578,8.544,3.204,10.547
				c11.437,6.141,18.824,17.8,19.713,31.328v-0.045c-0.133-1.513,0.134-2.981,0.801-4.361c0.089-0.178,0.223-0.4,0.356-0.622
				c3.56-5.874,5.473-12.639,5.473-19.58C40.228,40.006,40.094,38.582,39.961,37.158"/>
			<path id="path36" fill="#47AE33" d="M85.262,22.473c-1.379-6.052-3.426-11.926-6.096-17.533C77.741,1.958,74.671,0,71.378,0
				c-1.291,0-2.537,0.268-3.693,0.846c-4.317,2.047-6.142,7.209-4.094,11.481c4.361,9.256,6.542,19.001,6.542,29.147
				c0,10.146-2.181,19.892-6.453,28.969c-0.044,0.134-0.801,1.736-0.801,3.604c0,0.534,0.044,1.291,0.222,2.003
				c0.579,2.447,2.136,4.673,4.717,5.874c1.157,0.534,2.403,0.846,3.693,0.846c3.16,0,6.052-1.735,7.565-4.495
				c1.736-3.248,3.471-7.476,4.984-12.949c0.49-1.646,0.89-3.204,1.246-4.851c1.379-6.186,2.136-12.504,2.136-19.001
				C87.398,35.066,86.641,28.613,85.262,22.473"/>
			<path id="path38" fill="#ED114C" d="M48.816,13.439c-0.134-0.268-0.312-0.489-0.49-0.712c-0.579-0.757-1.246-1.38-2.047-1.869
				c-1.291-0.846-2.848-1.335-4.45-1.335c-1.335,0-2.002,0.178-2.937,0.534c-0.979,0.4-2.002,0.935-2.937,1.913
				c-0.935,0.979-1.469,1.958-1.869,3.026c-0.801,2.091-0.667,4.806,0.667,7.031c2.848,4.583,4.539,9.834,5.162,15.219
				c0.178,1.424,0.267,2.893,0.267,4.316c0,6.941-1.869,13.706-5.473,19.58c-0.134,0.223-0.223,0.4-0.356,0.623
				c-0.712,1.379-0.935,2.937-0.801,4.405c0.223,2.492,1.602,4.851,3.916,6.274c0.579,0.355,1.246,0.623,1.869,0.846
				c0.756,0.223,1.557,0.355,2.358,0.355c2.893,0,5.518-1.468,7.031-3.96c4.539-7.432,7.165-15.887,7.743-24.564
				c0.089-1.156,0.134-2.358,0.134-3.516C56.648,31.551,53.934,21.85,48.816,13.439"/>
			<path id="path40" fill="#FBBF16" d="M63.635,70.443c4.316-9.077,6.497-18.823,6.497-28.969c0-3.472-0.223-6.008-0.4-7.654
				c-5.652-9.033-13.84-17.133-23.452-23.007c0,0,0.223,0.134,0.223,0.179c0.667,0.489,1.201,0.979,1.824,1.735
				c0.134,0.178,0.356,0.444,0.49,0.712c5.118,8.455,7.788,18.111,7.788,28.035c0,1.201-0.044,2.358-0.134,3.516
				c4.094,7.787,6.319,16.643,6.319,25.943c0,0.756,0,1.913,0,2.803c0.045-0.979,0.267-2.002,0.623-2.892
				C63.546,70.711,63.59,70.577,63.635,70.443"/>
		</g>
	</g>
</g>
</svg>
