<?xml version="1.0" encoding="utf-8"?>
<!-- Generator: Adobe Illustrator 16.0.3, SVG Export Plug-In . SVG Version: 6.00 Build 0)  -->
<!DOCTYPE svg PUBLIC "-//W3C//DTD SVG 1.1//EN" "http://www.w3.org/Graphics/SVG/1.1/DTD/svg11.dtd">
<svg version="1.1" id="acceptance" xmlns="http://www.w3.org/2000/svg" xmlns:xlink="http://www.w3.org/1999/xlink" x="0px" y="0px"
	 width="179.242px" height="113.387px" viewBox="0 0 179.242 113.387" enable-background="new 0 0 179.242 113.387"
	 xml:space="preserve">
<g id="maestro">
	<g>
		<rect fill="#11306E" width="179.242" height="113.387"/>
		<g>
			<g>
				<g>
					<path fill="#E30613" d="M171.618,56.695c0,27.098-21.962,49.062-49.059,49.062c-27.092,0-49.056-21.964-49.056-49.062
						c0-27.099,21.964-49.064,49.056-49.064C149.656,7.631,171.618,29.597,171.618,56.695z"/>
					<g>
						<path fill="#0096DC" d="M84.664,87.852c-1.355-1.644-2.603-3.379-3.737-5.196h17.387c1.043-1.666,1.985-3.401,2.827-5.195
							H78.102c-0.785-1.682-1.483-3.415-2.077-5.194h27.189c1.637-4.893,2.522-10.127,2.522-15.57c0-3.565-0.381-7.042-1.102-10.391
							H74.606c0.381-1.771,0.859-3.503,1.424-5.195h27.181c-0.597-1.779-1.29-3.512-2.076-5.193H78.106
							c0.841-1.794,1.785-3.526,2.826-5.197h17.375c-1.133-1.813-2.384-3.545-3.736-5.189H84.67
							c1.523-1.851,3.179-3.586,4.951-5.193C80.913,12.44,69.357,7.631,56.681,7.631c-27.095,0-49.06,21.966-49.06,49.064
							c0,27.098,21.965,49.062,49.06,49.062c12.678,0,24.234-4.808,32.94-12.702c1.774-1.61,3.432-3.35,4.955-5.203H84.664z"/>
					</g>
				</g>
				<g>
					<path fill="#FFFFFF" d="M165.078,84.04c0-0.874,0.71-1.585,1.585-1.585s1.584,0.711,1.584,1.585
						c0,0.875-0.709,1.585-1.584,1.585S165.078,84.915,165.078,84.04z M166.663,85.245c0.665,0,1.204-0.539,1.204-1.205
						c0-0.665-0.539-1.201-1.204-1.201s-1.205,0.536-1.205,1.201C165.458,84.706,165.998,85.245,166.663,85.245z M166.448,84.736
						h-0.323v-1.394h0.587c0.122,0,0.248,0.002,0.356,0.071c0.113,0.077,0.176,0.212,0.176,0.347c0,0.161-0.092,0.305-0.241,0.36
						l0.256,0.615h-0.36l-0.211-0.55h-0.239V84.736z M166.448,83.949h0.18c0.067,0,0.139,0.003,0.198-0.027
						c0.054-0.037,0.081-0.101,0.081-0.162c0-0.052-0.033-0.114-0.078-0.142c-0.058-0.033-0.147-0.025-0.207-0.025h-0.174V83.949z"
						/>
				</g>
			</g>
			<g>
				<g>
					<path fill="#11306E" d="M88.921,69.953c-2.097,0.556-4.123,0.827-6.267,0.822c-6.838-0.006-10.398-3.121-10.398-9.077
						c0-6.958,4.533-12.077,10.687-12.077c5.034,0,8.247,2.87,8.247,7.366c0,1.491-0.217,2.945-0.75,5H78.28
						c-0.433,2.909,1.69,4.186,5.306,4.186c2.166,0,4.124-0.389,6.293-1.261L88.921,69.953z M85.651,57.884
						c0-0.439,0.677-3.562-2.843-3.63c-1.943,0-3.336,1.292-3.9,3.63H85.651z"/>
					<path fill="#11306E" d="M93.041,56.52c0,2.569,1.447,4.346,4.736,5.668c2.515,1.029,2.91,1.328,2.91,2.249
						c0,1.274-1.11,1.859-3.577,1.844c-1.854-0.013-3.544-0.239-5.539-0.792l-0.883,4.688c1.774,0.412,4.261,0.547,6.465,0.599
						c6.566,0,9.598-2.15,9.598-6.798c0-2.794-1.265-4.438-4.382-5.662c-2.607-1.042-2.913-1.267-2.913-2.21
						c0-1.106,1.032-1.667,3.047-1.667c1.221,0,2.892,0.112,4.478,0.305l0.89-4.715c-1.615-0.224-4.066-0.404-5.486-0.404
						C95.428,49.624,93.02,52.756,93.041,56.52z"/>
					<path fill="#11306E" d="M68.922,70.439H63.82l0.122-2.137c-1.555,1.686-3.627,2.471-6.438,2.471
						c-3.328,0-5.608-2.275-5.608-5.548c0-4.975,3.964-7.845,10.777-7.845c0.7,0,1.591,0.053,2.506,0.156
						c0.189-0.667,0.24-0.953,0.24-1.314c0-1.361-1.072-1.863-3.939-1.863c-2.827,0.011-4.734,0.431-6.504,0.906l0.87-4.564
						c3.062-0.778,5.065-1.08,7.333-1.08c5.276,0,8.063,2.07,8.063,5.958c0.044,1.038-0.316,3.121-0.499,4.032
						C70.537,60.937,69.075,68.625,68.922,70.439z M64.444,61.363c-0.646-0.063-0.927-0.083-1.37-0.083
						c-3.479,0-5.243,1.036-5.243,3.08c0,1.284,0.861,2.087,2.203,2.087C62.533,66.447,64.339,64.356,64.444,61.363z"/>
					<path fill="#11306E" d="M117.499,70.116c-1.673,0.459-2.978,0.659-4.389,0.659c-3.124,0-4.83-1.598-4.83-4.441
						c-0.099-0.781,0.664-4.392,0.838-5.397c0.173-1.009,2.88-15.715,2.88-15.715h6.07l-0.918,4.867h3.114l-0.847,4.965h-3.127
						c0,0-1.717,8.619-1.717,9.278c0,1.045,0.633,1.499,2.087,1.499c0.695,0,1.232-0.065,1.646-0.189L117.499,70.116z"/>
					<path fill="#11306E" d="M144.627,49.621c-4.45,0-7.927,1.834-9.946,4.892l1.753-4.537c-3.23-1.186-5.313,0.508-7.195,2.912
						c0,0-0.315,0.399-0.63,0.765v-3.566h-5.7c-0.771,6.294-2.138,12.677-3.205,18.984l-0.259,1.372h6.133
						c0.582-3.201,1.06-5.799,1.536-7.87c1.303-5.684,3.495-7.421,6.786-6.651c-0.76,1.633-1.176,3.524-1.176,5.617
						c0,5.08,2.757,9.237,9.607,9.237c6.911,0,11.916-3.692,11.916-12.112C154.247,53.586,150.911,49.621,144.627,49.621z
						 M142.842,65.837c-2.166,0.033-3.479-1.784-3.479-4.504c0-3.223,1.915-6.864,4.994-6.864c2.484,0,3.335,1.97,3.335,4.069
						C147.692,63.122,145.813,65.837,142.842,65.837z"/>
					<polygon fill="#11306E" points="49.039,70.442 42.932,70.442 46.561,51.319 38.205,70.442 32.639,70.442 31.621,51.431 
						27.979,70.442 22.439,70.442 27.158,45.567 36.702,45.567 37.497,59.435 43.543,45.567 53.853,45.567 					"/>
				</g>
				<g>
					<path fill="#FFFFFF" d="M154.712,67.322c0-0.873,0.709-1.582,1.585-1.582c0.875,0,1.584,0.709,1.584,1.582
						c0,0.877-0.709,1.588-1.584,1.588C155.421,68.91,154.712,68.199,154.712,67.322z M156.297,68.529
						c0.664,0,1.204-0.54,1.204-1.207c0-0.664-0.54-1.202-1.204-1.202c-0.665,0-1.205,0.538-1.205,1.202
						C155.092,67.989,155.632,68.529,156.297,68.529z M156.082,68.02h-0.325v-1.391h0.589c0.122,0,0.247,0,0.355,0.069
						c0.112,0.076,0.177,0.209,0.177,0.348c0,0.157-0.093,0.304-0.241,0.36l0.256,0.613h-0.36l-0.212-0.55h-0.238V68.02z
						 M156.082,67.23h0.18c0.067,0,0.139,0.004,0.198-0.027c0.053-0.035,0.081-0.097,0.081-0.161c0-0.053-0.033-0.113-0.078-0.139
						c-0.058-0.036-0.147-0.027-0.207-0.027h-0.174V67.23z"/>
					<path fill="#FFFFFF" d="M90.454,68.421c-2.096,0.556-4.124,0.826-6.266,0.822c-6.839-0.007-10.399-3.121-10.399-9.077
						c0-6.959,4.532-12.077,10.686-12.077c5.035,0,8.248,2.87,8.248,7.366c0,1.491-0.218,2.942-0.749,5h-12.16
						c-0.433,2.906,1.689,4.186,5.306,4.186c2.165,0,4.124-0.389,6.293-1.263L90.454,68.421z M87.185,56.352
						c0-0.439,0.676-3.563-2.842-3.63c-1.943,0-3.337,1.291-3.902,3.63H87.185z"/>
					<path fill="#FFFFFF" d="M94.574,54.985c0,2.571,1.446,4.346,4.735,5.67c2.517,1.029,2.911,1.328,2.911,2.245
						c0,1.278-1.111,1.863-3.576,1.848c-1.854-0.014-3.546-0.239-5.539-0.792l-0.885,4.688c1.774,0.413,4.263,0.548,6.465,0.6
						c6.566,0,9.6-2.15,9.6-6.8c0-2.792-1.266-4.438-4.384-5.661c-2.607-1.041-2.913-1.269-2.913-2.209
						c0-1.107,1.034-1.669,3.047-1.669c1.222,0,2.892,0.113,4.479,0.306l0.89-4.714c-1.616-0.228-4.067-0.404-5.485-0.404
						C96.96,48.092,94.553,51.222,94.574,54.985z"/>
					<path fill="#FFFFFF" d="M70.456,68.906h-5.103l0.123-2.137c-1.557,1.685-3.628,2.469-6.439,2.469
						c-3.327,0-5.608-2.274-5.608-5.547c0-4.974,3.963-7.843,10.776-7.843c0.701,0,1.591,0.053,2.508,0.152
						c0.188-0.664,0.239-0.949,0.239-1.312c0-1.364-1.072-1.863-3.938-1.863c-2.827,0.012-4.734,0.431-6.504,0.906l0.869-4.563
						c3.062-0.778,5.064-1.08,7.334-1.08c5.275,0,8.063,2.068,8.063,5.957c0.045,1.039-0.317,3.118-0.498,4.033
						C72.069,59.404,70.607,67.093,70.456,68.906z M65.978,59.831c-0.646-0.066-0.928-0.083-1.371-0.083
						c-3.478,0-5.242,1.034-5.242,3.077c0,1.285,0.862,2.09,2.202,2.09C64.067,64.915,65.873,62.822,65.978,59.831z"/>
					<path fill="#FFFFFF" d="M119.032,68.584c-1.674,0.459-2.979,0.659-4.389,0.659c-3.125,0-4.83-1.598-4.83-4.442
						c-0.1-0.781,0.665-4.392,0.837-5.396c0.174-1.009,2.881-15.715,2.881-15.715h6.07l-0.917,4.864h3.113l-0.847,4.967h-3.127
						c0,0-1.718,8.62-1.718,9.275c0,1.048,0.634,1.5,2.087,1.5c0.695,0,1.232-0.063,1.648-0.188L119.032,68.584z"/>
					<path fill="#FFFFFF" d="M149.227,57.002c0,4.587-1.881,7.303-4.853,7.303c-2.166,0.031-3.479-1.784-3.479-4.504
						c0-3.223,1.916-6.864,4.994-6.864C148.375,52.937,149.227,54.906,149.227,57.002z M155.78,57.131
						c0-5.077-3.336-9.042-9.62-9.042c-7.229,0-11.903,4.818-11.903,11.916c0,5.081,2.757,9.238,9.607,9.238
						C150.775,69.243,155.78,65.551,155.78,57.131z"/>
					<path fill="#FFFFFF" d="M124.44,48.552c-0.771,6.296-2.138,12.677-3.204,18.984l-0.258,1.374h6.131
						c2.21-12.182,2.952-15.651,7.583-14.431l2.228-5.763c-3.23-1.186-5.309,0.508-7.19,2.914c0.169-1.083,0.489-2.129,0.412-3.079
						H124.44z"/>
					<polygon fill="#FFFFFF" points="50.571,68.91 44.466,68.91 48.095,49.786 39.738,68.91 34.171,68.91 33.153,49.898 
						29.513,68.91 23.972,68.91 28.69,44.035 38.235,44.035 38.739,59.435 45.457,44.035 55.385,44.035 					"/>
				</g>
			</g>
		</g>
	</g>
</g>
</svg>
