<?xml version="1.0" encoding="utf-8"?>
<!-- Generator: Adobe Illustrator 16.0.3, SVG Export Plug-In . SVG Version: 6.00 Build 0)  -->
<!DOCTYPE svg PUBLIC "-//W3C//DTD SVG 1.1//EN" "http://www.w3.org/Graphics/SVG/1.1/DTD/svg11.dtd">
<svg version="1.1" id="acceptance" xmlns="http://www.w3.org/2000/svg" xmlns:xlink="http://www.w3.org/1999/xlink" x="0px" y="0px"
	 width="188.977px" height="113.387px" viewBox="0 0 188.977 113.387" enable-background="new 0 0 188.977 113.387"
	 xml:space="preserve">
<g id="mobilepay">
	<g>
		<rect x="1.031" y="1.031" fill="#FFFFFF" width="186.915" height="111.324"/>
		<path fill="#003F62" d="M186.915,2.062v109.264H2.062V2.062H186.915 M188.977,0H0v113.387h188.977V0L188.977,0z"/>
	</g>
	<g>
		<polygon fill="none" points="58.604,31.195 70.682,62.689 58.604,31.195 		"/>
		<path fill="none" d="M108.885,90.633l-12.7,4.853c-0.678,0.255-1.007,1.04-0.738,1.745c0.269,0.704,1.037,1.073,1.714,0.812
			l12.701-4.852c0.678-0.262,1.006-1.04,0.734-1.745C110.328,90.74,109.563,90.371,108.885,90.633z"/>
		<polygon fill="none" points="82.973,94.74 100.661,87.949 82.973,94.74 		"/>
		<path fill="#003F62" d="M138.11,46.674c-0.041-0.731-0.654-1.496-1.359-1.694c0,0-0.007-0.003-0.01-0.003s-0.007,0-0.007,0
			c-0.01-0.004-0.02-0.007-0.037-0.011c0,0-0.003-0.003-0.01-0.003c-0.013-0.003-0.03-0.007-0.054-0.014c-0.003,0-0.007,0-0.007,0
			c-0.027-0.007-0.054-0.014-0.087-0.02c-0.003-0.004-0.01-0.007-0.017-0.007c-0.033-0.007-0.07-0.017-0.11-0.027
			c-0.003,0-0.01,0-0.017-0.003c-0.037-0.01-0.074-0.017-0.117-0.023c-0.01-0.004-0.023-0.007-0.034-0.007
			c-0.047-0.014-0.097-0.023-0.151-0.033c-0.014-0.007-0.03-0.007-0.044-0.011c-0.057-0.01-0.121-0.023-0.181-0.037
			c-0.01,0-0.013-0.003-0.02-0.003c-0.061-0.01-0.124-0.023-0.191-0.037c-0.02-0.007-0.037-0.007-0.057-0.014
			c-0.071-0.013-0.148-0.026-0.229-0.04c-0.017,0-0.037-0.007-0.057-0.01c-0.078-0.017-0.158-0.027-0.242-0.044
			c-0.007,0-0.023,0-0.03-0.007c-0.094-0.013-0.191-0.03-0.285-0.047c-0.03,0-0.05-0.007-0.077-0.01
			c-0.098-0.017-0.205-0.033-0.312-0.051c-0.017,0-0.037-0.003-0.057-0.006c-0.101-0.014-0.202-0.034-0.305-0.048
			c-0.024-0.003-0.047-0.006-0.071-0.01c-0.121-0.017-0.238-0.03-0.362-0.05c-0.034-0.004-0.064-0.007-0.097-0.014
			c-0.128-0.014-0.259-0.033-0.396-0.047c-0.02-0.007-0.037-0.007-0.054-0.007c-0.127-0.021-0.255-0.033-0.389-0.051
			c-0.037-0.003-0.067-0.007-0.101-0.01c-0.148-0.021-0.292-0.033-0.446-0.054c-0.037,0-0.074-0.007-0.111-0.01
			c-0.151-0.017-0.299-0.03-0.457-0.047c-0.017-0.004-0.033-0.004-0.05-0.004c-0.167-0.02-0.339-0.033-0.513-0.054
			c-0.044,0-0.084-0.007-0.127-0.007c-0.175-0.02-0.353-0.033-0.537-0.047c-0.037-0.007-0.074-0.007-0.107-0.013
			c-0.171-0.014-0.349-0.027-0.53-0.041c-0.03,0-0.057-0.007-0.091-0.007c-0.198-0.013-0.399-0.029-0.607-0.043
			c-0.047-0.004-0.09-0.004-0.141-0.011c-0.208-0.013-0.42-0.026-0.641-0.04c-0.027,0-0.054-0.003-0.081-0.007
			c-0.205-0.007-0.413-0.02-0.627-0.033c-0.04,0-0.087-0.003-0.131-0.007c-0.231-0.014-0.463-0.02-0.701-0.033
			c-0.047,0-0.097-0.004-0.148-0.007c-0.245-0.007-0.497-0.021-0.755-0.027c0,0-0.003,0-0.007,0
			c-0.258-0.013-0.523-0.02-0.788-0.026c-0.054-0.004-0.107-0.007-0.158-0.007c-0.269-0.007-0.537-0.014-0.812-0.021
			c-0.044,0-0.084,0-0.131,0c-0.265-0.006-0.534-0.013-0.812-0.017c-0.027,0-0.054-0.003-0.084-0.003
			c-0.292-0.004-0.587-0.007-0.886-0.007c-0.057,0-0.118,0-0.175,0c-0.305-0.007-0.614-0.007-0.929-0.007c-0.007,0-0.014,0-0.023,0
			c-0.021,0-0.047,0-0.07,0c-0.259,0-0.523,0-0.789,0.004c-0.071,0-0.134,0.003-0.202,0.003c-0.298,0-0.601,0-0.909,0.007
			c-0.027,0-0.057,0-0.091,0c-0.278,0.007-0.56,0.01-0.845,0.014c-0.077,0.003-0.151,0.006-0.229,0.006
			c-0.315,0.007-0.634,0.014-0.959,0.021c-0.027,0-0.057,0-0.081,0c-0.302,0.01-0.607,0.021-0.916,0.027
			c-0.084,0.006-0.167,0.006-0.248,0.006c-0.339,0.014-0.678,0.027-1.02,0.041c-0.021,0-0.037,0-0.054,0
			c-0.333,0.013-0.665,0.026-0.997,0.04c-0.094,0.003-0.185,0.007-0.275,0.014c-0.359,0.013-0.718,0.03-1.081,0.047
			c-3.875,0.194-7.465,0.584-10.623,1.04c-7.982,1.161-13.193,2.771-13.193,2.771c-0.701,0.215-1.243,0.993-1.203,1.728
			l1.395,25.421c0,0.061,0.013,0.128,0.023,0.188c0.003,0.013,0.003,0.026,0.007,0.04c0.017,0.054,0.03,0.114,0.053,0.161
			c0.003,0.007,0.01,0.02,0.01,0.026c0.027,0.047,0.047,0.094,0.074,0.135c0.007,0.006,0.007,0.013,0.014,0.02
			c0.027,0.047,0.063,0.088,0.101,0.121c0.007,0.007,0.013,0.021,0.023,0.026c0.037,0.034,0.077,0.067,0.118,0.101
			c0.006,0,0.013,0.007,0.02,0.007c0.04,0.027,0.081,0.054,0.127,0.067c0.007,0,0.017,0.007,0.027,0.014
			c0.05,0.02,0.101,0.033,0.154,0.04c0.007,0.007,0.02,0.007,0.03,0.007c0.054,0.014,0.107,0.014,0.158,0.014
			c0.007,0,0.01,0.007,0.013,0.007c0.054,0,0.111-0.007,0.168-0.014c0.013-0.007,0.027-0.007,0.04-0.014
			c0.061-0.007,0.118-0.021,0.175-0.04c0,0,8.388-2.813,21.874-3.859l3.959,10.241l-15.049,5.771L82.973,94.74l0,0L70.682,62.689
			L58.604,31.195l0,0L91.339,18.64l4.983,12.995c-0.379,0.215-0.762,0.43-1.158,0.651c-11.888,6.771-19.53,14.146-19.53,14.146
			c-0.528,0.51-0.661,1.449-0.295,2.087l9.744,16.908l-0.864-15.801c-0.113-2.061,1.292-4.077,3.265-4.688
			c0.189-0.057,2.251-0.688,5.674-1.433c0.054-0.755,0.205-1.51,0.446-2.248c0.755-2.302,2.339-4.185,4.473-5.322
			c0.06-0.03,0.121-0.063,0.181-0.094c1.302-0.657,2.754-1.007,4.204-1.007h0.003c3.54,0,6.731,1.967,8.325,5.121
			c0.181,0.355,0.335,0.718,0.466,1.087c0.252-0.014,0.507-0.027,0.765-0.04c3.117-0.154,6.114-0.235,8.909-0.235l0,0
			c3.664,0,6.654,0.138,9.036,0.322l-10.409-18.063c-0.369-0.638-1.258-1.043-1.976-0.899c0,0-4.815,0.946-15.267,6.292
			L95.242,9.939c-1.285-3.355-5.077-5.054-8.431-3.769L53.668,18.852c-3.355,1.281-5.05,5.08-3.765,8.432l29.144,76.168
			c1.283,3.355,5.077,5.053,8.432,3.765l33.143-12.677c3.355-1.282,5.046-5.08,3.765-8.436l-5.671-14.535
			c0.037-0.007,0.071-0.007,0.104-0.007c0.034,0,0.064-0.007,0.098-0.007c0.04,0,0.081,0,0.124,0
			c0.295-0.007,0.59-0.014,0.879-0.021c0.081-0.007,0.155-0.007,0.232-0.014c0.315,0,0.627-0.006,0.936-0.013
			c0.047,0,0.094,0,0.144,0c0.269-0.007,0.541-0.007,0.802-0.014c0.067,0,0.134,0,0.205,0c0.295,0,0.587-0.007,0.875-0.007
			c0.01,0,0.027,0,0.041,0c0.03,0,0.061,0,0.09,0c0.286,0,0.567,0.007,0.839,0.007c0.044,0,0.091,0,0.131,0
			c0.295,0.007,0.584,0.007,0.869,0.014c0.05,0,0.101,0,0.151,0c0.587,0.013,1.148,0.026,1.688,0.047c0.04,0,0.077,0,0.118,0
			c0.265,0.014,0.523,0.02,0.778,0.033c0.03,0,0.063,0,0.094,0.007c0.255,0.007,0.507,0.021,0.751,0.033c0.007,0,0.007,0,0.014,0
			c0.251,0.014,0.497,0.027,0.731,0.041c0.034,0,0.064,0.006,0.094,0.006c0.238,0.014,0.47,0.027,0.698,0.048
			c0.003,0,0.01,0,0.013,0c0.231,0.013,0.453,0.033,0.671,0.047c0.013,0.007,0.03,0.007,0.043,0.007
			c0.218,0.02,0.43,0.033,0.634,0.054c0.02,0,0.04,0.006,0.06,0.006c0.416,0.041,0.809,0.081,1.181,0.121
			c0.014,0,0.027,0,0.044,0.007c0.185,0.021,0.369,0.04,0.543,0.061c0.007,0,0.01,0,0.013,0c0.359,0.047,0.695,0.087,1.014,0.134
			c0.006,0,0.017,0.007,0.027,0.007c0.315,0.04,0.604,0.087,0.875,0.135c0.007,0,0.014,0,0.017,0
			c0.137,0.026,0.265,0.047,0.389,0.066c0.006,0,0.013,0,0.02,0c0.248,0.047,0.477,0.088,0.688,0.135c0.006,0,0.013,0,0.023,0.007
			c0.315,0.06,0.587,0.12,0.822,0.174c0.007,0,0.007,0,0.014,0c0.151,0.04,0.282,0.074,0.402,0.101
			c0.003,0.007,0.007,0.007,0.014,0.007c0.057,0.014,0.107,0.027,0.154,0.04c0.003,0,0.007,0.007,0.01,0.007
			c0.097,0.027,0.178,0.047,0.242,0.067c0.003,0,0.006,0,0.01,0.007c0.03,0.007,0.057,0.014,0.081,0.026c0.003,0,0.003,0,0.003,0
			c0.023,0,0.04,0.007,0.057,0.014c0,0,0,0,0.006,0c0.01,0.007,0.024,0.014,0.034,0.014l0,0c0.007,0.007,0.01,0.007,0.01,0.007
			c0.063,0.02,0.124,0.033,0.185,0.054c0.01,0,0.023,0,0.04,0c0.054,0.013,0.107,0.02,0.165,0.02c0.003,0,0.007,0,0.01,0
			c0.006,0,0.013,0,0.02,0c0.047,0,0.094-0.007,0.141-0.013c0.003-0.007,0.014-0.007,0.021-0.007
			c0.047-0.007,0.094-0.021,0.137-0.041c0.01-0.006,0.017-0.013,0.027-0.013c0.044-0.021,0.084-0.047,0.125-0.074l0,0
			c0.037-0.033,0.074-0.061,0.104-0.101c0.003-0.007,0.01-0.014,0.02-0.021c0.027-0.04,0.057-0.073,0.077-0.12
			c0.003-0.007,0.01-0.014,0.013-0.021c0.021-0.04,0.037-0.087,0.054-0.127c0-0.014,0.003-0.021,0.003-0.027
			c0.017-0.054,0.027-0.107,0.034-0.161c0-0.014,0.003-0.026,0.003-0.04c0.007-0.061,0.01-0.121,0.003-0.188L138.11,46.674z
			 M113.317,67.159c-1.252,0-2.443-0.249-3.53-0.698c-3.399-1.396-5.798-4.738-5.798-8.634c0-1.449,0.335-2.825,0.929-4.057
			c1.51-3.117,4.708-5.271,8.399-5.271c5.144,0,9.331,4.188,9.331,9.328C122.648,62.972,118.461,67.159,113.317,67.159z"/>
	</g>
</g>
</svg>
