<?xml version="1.0" encoding="utf-8"?>
<!-- Generator: Adobe Illustrator 16.0.3, SVG Export Plug-In . SVG Version: 6.00 Build 0)  -->
<!DOCTYPE svg PUBLIC "-//W3C//DTD SVG 1.1//EN" "http://www.w3.org/Graphics/SVG/1.1/DTD/svg11.dtd">
<svg version="1.1" id="acceptance" xmlns="http://www.w3.org/2000/svg" xmlns:xlink="http://www.w3.org/1999/xlink" x="0px" y="0px"
	 width="178.688px" height="113.387px" viewBox="0 0 178.688 113.387" enable-background="new 0 0 178.688 113.387"
	 xml:space="preserve">
<g id="paypal">
	<g>
		<g>
			<rect x="0.373" y="0.373" fill="#FFFFFF" width="177.942" height="112.641"/>
			<path fill="#716F74" d="M177.941,0.746v111.895H0.747V0.746H177.941 M178.688,0H0v113.387h178.688V0L178.688,0z"/>
		</g>
		<g>
			<g>
				<path fill="#009CDE" d="M105.382,83.38c-0.378,2.482-2.274,2.482-4.108,2.482h-1.044l0.732-4.636
					c0.044-0.28,0.287-0.486,0.57-0.486h0.477c1.249,0,2.428,0,3.037,0.711C105.409,81.877,105.519,82.508,105.382,83.38
					L105.382,83.38z M104.583,76.901h-6.917c-0.474,0-0.876,0.345-0.949,0.812L93.92,95.448c-0.055,0.35,0.216,0.667,0.57,0.667
					h3.548c0.332,0,0.613-0.241,0.665-0.567l0.793-5.029c0.074-0.467,0.476-0.811,0.949-0.811h2.188
					c4.557,0,7.186-2.205,7.873-6.575c0.309-1.911,0.012-3.412-0.883-4.464C108.641,77.513,106.897,76.901,104.583,76.901
					L104.583,76.901z"/>
				<path fill="#003087" d="M56.049,83.38c-0.378,2.482-2.274,2.482-4.108,2.482h-1.044l0.732-4.636
					c0.044-0.28,0.286-0.486,0.569-0.486h0.479c1.248,0,2.427,0,3.035,0.711C56.077,81.877,56.187,82.508,56.049,83.38L56.049,83.38
					z M55.251,76.901h-6.917c-0.473,0-0.876,0.345-0.949,0.812l-2.797,17.735c-0.055,0.35,0.215,0.667,0.569,0.667h3.303
					c0.473,0,0.875-0.345,0.949-0.812l0.755-4.785c0.074-0.467,0.476-0.811,0.95-0.811h2.188c4.556,0,7.185-2.205,7.873-6.575
					c0.309-1.911,0.013-3.412-0.883-4.464C59.309,77.513,57.565,76.901,55.251,76.901L55.251,76.901z"/>
			</g>
			<path fill="#003087" d="M71.309,89.746c-0.32,1.894-1.822,3.163-3.738,3.163c-0.96,0-1.729-0.309-2.224-0.894
				c-0.49-0.58-0.674-1.406-0.519-2.327c0.298-1.875,1.824-3.187,3.711-3.187c0.94,0,1.704,0.312,2.208,0.902
				C71.254,87.999,71.454,88.83,71.309,89.746L71.309,89.746z M75.924,83.3h-3.312c-0.284,0-0.525,0.206-0.569,0.487l-0.146,0.926
				l-0.231-0.336c-0.717-1.041-2.315-1.389-3.912-1.389c-3.659,0-6.785,2.772-7.393,6.661c-0.317,1.941,0.132,3.795,1.233,5.089
				c1.01,1.189,2.453,1.684,4.171,1.684c2.949,0,4.585-1.895,4.585-1.895l-0.147,0.921c-0.056,0.35,0.215,0.667,0.569,0.667h2.982
				c0.473,0,0.875-0.345,0.95-0.812l1.79-11.338C76.549,83.617,76.278,83.3,75.924,83.3L75.924,83.3z"/>
			<path fill="#009CDE" d="M120.641,89.746c-0.321,1.894-1.822,3.163-3.739,3.163c-0.96,0-1.729-0.309-2.224-0.894
				c-0.49-0.58-0.675-1.406-0.519-2.327c0.298-1.875,1.825-3.187,3.712-3.187c0.941,0,1.705,0.312,2.208,0.902
				C120.586,87.999,120.786,88.83,120.641,89.746L120.641,89.746z M125.257,83.3h-3.313c-0.284,0-0.525,0.206-0.569,0.487
				l-0.146,0.926l-0.231-0.336c-0.717-1.041-2.315-1.389-3.912-1.389c-3.659,0-6.785,2.772-7.392,6.661
				c-0.317,1.941,0.132,3.795,1.232,5.089c1.011,1.189,2.453,1.684,4.171,1.684c2.949,0,4.585-1.895,4.585-1.895l-0.148,0.921
				c-0.056,0.35,0.215,0.667,0.569,0.667h2.983c0.472,0,0.875-0.345,0.949-0.812l1.791-11.338
				C125.881,83.617,125.61,83.3,125.257,83.3L125.257,83.3z"/>
			<g>
				<path fill="#003087" d="M93.564,83.3h-3.33c-0.318,0-0.616,0.158-0.795,0.421l-4.592,6.764l-1.946-6.499
					c-0.122-0.406-0.496-0.686-0.92-0.686h-3.272c-0.395,0-0.673,0.389-0.545,0.764l3.665,10.759l-3.448,4.864
					c-0.27,0.382,0.002,0.91,0.47,0.91h3.326c0.315,0,0.61-0.154,0.79-0.413l11.071-15.979C94.303,83.823,94.029,83.3,93.564,83.3
					L93.564,83.3z"/>
				<path fill="#009CDE" d="M129.16,77.389l-2.839,18.061c-0.054,0.349,0.216,0.666,0.57,0.666h2.855
					c0.472,0,0.875-0.345,0.949-0.812l2.799-17.735c0.056-0.35-0.214-0.667-0.569-0.667h-3.195
					C129.446,76.901,129.204,77.108,129.16,77.389L129.16,77.389z"/>
			</g>
			<path fill="#003087" d="M80.175,70.291H89.5c1.014,0,1.864-0.727,2.022-1.728l0.092-0.48L93.37,56.95l0.114-0.62
				c0.187-1.188,1.2-2.055,2.408-2.055h1.395c4.772,0,8.669-1.052,11.586-3.126c3.275-2.33,5.427-6.03,6.395-10.999
				c0.898-4.615,0.286-8.172-1.821-10.574c-0.656-0.746-1.496-1.395-2.497-1.924l-0.1-0.054l-0.006-0.125
				c0.696-4.441-0.017-7.475-2.38-10.168c-2.493-2.841-7.043-4.28-13.523-4.28h-17.92c-1.173,0-2.156,0.841-2.339,1.998
				l-7.462,47.319c-0.062,0.388,0.05,0.782,0.305,1.08c0.255,0.3,0.627,0.471,1.02,0.471H79.84l-0.799,5.069
				c-0.053,0.332,0.042,0.67,0.261,0.926C79.521,70.144,79.839,70.291,80.175,70.291L80.175,70.291z"/>
			<path fill="#003087" d="M85.375,27.537c0.118-0.749,0.599-1.363,1.247-1.674c0.294-0.141,0.623-0.22,0.968-0.22h14.047
				c1.664,0,3.215,0.109,4.634,0.338c0.405,0.064,0.8,0.141,1.183,0.226c0.384,0.084,0.755,0.18,1.116,0.284
				c0.18,0.053,0.356,0.109,0.531,0.166c0.696,0.231,1.345,0.505,1.942,0.82c0.703-4.485-0.006-7.537-2.431-10.301
				c-2.671-3.044-7.497-4.348-13.67-4.348h-17.92c-1.262,0-2.336,0.918-2.533,2.164l-7.462,47.319
				c-0.148,0.934,0.574,1.777,1.519,1.777H79.61l2.779-17.622L85.375,27.537L85.375,27.537z"/>
			<path fill="#009CDE" d="M111.043,27.478L111.043,27.478L111.043,27.478c-0.054,0.342-0.114,0.69-0.184,1.049
				c-2.363,12.134-10.448,16.33-20.775,16.33h-5.258c-1.262,0-2.327,0.917-2.523,2.164l0,0l0,0L79.61,64.09l-0.764,4.842
				c-0.128,0.816,0.502,1.556,1.33,1.556H89.5c1.104,0,2.044-0.803,2.215-1.894l0.092-0.474l1.757-11.139l0.113-0.615
				c0.172-1.092,1.112-1.895,2.215-1.895h1.395c9.034,0,16.107-3.67,18.174-14.285c0.864-4.435,0.418-8.138-1.866-10.739
				C112.904,28.66,112.045,28.009,111.043,27.478L111.043,27.478z"/>
			<path fill="#012169" d="M108.57,26.491c-0.361-0.104-0.732-0.2-1.116-0.284c-0.383-0.085-0.777-0.161-1.183-0.226
				c-1.419-0.229-2.97-0.338-4.634-0.338H87.589c-0.345,0-0.673,0.079-0.968,0.22c-0.648,0.311-1.129,0.925-1.247,1.674
				l-2.986,18.931l-0.086,0.553c0.197-1.247,1.261-2.164,2.523-2.164h5.258c10.327,0,18.412-4.196,20.775-16.33
				c0.07-0.358,0.129-0.707,0.184-1.049c-0.597-0.315-1.246-0.589-1.942-0.82C108.926,26.601,108.75,26.544,108.57,26.491
				L108.57,26.491z"/>
		</g>
	</g>
</g>
</svg>
