<?xml version="1.0" encoding="utf-8"?>
<!-- Generator: Adobe Illustrator 16.0.3, SVG Export Plug-In . SVG Version: 6.00 Build 0)  -->
<!DOCTYPE svg PUBLIC "-//W3C//DTD SVG 1.1//EN" "http://www.w3.org/Graphics/SVG/1.1/DTD/svg11.dtd">
<svg version="1.1" id="acceptance" xmlns="http://www.w3.org/2000/svg" xmlns:xlink="http://www.w3.org/1999/xlink" x="0px" y="0px"
	 width="181.21px" height="113.387px" viewBox="0 0 181.21 113.387" enable-background="new 0 0 181.21 113.387"
	 xml:space="preserve">
<g id="plus">
	<g>
		<rect fill="#0058A0" width="181.21" height="113.387"/>
		<rect x="2.049" y="2.123" fill="#FFFFFF" width="177" height="109.141"/>
		<rect x="7.398" y="7.418" fill="#0058A0" width="166.053" height="99.096"/>
		<polygon fill="#FFFFFF" points="12.92,58.789 55.769,58.799 47.979,97.879 		"/>
		<polygon fill="none" stroke="#0058A0" stroke-width="0.0148" points="12.92,58.789 55.769,58.799 47.979,97.879 		"/>
		<polygon fill="#FFFFFF" points="70.545,14.639 63.148,53.051 105.257,53.051 		"/>
		<polygon fill="none" stroke="#0058A0" stroke-width="0.0148" points="70.545,14.639 63.148,53.051 105.257,53.051 		"/>
		<g>
			<rect fill="none" width="181.21" height="113.387"/>
			<path fill="#FFFFFF" d="M143.337,59.025l-10.073-0.006l-5.069,25.982c-0.227,0.168-0.836,5.154-5.466,4.77
				c-5.59-0.467-3.842-5.945-3.842-5.945l4.457-24.816l-9.894,0.016l-4.974,26.102c0,0-3.119,12.656,13.33,13.615
				c0,0,13.875,1.979,16.965-14.959C142.045,65.826,143.337,59.025,143.337,59.025"/>
			<path fill="none" stroke="#0058A0" stroke-width="0.0148" d="M143.337,59.025l-10.073-0.006l-5.069,25.982
				c-0.227,0.168-0.836,5.154-5.466,4.77c-5.59-0.467-3.842-5.945-3.842-5.945l4.457-24.816l-9.894,0.016l-4.974,26.102
				c0,0-3.119,12.656,13.33,13.615c0,0,13.875,1.979,16.965-14.959C142.045,65.826,143.337,59.025,143.337,59.025z"/>
			<path fill="#FFFFFF" d="M139.634,85.021c0,0-4.188,12.904,12.607,13.668c0,0,14.062-0.264,14.028-12.746
				c0,0,1.075-7.391-10.763-12.43c0,0-2.488-1.104-2.627-3.602c-0.137-2.496,2.53-2.967,2.53-2.967s1.83-0.496,2.819,0.609
				c0.711,0.797,0.605,3.838,0.605,3.838h9.377c0,0,3.672-12.926-11.548-13.088c0,0-11.311-0.701-13.757,10.336
				c0,0-1.566,6.555,3.643,9.936c5.201,3.387,6.279,3.482,8.179,4.832c1.897,1.354,2.099,6.383-1.817,6.637
				c-4.411,0.283-3.499-5.014-3.581-5.014L139.634,85.021z"/>
			<path fill="none" stroke="#0058A0" stroke-width="0.0148" d="M139.634,85.021c0,0-4.188,12.904,12.607,13.668
				c0,0,14.062-0.264,14.028-12.746c0,0,1.075-7.391-10.763-12.43c0,0-2.488-1.104-2.627-3.602c-0.137-2.496,2.53-2.967,2.53-2.967
				s1.83-0.496,2.819,0.609c0.711,0.797,0.605,3.838,0.605,3.838h9.377c0,0,3.672-12.926-11.548-13.088
				c0,0-11.311-0.701-13.757,10.336c0,0-1.566,6.555,3.643,9.936c5.201,3.387,6.279,3.482,8.179,4.832
				c1.897,1.354,2.099,6.383-1.817,6.637c-4.411,0.283-3.499-5.014-3.581-5.014L139.634,85.021z"/>
			<polygon fill="#FFFFFF" points="13.977,53.07 63.913,14.285 56.684,53.088 			"/>
			<polygon fill="none" stroke="#0058A0" stroke-width="0.0148" points="13.977,53.07 63.913,14.285 56.684,53.088 			"/>
			<polygon fill="#FFFFFF" points="92.164,58.814 102.36,58.805 96.723,88.773 107.48,88.791 105.833,97.758 84.703,97.764 			"/>
			<polygon fill="none" stroke="#0058A0" stroke-width="0.0148" points="92.164,58.814 102.36,58.805 96.723,88.773 107.48,88.791 
				105.833,97.758 84.703,97.764 			"/>
			<path fill="#FFFFFF" d="M70.386,68.141l-1.591,8.49h3.712c6.369-0.119,6.124-4.73,6.124-4.73c-0.448-3.842-4.368-3.76-4.368-3.76
				H70.386z M61.946,58.795l13.118,0.037c0,0,9.454,0.322,12.464,6.926c3.008,6.604-1.146,13.793-1.9,14.369
				s-3.517,6.893-18.725,6.033l-2.513,11.959l-9.957,0.004L61.946,58.795z"/>
			<path fill="none" stroke="#0058A0" stroke-width="0.0148" d="M70.386,68.141l-1.591,8.49h3.712
				c6.369-0.119,6.124-4.73,6.124-4.73c-0.448-3.842-4.368-3.76-4.368-3.76H70.386z M61.946,58.795l13.118,0.037
				c0,0,9.454,0.322,12.464,6.926c3.008,6.604-1.146,13.793-1.9,14.369s-3.517,6.893-18.725,6.033l-2.513,11.959l-9.957,0.004
				L61.946,58.795z"/>
		</g>
	</g>
</g>
</svg>
