<?xml version="1.0" encoding="utf-8"?>
<!-- Generator: Adobe Illustrator 16.0.3, SVG Export Plug-In . SVG Version: 6.00 Build 0)  -->
<!DOCTYPE svg PUBLIC "-//W3C//DTD SVG 1.1//EN" "http://www.w3.org/Graphics/SVG/1.1/DTD/svg11.dtd">
<svg version="1.1" id="acceptance" xmlns="http://www.w3.org/2000/svg" xmlns:xlink="http://www.w3.org/1999/xlink" x="0px" y="0px"
	 width="153.514px" height="113.387px" viewBox="0 0 153.514 113.387" enable-background="new 0 0 153.514 113.387"
	 xml:space="preserve">
<g id="swipp">
	<g>
		<defs>
			<rect id="SVGID_1_" width="153.514" height="113.387"/>
		</defs>
		<clipPath id="SVGID_2_">
			<use xlink:href="#SVGID_1_"  overflow="visible"/>
		</clipPath>
		<path clip-path="url(#SVGID_2_)" fill="#1D1D1B" d="M24.746,67.066c0,3.564-2.888,6.451-6.452,6.451
			c-3.563,0-6.45-2.887-6.45-6.451c0-3.563,2.887-6.449,6.45-6.449C21.857,60.617,24.746,63.504,24.746,67.066"/>
		<path clip-path="url(#SVGID_2_)" fill="#1D1D1B" d="M71.661,31.121c0,6.287-5.095,11.383-11.381,11.383
			c-6.286,0-11.38-5.096-11.38-11.383c0-6.283,5.095-11.379,11.38-11.379C66.566,19.742,71.661,24.838,71.661,31.121"/>
		<polygon clip-path="url(#SVGID_2_)" fill="#1D1D1B" points="30.075,72.391 39.006,72.391 43.875,90.789 49.593,72.277 
			57.009,72.277 62.784,90.846 67.766,72.391 76.526,72.391 67.072,102.963 59.104,102.963 53.273,84.336 47.329,102.963 
			39.416,102.963 		"/>
		<rect x="79.458" y="72.391" clip-path="url(#SVGID_2_)" fill="#1D1D1B" width="8.605" height="30.346"/>
		<path clip-path="url(#SVGID_2_)" fill="#1D1D1B" d="M112.591,87.914c0,2.025-0.73,3.75-2.172,5.127
			c-1.438,1.369-3.471,2.063-6.042,2.063h-2.667V80.596h2.474c2.56,0,4.617,0.611,6.112,1.818c1.523,1.227,2.295,3.035,2.295,5.371
			V87.914z M120.194,94.402c0.909-1.898,1.37-4.146,1.37-6.68v-0.129c0-2.242-0.389-4.314-1.154-6.156
			c-0.764-1.838-1.874-3.438-3.297-4.76c-1.428-1.324-3.191-2.363-5.242-3.088c-2.064-0.729-4.444-1.098-7.073-1.098H93.146v40.895
			h8.563V103.08h2.128c2.472,0,4.814-0.33,6.962-0.977c2.139-0.643,4.033-1.621,5.63-2.906
			C118.018,97.918,119.284,96.305,120.194,94.402"/>
	</g>
	<g>
		<defs>
			<rect id="SVGID_3_" x="0.005" width="153.504" height="113.387"/>
		</defs>
		<clipPath id="SVGID_4_">
			<use xlink:href="#SVGID_3_"  overflow="visible"/>
		</clipPath>
		<path clip-path="url(#SVGID_4_)" fill="#1D1D1B" d="M144.537,87.914c0,2.025-0.731,3.75-2.173,5.127
			c-1.438,1.369-3.47,2.063-6.041,2.063h-2.667V80.596h2.474c2.559,0,4.616,0.611,6.112,1.818c1.523,1.227,2.295,3.035,2.295,5.371
			V87.914z M152.139,94.402c0.91-1.898,1.37-4.146,1.37-6.68v-0.129c0-2.242-0.388-4.314-1.154-6.156
			c-0.765-1.838-1.874-3.438-3.297-4.76c-1.428-1.324-3.192-2.363-5.241-3.088c-2.065-0.729-4.444-1.098-7.074-1.098h-11.651v40.895
			h8.564V103.08h2.127c2.473,0,4.814-0.33,6.962-0.977c2.139-0.643,4.033-1.621,5.632-2.906
			C149.964,97.918,151.23,96.305,152.139,94.402"/>
		<path clip-path="url(#SVGID_4_)" fill="#1D1D1B" d="M30.654,85.395c-0.726-1.342-1.683-2.469-2.874-3.385
			c-1.192-0.916-2.534-1.672-4.023-2.27c-1.493-0.596-3.003-1.105-4.536-1.531c-1.192-0.342-2.298-0.672-3.321-0.99
			c-0.907-0.283-5.283-1.545-6.895-4.83H0.702c-0.046,0.457-0.068,0.928-0.068,1.412c0,2.002,0.393,3.695,1.183,5.078
			c0.787,1.385,1.809,2.533,3.064,3.449s2.642,1.67,4.153,2.266c1.51,0.6,2.989,1.088,4.439,1.471
			c1.318,0.385,2.489,0.734,3.513,1.053c1.021,0.32,1.872,0.662,2.555,1.023c0.68,0.361,1.202,0.777,1.563,1.246
			c0.362,0.469,0.543,1.045,0.543,1.725c0,1.236-0.564,2.17-1.693,2.811c-1.128,0.639-2.586,0.957-4.375,0.957
			c-2.47,0-4.864-0.352-7.185-1.053c-2.321-0.703-4.482-1.588-6.483-2.652l-1.916,8.432c1.873,1.064,4.162,1.938,6.866,2.619
			c2.703,0.68,5.547,1.021,8.527,1.021c2.64,0,4.971-0.32,6.995-0.959c2.021-0.637,3.724-1.531,5.109-2.682
			c1.384-1.148,2.436-2.512,3.161-4.088c0.723-1.574,1.087-3.322,1.087-5.238S31.376,86.734,30.654,85.395"/>
	</g>
	<g>
		<defs>
			<rect id="SVGID_5_" width="153.514" height="113.387"/>
		</defs>
		<clipPath id="SVGID_6_">
			<use xlink:href="#SVGID_5_"  overflow="visible"/>
		</clipPath>
		<path clip-path="url(#SVGID_6_)" fill="#1D1D1B" d="M109.725,51.066H74.699h-0.361H39.311V4.256h32.137
			c0.303,9.254,7.893,16.664,17.218,16.664c9.328,0,16.917-7.41,17.222-16.664h3.836V51.066z M111.623,0H37.414
			c-4.701,0-8.511,3.813-8.511,8.514v38.299c0,4.699,3.811,8.51,8.511,8.51h36.924h0.361h36.924c4.701,0,8.512-3.811,8.512-8.51
			V8.512C120.134,3.811,116.324,0,111.623,0"/>
	</g>
</g>
</svg>
