<?xml version="1.0" encoding="utf-8"?>
<!-- Generator: Adobe Illustrator 16.0.3, SVG Export Plug-In . SVG Version: 6.00 Build 0)  -->
<!DOCTYPE svg PUBLIC "-//W3C//DTD SVG 1.1//EN" "http://www.w3.org/Graphics/SVG/1.1/DTD/svg11.dtd">
<svg version="1.1" id="acceptance" xmlns="http://www.w3.org/2000/svg" xmlns:xlink="http://www.w3.org/1999/xlink" x="0px" y="0px"
	 width="592.711px" height="113.387px" viewBox="0 0 592.711 113.387" enable-background="new 0 0 592.711 113.387"
	 xml:space="preserve">
<g id="westernunion">
	<g>
		<g id="g312" transform="translate(815.0381,130.4895)">
			<path id="path314" fill="#0C0C0C" d="M-222.327-26.234c0,5.045-4.092,9.131-9.132,9.131
				h-574.447c-5.044,0-9.132-4.086-9.132-9.131v-95.123c0-5.045,4.088-9.133,9.132-9.133h574.447c5.04,0,9.132,4.088,9.132,9.133
				V-26.234z"/>
		</g>
		<path id="path318" fill="#FCDE12" d="M19.624,14.248h13.375l3.191,23.744h0.101l3.512-23.744
			h15.466l3.499,23.744h0.103l3.199-23.744h13.375l-8.146,37.736h-16.21l-3.497-24.445H47.49l-3.502,24.445H27.779L19.624,14.248z"
			/>
		<path id="path322" fill="#FCDE12" d="M84.171,14.248h28.706v9.84H98.497v4.014h13.28v9.832
			h-13.28v4.232h14.849v9.818H84.171V14.248z"/>
		<g id="g326">
			<g id="g332" transform="translate(633.5754,162.5191)">
				<path id="path334" fill="#FCDE12" d="M-490.068-137.55c-0.058-2.354-1.361-3.139-3.297-3.139
					c-2.4,0-3.454,1.045-3.454,2.201c0,1.348,0.888,1.926,2.456,2.4c2.876,0.846,8.154,1.879,11.965,3.506
					c4.769,1.98,6.852,5.387,6.852,9.926c0,9.254-7.523,13.125-18.196,13.125c-9.092,0-17.452-2.82-17.452-12.65h14.325
					c0,1.053,0.213,2.094,0.785,2.883c0.572,0.719,1.514,1.191,2.924,1.191c2.193,0,3.614-1.412,3.614-3.08
					c0-1.406-1.1-2.139-2.518-2.561l-10.613-3.133c-5.794-1.727-7.829-5.236-7.829-10.09c0-7.846,6.324-12.289,17.346-12.289
					c9.407,0,16.473,2.936,16.473,11.709H-490.068z"/>
			</g>
		</g>
		<path id="path338" fill="#FCDE12" d="M175.433,24.402h-9.298V14.25h33.552v10.152h-9.304v27.582
			h-14.949V24.402z"/>
		<path id="path342" fill="#FCDE12" d="M209.405,14.248h28.7v9.84h-14.368v4.014h13.273v9.832
			h-13.273v4.232h14.845v9.818h-29.178V14.248z"/>
		<g id="g346">
			<g id="g352" transform="translate(676.2892,166.8499)">
				<path id="path354" fill="#FCDE12" d="M-427.047-152.602h22.322
					c8.102,0,12.859,2.465,12.859,9.578c0,4.34-1.833,7.621-7.488,8.988v0.102c3.667,0.318,5.655,1.926,6.382,4.814
					c0.835,3.234,0.741,8.564,2.458,14.254h-14.628c-0.884-2.816-1.358-7.572-1.888-10.807c-0.302-1.891-1.25-2.609-3.653-2.609
					h-1.731v13.416h-14.632V-152.602z M-411.159-136.866c2.879,0,4.968-0.992,4.968-3.807c0-2.771-1.938-3.35-4.872-3.35h-1.352
					v7.156H-411.159z"/>
			</g>
		</g>
		<path id="path358" fill="#FCDE12" d="M295.773,14.248h17.92l7.987,22.852h0.112V14.248h12.129
			v37.736h-17.92l-8.004-22.992h-0.106v22.992h-12.118V14.248z"/>
		<g id="g368" transform="translate(639.3149,138.4578)">
			<path id="path370" fill="#FCDE12" d="M-481.601-53.927c0,9.104-6.535,13.656-17.924,13.656
				c-11.398,0-17.926-4.553-17.926-13.656v-25.078h14.944v24.453c0,2.979,1.414,4.146,2.982,4.146c1.567,0,2.98-1.168,2.98-4.146
				v-24.453h14.944V-53.927z"/>
		</g>
		<path id="path374" fill="#FCDE12" d="M169.693,59.453h17.928l7.991,22.846h0.106V59.453h12.122
			v37.746h-17.926l-7.987-23.008h-0.12v23.008h-12.114V59.453z"/>
		<path id="path376" fill="#FCDE12" d="M220.086,59.453h14.932v37.744h-14.932V59.453z"/>
		<g id="g386" transform="translate(682.8107,148.9893)">
			<path id="path388" fill="#FCDE12" d="M-417.424-90.528c13.017,0,19.502,8.098,19.502,19.861
				c0,11.758-6.485,19.865-19.502,19.865c-13.012,0-19.487-8.107-19.487-19.865C-436.91-82.431-430.435-90.528-417.424-90.528
				 M-417.424-60.63c2.315,0,4.022-1.313,4.022-10.037c0-8.523-1.609-10.037-4.022-10.037c-2.396,0-4.021,1.514-4.021,10.037
				C-421.445-61.942-419.706-60.63-417.424-60.63"/>
		</g>
		<path id="path392" fill="#FCDE12" d="M295.773,59.453h17.92l7.987,22.846h0.112V59.453h12.129
			v37.746h-17.92l-8.004-23.008h-0.106v23.008h-12.118V59.453z"/>
		<g id="g402" transform="translate(767.3403,167.0655)">
			<path id="path404" fill="#FCDE12" d="M-292.704-153.351h-6.37l-7.133,52.973h-0.229
				l-7.809-52.973h-34.51l-7.83,52.973h-0.224l-7.113-52.973h-29.839l18.19,84.18h36.16l7.802-54.535h0.235l7.802,54.535h36.157
				l1.814-8.418c-4.626-4.912-7.105-11.496-7.105-19.803V-153.351z"/>
		</g>
		<g id="g406" transform="translate(767.3403,167.0655)">
			<path id="path408" fill="#FFFFFF" d="M-292.704-153.351v55.959
				c0,8.307,2.479,14.891,7.105,19.803l16.357-75.762H-292.704z"/>
		</g>
		<g id="g410" transform="translate(786.1781,167.0655)">
			<path id="path412" fill="#FCDE12" d="M-264.91-153.351v54.566c0,6.641-3.148,9.229-6.646,9.229
				s-6.649-2.588-6.649-9.229v-54.566h-7.112l-16.803,77.855c6.815,5.672,17.139,8.559,30.564,8.559
				c25.412,0,39.99-10.156,39.99-30.455v-55.959H-264.91z"/>
		</g>
		<path id="path416" fill="#FCDE12" d="M351.705,13.715h-4.966l17.87,84.18h4.972L351.705,13.715z
			"/>
		<path id="path420" fill="#FCDE12" d="M378.191,97.893h4.966l-17.871-84.178h-4.965
			L378.191,97.893z"/>
		<path id="path436" fill="#FCDE12" d="M570.394,21.723h-0.998l-1.474-4.785l-0.02,0.016v4.77
			h-1.121v-5.574h1.965l1.164,4.055h0.016l1.269-4.055h1.892v5.574h-1.118v-4.77l-0.016-0.016L570.394,21.723z"/>
	</g>
</g>
</svg>
