<?xml version="1.0" encoding="utf-8"?>
<!-- Generator: Adobe Illustrator 16.0.3, SVG Export Plug-In . SVG Version: 6.00 Build 0)  -->
<!DOCTYPE svg PUBLIC "-//W3C//DTD SVG 1.1//EN" "http://www.w3.org/Graphics/SVG/1.1/DTD/svg11.dtd">
<svg version="1.1" id="acceptance" xmlns="http://www.w3.org/2000/svg" xmlns:xlink="http://www.w3.org/1999/xlink" x="0px" y="0px"
	 width="113.647px" height="113.387px" viewBox="0 0 113.647 113.387" enable-background="new 0 0 113.647 113.387"
	 xml:space="preserve">
<g id="americanexpress">
	<g>
		
			<radialGradient id="SVGID_1_" cx="19.9502" cy="-981.1826" r="106.0182" gradientTransform="matrix(1 0 0 -1 -0.0151 -961.3789)" gradientUnits="userSpaceOnUse">
			<stop  offset="0" style="stop-color:#9DD5F6"/>
			<stop  offset="0.0711" style="stop-color:#98D3F5"/>
			<stop  offset="0.1575" style="stop-color:#89CEF3"/>
			<stop  offset="0.2516" style="stop-color:#70C6EF"/>
			<stop  offset="0.3514" style="stop-color:#4EBBEA"/>
			<stop  offset="0.4546" style="stop-color:#23ADE3"/>
			<stop  offset="0.5" style="stop-color:#0DA6E0"/>
			<stop  offset="1" style="stop-color:#2E77BC"/>
		</radialGradient>
		<path fill="url(#SVGID_1_)" d="M112.978,0H0v113.387h112.977v-37.42c0.449-0.649,0.67-1.479,0.67-2.494
			c0-1.161-0.221-1.881-0.67-2.486"/>
		<path fill="#FFFFFF" d="M10.184,49.064l-2.173-5.296l-2.162,5.296 M58.064,46.955c-0.437,0.266-0.953,0.274-1.571,0.274h-3.857
			v-2.951h3.91c0.554,0,1.131,0.024,1.506,0.239c0.412,0.193,0.667,0.605,0.667,1.175C58.719,46.272,58.476,46.74,58.064,46.955z
			 M85.584,49.064l-2.198-5.296l-2.185,5.296H85.584z M34.286,54.797H31.03l-0.012-10.405l-4.604,10.405h-2.788l-4.616-10.414
			v10.414h-6.458l-1.22-2.964H4.719l-1.232,2.964H0.037l5.687-13.285h4.718l5.401,12.578V41.512h5.183l4.156,9.012l3.818-9.012
			h5.287L34.286,54.797L34.286,54.797z M47.26,54.797H36.652V41.512H47.26v2.767h-7.432v2.395h7.253v2.724h-7.253v2.652h7.432
			V54.797z M62.217,45.089c0,2.119-1.414,3.213-2.237,3.542c0.695,0.265,1.288,0.731,1.571,1.118
			c0.448,0.661,0.526,1.252,0.526,2.438v2.61h-3.203l-0.012-1.676c0-0.8,0.077-1.948-0.502-2.588
			c-0.464-0.467-1.171-0.569-2.314-0.569h-3.409v4.833h-3.175V41.512h7.304c1.623,0,2.819,0.043,3.846,0.637
			C61.614,42.741,62.217,43.607,62.217,45.089z M67.299,54.797h-3.24V41.512h3.24V54.797z M104.888,54.797h-4.5l-6.019-9.972v9.972
			h-6.467l-1.236-2.964H80.07l-1.199,2.964h-3.716c-1.543,0-3.498-0.342-4.604-1.47c-1.116-1.128-1.696-2.655-1.696-5.071
			c0-1.971,0.347-3.771,1.711-5.195c1.027-1.061,2.635-1.549,4.823-1.549h3.074v2.847h-3.01c-1.159,0-1.813,0.172-2.443,0.787
			c-0.542,0.559-0.912,1.616-0.912,3.01c0,1.423,0.282,2.449,0.873,3.119c0.489,0.526,1.377,0.686,2.213,0.686h1.427l4.475-10.448
			h4.758l5.376,12.566V41.512h4.835l5.582,9.252v-9.252h3.252V54.797L104.888,54.797z M0,57.406h5.425l1.223-2.951h2.739l1.22,2.951
			h10.676V55.15l0.953,2.266h5.542l0.953-2.3v2.29h26.53l-0.013-4.844h0.513c0.359,0.013,0.465,0.046,0.465,0.639v4.205h13.721
			v-1.128c1.107,0.594,2.828,1.128,5.093,1.128h5.773l1.235-2.951h2.739l1.208,2.951H97.12v-2.804l1.685,2.804h8.914V38.878h-8.822
			v2.188l-1.235-2.188h-9.053v2.188l-1.134-2.188H75.247c-2.046,0-3.846,0.285-5.299,1.081v-1.081H61.51v1.081
			c-0.925-0.82-2.186-1.081-3.586-1.081H27.096l-2.068,4.785l-2.124-4.785h-9.71v2.188l-1.066-2.188H3.845L0,47.687L0,57.406
			L0,57.406z"/>
		<path fill="#FFFFFF" d="M112.978,67.206h-5.788c-0.578,0-0.961,0.021-1.285,0.239c-0.335,0.215-0.464,0.534-0.464,0.956
			c0,0.502,0.283,0.842,0.695,0.99c0.335,0.116,0.695,0.15,1.223,0.15l1.721,0.046c1.737,0.043,2.896,0.342,3.603,1.07
			c0.128,0.101,0.206,0.215,0.294,0.328 M112.978,75.967c-0.771,1.127-2.274,1.698-4.309,1.698h-6.133v-2.849h6.108
			c0.605,0,1.03-0.079,1.285-0.329c0.221-0.205,0.375-0.504,0.375-0.866c0-0.388-0.154-0.695-0.388-0.879
			c-0.23-0.203-0.565-0.295-1.119-0.295c-2.981-0.102-6.702,0.092-6.702-4.113c0-1.928,1.224-3.956,4.556-3.956h6.325v-2.644h-5.876
			c-1.773,0-3.062,0.425-3.974,1.085v-1.085h-8.692c-1.391,0-3.022,0.345-3.794,1.085v-1.085H75.118v1.085
			c-1.235-0.891-3.32-1.085-4.282-1.085H60.597v1.085c-0.978-0.946-3.151-1.085-4.476-1.085H44.662l-2.622,2.838l-2.456-2.838
			H22.467v18.541h16.795l2.702-2.882l2.545,2.882l10.353,0.01v-4.361h1.018c1.374,0.021,2.994-0.035,4.423-0.652v5.004h8.539v-4.833
			h0.412c0.526,0,0.578,0.022,0.578,0.548v4.284h25.94c1.646,0,3.368-0.422,4.322-1.187v1.187h8.228c1.712,0,3.384-0.24,4.657-0.854
			V75.967L112.978,75.967z M100.311,70.658c0.619,0.639,0.95,1.446,0.95,2.814c0,2.858-1.785,4.192-4.988,4.192h-6.185v-2.849h6.16
			c0.602,0,1.029-0.079,1.296-0.329c0.219-0.205,0.375-0.504,0.375-0.866c0-0.388-0.169-0.695-0.387-0.879
			c-0.243-0.203-0.578-0.295-1.131-0.295c-2.97-0.102-6.689,0.092-6.689-4.113c0-1.928,1.211-3.956,4.54-3.956h6.366v2.828h-5.825
			c-0.577,0-0.953,0.021-1.272,0.24c-0.348,0.215-0.477,0.534-0.477,0.956c0,0.502,0.295,0.842,0.695,0.99
			c0.335,0.116,0.695,0.15,1.235,0.15l1.71,0.046C98.408,69.631,99.591,69.93,100.311,70.658z M71.657,69.837
			c-0.425,0.252-0.95,0.273-1.568,0.273h-3.858v-2.984h3.911c0.565,0,1.131,0.013,1.515,0.24c0.412,0.215,0.657,0.627,0.657,1.195
			S72.069,69.588,71.657,69.837z M73.575,71.49c0.707,0.261,1.284,0.729,1.555,1.115c0.449,0.649,0.514,1.255,0.526,2.427v2.633
			h-3.188v-1.662c0-0.799,0.077-1.983-0.514-2.601c-0.464-0.477-1.171-0.59-2.33-0.59h-3.394v4.853h-3.191V64.377h7.332
			c1.607,0,2.778,0.071,3.82,0.628c1.002,0.604,1.632,1.435,1.632,2.95C75.825,70.076,74.411,71.159,73.575,71.49z M77.586,64.377
			h10.598v2.749h-7.436v2.416h7.254v2.711h-7.254v2.644l7.436,0.012v2.757H77.586V64.377z M56.162,70.51h-4.104v-3.384h4.141
			c1.146,0,1.942,0.467,1.942,1.629C58.141,69.904,57.382,70.51,56.162,70.51z M48.896,76.457l-4.875-5.412l4.875-5.241V76.457z
			 M36.305,74.896h-7.808v-2.644h6.971v-2.711h-6.971v-2.416h7.961l3.474,3.872L36.305,74.896z M61.55,68.755
			c0,3.692-2.754,4.453-5.53,4.453h-3.962v4.457h-6.172l-3.91-4.397l-4.063,4.397H25.334V64.377h12.772l3.907,4.356l4.039-4.356
			h10.147C58.719,64.377,61.55,65.075,61.55,68.755z"/>
	</g>
</g>
</svg>
