<?xml version="1.0" encoding="utf-8"?>
<!-- Generator: Adobe Illustrator 16.0.3, SVG Export Plug-In . SVG Version: 6.00 Build 0)  -->
<!DOCTYPE svg PUBLIC "-//W3C//DTD SVG 1.1//EN" "http://www.w3.org/Graphics/SVG/1.1/DTD/svg11.dtd">
<svg version="1.1" id="acceptance" xmlns="http://www.w3.org/2000/svg" xmlns:xlink="http://www.w3.org/1999/xlink" x="0px" y="0px"
	 width="177.113px" height="113.387px" viewBox="0 0 177.113 113.387" enable-background="new 0 0 177.113 113.387"
	 xml:space="preserve">
<g id="applepay">
	<g>
		<path fill="#FFFFFF" d="M161.251,2.362l1.799,0.005c0.494,0.004,0.987,0.009,1.483,0.022c0.899,0.023,1.959,0.074,2.976,0.256
			c0.943,0.169,1.742,0.432,2.515,0.824c0.772,0.392,1.479,0.904,2.095,1.522c0.618,0.618,1.13,1.323,1.527,2.101
			c0.392,0.771,0.652,1.566,0.82,2.513c0.183,1.01,0.233,2.071,0.257,2.976c0.014,0.491,0.021,0.982,0.022,1.483
			c0.005,0.597,0.005,1.199,0.005,1.799v81.663c0,0.6,0,1.199-0.005,1.806c-0.002,0.494-0.009,0.985-0.022,1.477
			c-0.023,0.904-0.074,1.965-0.257,2.98c-0.168,0.938-0.429,1.736-0.82,2.507c-0.397,0.777-0.909,1.483-1.525,2.1
			c-0.618,0.618-1.324,1.13-2.099,1.524c-0.771,0.393-1.569,0.655-2.508,0.823c-1.036,0.185-2.136,0.233-2.969,0.257
			c-0.498,0.011-0.994,0.018-1.497,0.021c-0.597,0.005-1.199,0.005-1.797,0.005H15.861c-0.007,0-0.014,0-0.021,0
			c-0.593,0-1.187,0-1.786-0.005c-0.496-0.003-0.992-0.01-1.477-0.021c-0.845-0.023-1.946-0.072-2.976-0.257
			c-0.944-0.168-1.741-0.431-2.515-0.825c-0.774-0.393-1.479-0.904-2.097-1.525c-0.616-0.613-1.128-1.319-1.522-2.097
			c-0.392-0.771-0.654-1.568-0.823-2.514c-0.184-1.016-0.233-2.072-0.257-2.974c-0.013-0.494-0.019-0.987-0.022-1.479l-0.002-1.442
			v-0.361V15.863v-0.362l0.002-1.439c0.003-0.493,0.009-0.987,0.022-1.48c0.024-0.902,0.074-1.961,0.258-2.98
			c0.168-0.941,0.43-1.739,0.824-2.51c0.393-0.775,0.905-1.48,1.522-2.099C5.607,4.378,6.313,3.864,7.088,3.47
			c0.771-0.393,1.57-0.655,2.512-0.824c1.019-0.182,2.076-0.232,2.978-0.256c0.494-0.014,0.987-0.019,1.479-0.022l1.803-0.005
			H161.251"/>
		<path d="M161.251,2.362l1.799,0.005c0.494,0.004,0.987,0.009,1.483,0.022c0.899,0.023,1.959,0.074,2.976,0.256
			c0.943,0.169,1.742,0.432,2.515,0.824c0.772,0.392,1.479,0.904,2.095,1.522c0.618,0.618,1.13,1.323,1.527,2.101
			c0.392,0.771,0.652,1.566,0.82,2.513c0.183,1.01,0.233,2.071,0.257,2.976c0.014,0.491,0.021,0.982,0.022,1.483
			c0.005,0.597,0.005,1.199,0.005,1.799v81.663c0,0.6,0,1.199-0.005,1.806c-0.002,0.494-0.009,0.985-0.022,1.477
			c-0.023,0.904-0.074,1.965-0.257,2.98c-0.168,0.938-0.429,1.736-0.82,2.507c-0.397,0.777-0.909,1.483-1.525,2.1
			c-0.618,0.618-1.324,1.13-2.099,1.524c-0.771,0.393-1.569,0.655-2.508,0.823c-1.036,0.185-2.136,0.233-2.969,0.257
			c-0.498,0.011-0.994,0.018-1.497,0.021c-0.597,0.005-1.199,0.005-1.797,0.005H15.861c-0.007,0-0.014,0-0.021,0
			c-0.593,0-1.187,0-1.786-0.005c-0.496-0.003-0.992-0.01-1.477-0.021c-0.845-0.023-1.946-0.072-2.976-0.257
			c-0.944-0.168-1.741-0.431-2.515-0.825c-0.774-0.393-1.479-0.904-2.097-1.525c-0.616-0.613-1.128-1.319-1.522-2.097
			c-0.392-0.771-0.654-1.568-0.823-2.514c-0.184-1.016-0.233-2.072-0.257-2.974c-0.013-0.494-0.019-0.987-0.022-1.479l-0.002-1.442
			v-0.361V15.863v-0.362l0.002-1.439c0.003-0.493,0.009-0.987,0.022-1.48c0.024-0.902,0.074-1.961,0.258-2.98
			c0.168-0.941,0.43-1.739,0.824-2.51c0.393-0.775,0.905-1.48,1.522-2.099C5.607,4.378,6.313,3.864,7.088,3.47
			c0.771-0.393,1.57-0.655,2.512-0.824c1.019-0.182,2.076-0.232,2.978-0.256c0.494-0.014,0.987-0.019,1.479-0.022l1.803-0.005
			H161.251 M161.251,0H15.861c-0.605,0-1.212,0-1.816,0.005c-0.511,0.004-1.021,0.009-1.53,0.022
			c-1.112,0.03-2.233,0.098-3.331,0.293C8.068,0.521,7.03,0.849,6.017,1.365C5.022,1.871,4.11,2.533,3.32,3.321
			C2.53,4.113,1.869,5.024,1.362,6.021C0.847,7.031,0.519,8.069,0.319,9.186c-0.198,1.098-0.264,2.219-0.294,3.331
			c-0.014,0.51-0.02,1.02-0.023,1.529C-0.001,14.652,0,15.257,0,15.863v81.663c0,0.606-0.001,1.211,0.002,1.817
			c0.003,0.51,0.009,1.02,0.023,1.529c0.03,1.109,0.096,2.23,0.294,3.328c0.2,1.117,0.527,2.155,1.043,3.168
			c0.506,0.996,1.168,1.907,1.958,2.696c0.79,0.791,1.702,1.453,2.697,1.958c1.013,0.517,2.051,0.845,3.166,1.045
			c1.098,0.196,2.219,0.264,3.331,0.293c0.51,0.012,1.02,0.019,1.53,0.021c0.604,0.004,1.211,0.004,1.816,0.004h145.391
			c0.604,0,1.211,0,1.815-0.004c0.51-0.003,1.02-0.01,1.531-0.021c1.11-0.029,2.231-0.097,3.331-0.293
			c1.114-0.2,2.152-0.528,3.165-1.045c0.996-0.505,1.905-1.167,2.696-1.958c0.789-0.789,1.451-1.7,1.959-2.696
			c0.517-1.013,0.844-2.051,1.042-3.168c0.198-1.098,0.264-2.219,0.293-3.328c0.015-0.51,0.021-1.02,0.023-1.529
			c0.005-0.606,0.005-1.211,0.005-1.817V15.863c0-0.606,0-1.211-0.005-1.817c-0.002-0.51-0.009-1.02-0.023-1.529
			c-0.029-1.112-0.095-2.233-0.293-3.331c-0.198-1.116-0.525-2.154-1.042-3.165c-0.508-0.996-1.17-1.907-1.959-2.699
			c-0.791-0.788-1.7-1.45-2.696-1.956c-1.013-0.517-2.051-0.844-3.165-1.045c-1.1-0.195-2.221-0.263-3.331-0.293
			c-0.512-0.014-1.021-0.019-1.531-0.022C162.462,0,161.856,0,161.251,0L161.251,0z"/>
		<g>
			<g>
				<path d="M59.593,51.438c-0.052-5.935,4.843-8.791,5.069-8.934c-2.762-4.017-7.043-4.572-8.569-4.637
					c-3.649-0.359-7.128,2.149-8.975,2.149c-1.852,0-4.7-2.09-7.733-2.029c-3.978,0.06-7.646,2.313-9.695,5.873
					c-4.122,7.188-1.046,17.803,2.978,23.616c1.97,2.847,4.313,6.043,7.401,5.928c2.972-0.115,4.086-1.924,7.676-1.924
					c3.583-0.004,4.596,1.92,7.728,1.864c3.193-0.069,5.221-2.906,7.178-5.767c2.251-3.294,3.184-6.496,3.232-6.657
					C65.819,60.884,59.665,58.535,59.593,51.438z M52.807,34.02c1.634-1.981,2.737-4.733,2.438-7.48
					c-2.361,0.095-5.219,1.58-6.899,3.552c-1.522,1.754-2.84,4.559-2.477,7.25C48.494,37.544,51.171,36.003,52.807,34.02z
					 M97.614,34.02c-1.19-1.148-2.727-2.041-4.563-2.655c-1.821-0.606-4.008-0.913-6.5-0.913c-1.721,0-3.33,0.083-4.779,0.249
					c-1.431,0.164-2.761,0.349-3.955,0.556l-0.384,0.064v41.733h3.811V55.472c1.284,0.222,2.752,0.337,4.371,0.337
					c2.157,0,4.177-0.276,6.006-0.818c1.847-0.547,3.466-1.392,4.813-2.513c1.352-1.121,2.431-2.527,3.215-4.18
					c0.78-1.651,1.177-3.598,1.177-5.782c0-1.812-0.286-3.438-0.844-4.838C99.417,36.275,98.624,35.049,97.614,34.02z
					 M94.112,49.957c-1.956,1.64-4.723,2.47-8.237,2.47c-0.965,0-1.88-0.041-2.718-0.119c-0.694-0.069-1.335-0.176-1.914-0.323
					V34.241c0.503-0.093,1.126-0.18,1.858-0.259c0.927-0.102,2.046-0.152,3.326-0.152c1.586,0,3.052,0.191,4.353,0.567
					c1.289,0.369,2.414,0.923,3.346,1.639c0.914,0.708,1.633,1.628,2.131,2.74c0.503,1.123,0.756,2.463,0.756,3.983
					C97.014,45.918,96.036,48.337,94.112,49.957z M123.597,69.142c-0.042-1.181-0.06-2.366-0.06-3.548V53.996
					c0-1.375-0.139-2.777-0.411-4.171c-0.277-1.426-0.807-2.731-1.578-3.885c-0.775-1.162-1.859-2.122-3.216-2.851
					c-1.356-0.729-3.119-1.099-5.241-1.099c-1.55,0-3.063,0.203-4.494,0.601c-1.439,0.401-2.851,1.074-4.203,1.997l-0.309,0.217
					l1.287,3.011l0.466-0.314c0.982-0.666,2.09-1.192,3.299-1.568c1.204-0.371,2.431-0.561,3.654-0.561
					c1.587,0,2.855,0.286,3.76,0.854c0.918,0.574,1.61,1.287,2.058,2.118c0.466,0.855,0.771,1.767,0.904,2.715
					c0.143,0.984,0.212,1.866,0.212,2.622v0.337c-5.647-0.027-10.058,0.914-12.987,2.801c-3.072,1.979-4.632,4.798-4.632,8.373
					c0,1.029,0.185,2.067,0.549,3.091c0.369,1.038,0.927,1.966,1.661,2.759c0.738,0.804,1.688,1.458,2.828,1.947
					c1.135,0.494,2.468,0.743,3.958,0.743c1.181,0,2.288-0.152,3.294-0.448c0.997-0.3,1.9-0.696,2.689-1.189
					c0.784-0.484,1.481-1.034,2.076-1.629c0.268-0.263,0.498-0.53,0.724-0.798h0.148l0.351,3.386h3.672l-0.102-0.544
					C123.758,71.43,123.638,70.3,123.597,69.142z M119.726,63.199c0,0.406-0.097,0.965-0.282,1.634
					c-0.235,0.696-0.577,1.384-1.024,2.039c-0.443,0.65-1.001,1.245-1.661,1.767c-0.655,0.521-1.439,0.937-2.33,1.246
					c-0.891,0.309-1.919,0.466-3.054,0.466c-0.688,0-1.361-0.115-2.007-0.342c-0.637-0.226-1.204-0.563-1.688-1.01
					c-0.484-0.443-0.881-1.02-1.186-1.717c-0.3-0.691-0.452-1.55-0.452-2.546c0-1.634,0.438-2.958,1.301-3.927
					c0.891-1.006,2.035-1.78,3.396-2.302c1.389-0.535,2.934-0.886,4.59-1.047c1.347-0.127,2.667-0.192,3.917-0.192
					c0.162,0,0.323,0,0.48,0.003V63.199z M149.455,42.665l-7.109,19.33c-0.443,1.168-0.858,2.344-1.236,3.488
					c-0.185,0.572-0.36,1.111-0.531,1.629h-0.134c-0.171-0.54-0.351-1.099-0.544-1.689c-0.369-1.135-0.766-2.246-1.172-3.308
					l-7.603-19.45h-4.064l10.874,27.962c0.286,0.674,0.328,0.983,0.328,1.107c0,0.037-0.014,0.268-0.332,1.116
					c-0.678,1.675-1.458,3.119-2.307,4.291c-0.872,1.186-1.67,2.149-2.38,2.86c-0.826,0.825-1.679,1.504-2.546,2.016
					c-0.886,0.521-1.693,0.946-2.408,1.265l-0.411,0.185l1.324,3.22l0.42-0.156c0.346-0.13,0.992-0.425,1.975-0.904
					c0.992-0.489,2.09-1.265,3.262-2.312c1.006-0.877,1.929-1.919,2.745-3.091c0.803-1.153,1.605-2.506,2.395-4.01
					c0.779-1.499,1.559-3.206,2.32-5.074c0.761-1.878,1.578-3.977,2.422-6.233l8.784-22.241H149.455z"/>
			</g>
		</g>
	</g>
</g>
</svg>
