<?xml version="1.0" encoding="utf-8"?>
<!-- Generator: Adobe Illustrator 16.0.3, SVG Export Plug-In . SVG Version: 6.00 Build 0)  -->
<!DOCTYPE svg PUBLIC "-//W3C//DTD SVG 1.1//EN" "http://www.w3.org/Graphics/SVG/1.1/DTD/svg11.dtd">
<svg version="1.1" id="acceptance" xmlns="http://www.w3.org/2000/svg" xmlns:xlink="http://www.w3.org/1999/xlink" x="0px" y="0px"
	 width="179.242px" height="113.387px" viewBox="0 0 179.242 113.387" enable-background="new 0 0 179.242 113.387"
	 xml:space="preserve">
<g id="cirrus">
	<g>
		<rect fill="#11306E" width="179.242" height="113.387"/>
		<g>
			<g>
				<g>
					<g>
						<g>
							<path fill="#FFFFFF" d="M165.08,84.041c0-0.875,0.709-1.584,1.584-1.584c0.876,0,1.584,0.709,1.584,1.584
								s-0.708,1.586-1.584,1.586C165.79,85.627,165.08,84.916,165.08,84.041z M166.664,85.245c0.666,0,1.205-0.539,1.205-1.204
								c0-0.666-0.539-1.204-1.205-1.204c-0.664,0-1.203,0.538-1.203,1.204C165.461,84.706,166,85.245,166.664,85.245z
								 M166.45,84.736h-0.324v-1.392h0.587c0.123,0,0.247,0.001,0.355,0.069c0.113,0.079,0.177,0.211,0.177,0.349
								c0,0.159-0.091,0.306-0.24,0.36l0.254,0.613h-0.36l-0.211-0.552h-0.238V84.736z M166.45,83.947h0.179
								c0.067,0,0.14,0.006,0.199-0.025c0.053-0.035,0.081-0.101,0.081-0.162c0-0.052-0.033-0.114-0.078-0.142
								c-0.058-0.033-0.148-0.025-0.208-0.025h-0.173V83.947z"/>
						</g>
					</g>
				</g>
			</g>
			<g>
				<g>
					<circle fill="#0075BF" cx="56.688" cy="56.693" r="49.064"/>
					<g>
						<path fill="#0096DC" d="M122.556,7.63c-12.676,0-24.228,4.811-32.936,12.699c-1.772,1.606-3.428,3.346-4.953,5.192h9.911
							c1.357,1.649,2.604,3.382,3.741,5.196H80.926c-1.042,1.67-1.988,3.402-2.826,5.197h23.044
							c0.787,1.683,1.482,3.415,2.078,5.192H76.021c-0.567,1.693-1.042,3.426-1.424,5.196h30.05
							c0.722,3.348,1.105,6.825,1.105,10.39c0,5.448-0.89,10.689-2.529,15.584H76.021c0.597,1.781,1.292,3.514,2.078,5.196h23.046
							c-0.84,1.794-1.785,3.526-2.828,5.195h-17.39c1.136,1.814,2.385,3.548,3.741,5.192h9.909c-1.522,1.853-3.18,3.59-4.954,5.197
							c8.707,7.891,20.258,12.697,32.934,12.697c27.097,0,49.063-21.965,49.063-49.063C171.62,29.597,149.653,7.63,122.556,7.63z"/>
					</g>
				</g>
				<g>
					<g>
						<g>
							<g>
								<path fill="#11306E" d="M53.858,45.46c-0.438,1.925-0.667,3.015-1.261,5.357c-3.689-1.564-8.636-2.379-12.432-0.011
									c-3.581,2.281-4.791,5.837-4.53,9.777c0.263,1.896,1.686,3.748,3.689,4.551c3.474,1.282,6.788,0.812,10.478-1.074
									c-0.525,2.373-0.92,4.235-1.378,5.932c-4.426,1.234-8.627,1.642-13.051,0.171c-3.953-1.376-7.167-4.935-7.428-8.775
									C27.049,55.222,30,48.912,36.004,46.016C41.588,43.503,47.958,43.939,53.858,45.46z"/>
							</g>
							<path fill="#11306E" d="M116.377,67.38c-1.167,1.168-3.149,3.724-8.535,3.724c-4.906,0-8.35-3.616-6.606-11.739
								c0-0.003,2.029-9.564,2.029-9.564h7.486c0,0-2.033,9.574-2.029,9.564c-0.691,3.252-0.528,5.729,2.776,5.729
								c3.895,0,5.06-2.355,5.795-5.729c-0.005,0.005,2.033-9.564,2.033-9.564h7.81l-3.36,15.374
								c-0.382,1.802-0.747,3.712-0.958,5.596h-7.029C115.79,70.77,116.233,68.21,116.377,67.38z"/>
							<path fill="#11306E" d="M129.622,56.433c0,2.658,1.746,4.477,5.714,5.835c3.063,1.069,3.544,1.383,3.544,2.315
								c0,1.327-1.368,1.889-4.32,1.889c-2.248,0-4.335-0.225-6.751-0.806c0,0-0.951,4.35-1.048,4.846
								c2.102,0.374,5.738,0.592,7.852,0.592c7.927,0,11.603-2.215,11.603-6.996c0-2.86-1.542-4.543-5.303-5.835
								c-3.17-1.042-3.521-1.282-3.521-2.275c0-1.113,1.252-1.704,3.689-1.704c1.466,0,3.519,0.123,5.427,0.324l1.053-4.867
								c-1.948-0.23-4.915-0.418-6.627-0.418C132.521,49.332,129.596,52.573,129.622,56.433z"/>
							<polygon fill="#11306E" points="56.712,49.8 64.546,49.8 60.083,70.771 52.249,70.771 							"/>
							<path fill="#11306E" d="M101.459,49.712c-5.524-0.729-7.1,1.982-8.583,3.333c0.177-1.092,0.503-2.156,0.438-3.245h-7.196
								c-0.989,6.494-2.746,13.066-4.12,19.56l-0.361,1.408h8.146c0.931-4.258,2.01-10.687,3.256-12.631
								c1.244-1.944,3.315-3.497,6.034-2.564L101.459,49.712z"/>
							<path fill="#11306E" d="M84.379,49.712c-5.522-0.729-7.098,1.982-8.582,3.333c0.177-1.092,0.503-2.156,0.438-3.245h-7.195
								c-0.99,6.494-2.747,13.066-4.121,19.56l-0.361,1.408h8.145c0.932-4.258,2.011-10.687,3.257-12.631
								c1.245-1.944,3.315-3.497,6.035-2.564L84.379,49.712z"/>
						</g>
					</g>
					<g>
						<path fill="#FFFFFF" d="M148.617,67.648c0-0.876,0.709-1.584,1.584-1.584c0.875,0,1.585,0.708,1.585,1.584
							c0,0.875-0.71,1.585-1.585,1.585C149.326,69.233,148.617,68.523,148.617,67.648z M150.201,68.854
							c0.664,0,1.205-0.539,1.205-1.205c0-0.665-0.541-1.204-1.205-1.204c-0.665,0-1.205,0.539-1.205,1.204
							C148.996,68.314,149.537,68.854,150.201,68.854z M149.987,68.344h-0.325v-1.393h0.588c0.121,0,0.248,0.002,0.354,0.073
							c0.115,0.075,0.178,0.209,0.178,0.347c0,0.156-0.091,0.303-0.241,0.359l0.256,0.613h-0.359l-0.212-0.55h-0.239V68.344z
							 M149.987,67.555h0.18c0.066,0,0.14,0.006,0.197-0.027c0.054-0.033,0.081-0.098,0.081-0.159c0-0.053-0.033-0.113-0.077-0.143
							c-0.057-0.033-0.148-0.025-0.209-0.025h-0.172V67.555z"/>
						<path fill="#FFFFFF" d="M55.391,43.926c-0.438,1.927-0.668,3.017-1.261,5.359c-3.69-1.564-8.636-2.381-12.432-0.012
							c-3.58,2.28-4.79,5.838-4.53,9.776c0.265,1.896,1.687,3.748,3.69,4.552c3.473,1.281,6.788,0.812,10.479-1.075
							c-0.526,2.375-0.922,4.236-1.38,5.934c-4.424,1.232-8.626,1.64-13.049,0.17c-3.953-1.375-7.167-4.935-7.429-8.774
							c-0.896-6.167,2.055-12.477,8.06-15.374C43.121,41.97,49.49,42.405,55.391,43.926z"/>
						<path fill="#FFFFFF" d="M117.911,65.848c-1.167,1.166-3.15,3.723-8.536,3.723c-4.906,0-8.022-3.615-6.279-11.739
							c0-0.002,2.031-9.563,2.031-9.563h7.486c0,0-2.035,9.572-2.032,9.563c-0.691,3.252-0.527,5.729,2.779,5.729
							c3.891,0,5.059-2.354,5.793-5.729c-0.004,0.006,2.034-9.563,2.034-9.563h7.484l-3.361,15.374
							c-0.382,1.8-0.746,3.71-0.957,5.595h-7.029C117.324,69.236,117.768,66.676,117.911,65.848z"/>
						<path fill="#FFFFFF" d="M131.155,54.9c0,2.657,1.746,4.475,5.715,5.833c3.064,1.069,3.544,1.385,3.544,2.315
							c0,1.327-1.369,1.891-4.32,1.891c-2.248,0-4.335-0.227-6.752-0.808c0,0-0.95,4.35-1.048,4.848
							c2.102,0.374,5.738,0.591,7.852,0.591c7.926,0,11.603-2.215,11.603-6.997c0-2.86-1.541-4.541-5.303-5.833
							c-3.171-1.042-3.522-1.282-3.522-2.277c0-1.111,1.254-1.702,3.69-1.702c1.464,0,3.519,0.122,5.428,0.322l1.051-4.865
							c-1.947-0.232-4.914-0.418-6.625-0.418C134.054,47.8,131.128,51.039,131.155,54.9z"/>
						<polygon fill="#FFFFFF" points="58.571,48.268 66.081,48.268 61.616,69.238 54.108,69.238 						"/>
						<path fill="#FFFFFF" d="M102.992,48.18c-5.523-0.729-7.099,1.982-8.583,3.332c0.178-1.091,0.503-2.157,0.438-3.244h-6.868
							c-0.989,6.492-2.747,13.064-4.121,19.558l-0.36,1.41h7.818c0.932-4.259,2.012-10.687,3.258-12.632
							c1.245-1.945,3.315-3.496,6.033-2.563L102.992,48.18z"/>
						<path fill="#FFFFFF" d="M85.914,48.18c-5.524-0.729-7.1,1.982-8.584,3.332c0.178-1.091,0.504-2.157,0.438-3.244h-6.869
							c-0.988,6.492-2.745,13.064-4.121,19.558l-0.359,1.41h7.818c0.932-4.259,2.011-10.687,3.258-12.632
							c1.244-1.945,3.314-3.496,6.033-2.563L85.914,48.18z"/>
					</g>
				</g>
			</g>
		</g>
	</g>
</g>
</svg>
