<?xml version="1.0" encoding="utf-8"?>
<!-- Generator: Adobe Illustrator 16.0.3, SVG Export Plug-In . SVG Version: 6.00 Build 0)  -->
<!DOCTYPE svg PUBLIC "-//W3C//DTD SVG 1.1//EN" "http://www.w3.org/Graphics/SVG/1.1/DTD/svg11.dtd">
<svg version="1.1" id="acceptance" xmlns="http://www.w3.org/2000/svg" xmlns:xlink="http://www.w3.org/1999/xlink" x="0px" y="0px"
	 width="154.697px" height="113.387px" viewBox="0 0 154.697 113.387" enable-background="new 0 0 154.697 113.387"
	 xml:space="preserve">
<g id="dinersclub">
	<g>
		<g>
			<path fill="#FFFFFF" d="M153.818,102.375c0,5.597-4.642,10.133-10.368,10.133H11.247c-5.726,0-10.367-4.536-10.367-10.133V11.013
				c0-5.597,4.642-10.133,10.367-10.133H143.45c5.727,0,10.368,4.536,10.368,10.133V102.375z"/>
			<path fill="#004A97" d="M1.757,11.013v91.362c0.01,5.095,4.232,9.252,9.489,9.253h132.203c5.256-0.001,9.48-4.158,9.489-9.253
				V11.013c-0.009-5.096-4.233-9.254-9.489-9.254H11.247C5.989,1.759,1.768,5.917,1.757,11.013 M11.247,113.387
				C5.05,113.376,0.002,108.473,0,102.375V11.013C0.002,4.915,5.05,0.011,11.247,0h132.203c6.197,0.011,11.244,4.915,11.248,11.013
				v91.362c-0.003,6.098-5.051,11.001-11.248,11.012H11.247z"/>
		</g>
		<g>
			<path fill="#1D1D1B" d="M17.66,81.483c0,2.145,1.533,2.395,2.896,2.395c6.015,0,7.988-4.537,7.988-8.685
				c0-5.206-3.34-8.963-8.712-8.963c-1.144,0-1.67,0.081-2.173,0.111V81.483z M14.931,68.428c0-2.504-1.308-2.34-2.559-2.366v-0.723
				c1.085,0.053,2.197,0.053,3.285,0.053c1.169,0,2.755-0.053,4.817-0.053c7.208,0,11.135,4.813,11.135,9.743
				c0,2.758-1.615,9.688-11.471,9.688c-1.418,0-2.729-0.056-4.036-0.056c-1.252,0-2.479,0.026-3.73,0.056v-0.725
				c1.668-0.168,2.478-0.223,2.559-2.116V68.428z"/>
			<path fill="#1D1D1B" d="M35.563,67.761c-0.726,0-1.364-0.668-1.364-1.392c0-0.697,0.669-1.339,1.364-1.339
				c0.723,0,1.364,0.586,1.364,1.339C36.927,67.121,36.313,67.761,35.563,67.761 M32.584,84.046h0.528c0.779,0,1.336,0,1.336-0.921
				v-7.543c0-1.224-0.417-1.393-1.448-1.947v-0.445c1.308-0.393,2.869-0.918,2.979-1.002c0.196-0.111,0.361-0.142,0.502-0.142
				c0.136,0,0.194,0.168,0.194,0.393v10.687c0,0.921,0.614,0.921,1.394,0.921h0.471v0.725c-0.947,0-1.923-0.056-2.921-0.056
				c-1.002,0-2.005,0.026-3.035,0.056V84.046z"/>
			<path fill="#1D1D1B" d="M41.186,75.749c0-1.028-0.307-1.306-1.613-1.836v-0.528c1.195-0.39,2.335-0.753,3.673-1.339
				c0.084,0,0.165,0.056,0.165,0.278v1.811c1.59-1.14,2.954-2.089,4.822-2.089c2.363,0,3.198,1.727,3.198,3.898v7.181
				c0,0.921,0.614,0.921,1.393,0.921h0.502v0.725c-0.978,0-1.951-0.056-2.952-0.056c-1.003,0-2.006,0.026-3.008,0.056v-0.725h0.502
				c0.78,0,1.334,0,1.334-0.921v-7.207c0-1.589-0.969-2.367-2.558-2.367c-0.892,0-2.312,0.723-3.233,1.337v8.237
				c0,0.921,0.616,0.921,1.396,0.921h0.5v0.725c-0.974,0-1.948-0.056-2.953-0.056c-1,0-2.003,0.026-3.004,0.056v-0.725h0.502
				c0.779,0,1.335,0,1.335-0.921V75.749z"/>
			<path fill="#1D1D1B" d="M60.371,76.195c0.694,0,0.776-0.362,0.776-0.697c0-1.417-0.862-2.56-2.422-2.56
				c-1.696,0-2.866,1.251-3.2,3.257H60.371z M55.441,77.088c-0.057,0.25-0.057,0.667,0,1.614c0.164,2.644,1.866,4.814,4.09,4.814
				c1.533,0,2.731-0.836,3.76-1.863l0.388,0.39c-1.281,1.697-2.867,3.146-5.148,3.146c-4.427,0-5.318-4.29-5.318-6.07
				c0-5.457,3.674-7.073,5.621-7.073c2.257,0,4.681,1.42,4.707,4.371c0,0.17,0,0.335-0.026,0.503l-0.252,0.168H55.441z"/>
			<path fill="#1D1D1B" d="M64.183,84.046h0.752c0.776,0,1.333,0,1.333-0.921v-7.821c0-0.86-1.029-1.03-1.447-1.253v-0.416
				c2.032-0.864,3.146-1.589,3.401-1.589c0.163,0,0.247,0.084,0.247,0.364v2.505h0.059c0.694-1.085,1.865-2.869,3.563-2.869
				c0.695,0,1.585,0.473,1.585,1.476c0,0.752-0.526,1.423-1.305,1.423c-0.866,0-0.866-0.671-1.841-0.671
				c-0.473,0-2.032,0.642-2.032,2.313v6.538c0,0.921,0.557,0.921,1.336,0.921h1.558v0.725c-1.531-0.029-2.697-0.056-3.895-0.056
				c-1.142,0-2.312,0.026-3.313,0.056V84.046z"/>
			<path fill="#1D1D1B" d="M74.899,80.899c0.363,1.837,1.475,3.398,3.51,3.398c1.64,0,2.252-1.004,2.252-1.977
				c0-3.287-6.067-2.229-6.067-6.71c0-1.561,1.253-3.564,4.315-3.564c0.89,0,2.086,0.252,3.171,0.81l0.195,2.837h-0.64
				c-0.278-1.753-1.251-2.755-3.035-2.755c-1.113,0-2.169,0.64-2.169,1.837c0,3.259,6.457,2.255,6.457,6.626
				c0,1.836-1.474,3.788-4.788,3.788c-1.112,0-2.423-0.392-3.395-0.948l-0.308-3.201L74.899,80.899z"/>
			<path fill="#1D1D1B" d="M108.027,70.376h-0.694c-0.53-3.255-2.841-4.564-5.956-4.564c-3.206,0-7.853,2.142-7.853,8.823
				c0,5.626,4.01,9.663,8.296,9.663c2.754,0,5.042-1.894,5.597-4.818l0.64,0.166l-0.64,4.065c-1.169,0.725-4.316,1.479-6.155,1.479
				c-6.512,0-10.631-4.205-10.631-10.469c0-5.708,5.094-9.802,10.551-9.802c2.253,0,4.425,0.726,6.568,1.478L108.027,70.376z"/>
			<path fill="#1D1D1B" d="M109.032,84.046h0.527c0.782,0,1.337,0,1.337-0.921V67.623c0-1.812-0.417-1.867-1.476-2.174v-0.445
				c1.113-0.361,2.284-0.861,2.87-1.198c0.302-0.164,0.527-0.307,0.609-0.307c0.17,0,0.225,0.169,0.225,0.393v19.233
				c0,0.921,0.613,0.921,1.392,0.921h0.471v0.725c-0.944,0-1.918-0.056-2.921-0.056c-1.001,0-2.003,0.026-3.034,0.056V84.046z"/>
			<path fill="#1D1D1B" d="M126.906,83.237c0,0.503,0.305,0.529,0.777,0.529c0.336,0,0.751-0.026,1.116-0.026v0.587
				c-1.198,0.109-3.481,0.694-4.011,0.862l-0.139-0.086v-2.255c-1.669,1.364-2.951,2.341-4.931,2.341
				c-1.502,0-3.061-0.977-3.061-3.313v-7.129c0-0.726-0.11-1.421-1.667-1.559v-0.53c1.003-0.027,3.225-0.193,3.588-0.193
				c0.309,0,0.309,0.193,0.309,0.808v7.182c0,0.836,0,3.228,2.421,3.228c0.945,0,2.198-0.723,3.367-1.695v-7.49
				c0-0.557-1.335-0.862-2.336-1.14v-0.501c2.503-0.17,4.064-0.391,4.342-0.391c0.224,0,0.224,0.193,0.224,0.501V83.237z"/>
			<path fill="#1D1D1B" d="M132.445,81.623c0,1.058,1.003,2.841,2.868,2.841c2.979,0,4.23-2.924,4.23-5.402
				c0-3.006-2.28-5.511-4.451-5.511c-1.034,0-1.896,0.669-2.647,1.31V81.623z M132.445,74.051c1.113-0.944,2.617-2.005,4.148-2.005
				c3.229,0,5.178,2.814,5.178,5.849c0,3.646-2.673,7.295-6.656,7.295c-2.058,0-3.144-0.671-3.869-0.977l-0.833,0.641l-0.583-0.306
				c0.249-1.643,0.389-3.257,0.389-4.956V67.623c0-1.812-0.419-1.867-1.477-2.174v-0.445c1.115-0.361,2.283-0.861,2.867-1.198
				c0.308-0.164,0.529-0.307,0.614-0.307c0.166,0,0.222,0.17,0.222,0.393V74.051z"/>
			<path fill="#1D1D1B" d="M12.341,100.957h0.213c0.544,0,1.121-0.074,1.121-0.863v-7.936c0-0.789-0.576-0.864-1.121-0.864h-0.213
				v-0.455c0.59,0,1.5,0.061,2.244,0.061c0.757,0,1.665-0.061,2.377-0.061v0.455h-0.214c-0.542,0-1.12,0.075-1.12,0.864v7.936
				c0,0.789,0.577,0.863,1.12,0.863h0.214v0.456c-0.727,0-1.638-0.06-2.393-0.06c-0.744,0-1.638,0.06-2.228,0.06V100.957z"/>
			<path fill="#1D1D1B" d="M16.896,101.348l0-0.322h-0.146c-0.542,0-1.186-0.095-1.189-0.932v-7.936
				c0.003-0.838,0.647-0.931,1.189-0.931h0.146v-0.323c-0.699,0-1.577,0.061-2.312,0.061c-0.72,0-1.591-0.057-2.177-0.061v0.323
				h0.146c0.54,0,1.185,0.093,1.185,0.931v7.936c0,0.837-0.645,0.932-1.185,0.932h-0.146v0.322c0.586-0.005,1.442-0.061,2.161-0.061
				C15.306,101.287,16.182,101.344,16.896,101.348 M16.962,101.478c-0.733,0-1.64-0.061-2.394-0.061
				c-0.741,0-1.632,0.061-2.227,0.061h-0.066v-0.064v-0.455v-0.066h0.066h0.212c0.55-0.013,1.049-0.058,1.054-0.798v-7.936
				c-0.005-0.741-0.504-0.789-1.054-0.799h-0.278v-0.066v-0.521h0.066c0.595,0,1.503,0.06,2.244,0.06c0.753,0,1.661-0.06,2.377-0.06
				h0.067v0.067v0.52h-0.067h-0.211c-0.551,0.01-1.054,0.058-1.057,0.799v7.936c0.003,0.74,0.506,0.785,1.057,0.798h0.278v0.066
				v0.52H16.962z"/>
			<path fill="#1D1D1B" d="M27.369,98.427l0.03-0.03v-5.679c0-1.242-0.865-1.425-1.319-1.425h-0.333v-0.454
				c0.713,0,1.41,0.061,2.121,0.061c0.621,0,1.245-0.061,1.863-0.061v0.454h-0.225c-0.639,0-1.351,0.121-1.351,1.924v6.893
				c0,0.53,0.015,1.061,0.089,1.53h-0.576l-7.8-8.696v6.243c0,1.318,0.256,1.771,1.422,1.771h0.258v0.456
				c-0.651,0-1.302-0.06-1.954-0.06c-0.68,0-1.378,0.06-2.06,0.06v-0.456h0.212c1.045,0,1.363-0.712,1.363-1.92v-6.383
				c0-0.847-0.699-1.361-1.377-1.361h-0.198v-0.454c0.575,0,1.166,0.061,1.74,0.061c0.456,0,0.896-0.061,1.35-0.061L27.369,98.427z"
				/>
			<path fill="#1D1D1B" d="M27.333,98.396v-0.005l-0.012-0.01L27.333,98.396z M27.369,98.427l0.047-0.043L27.369,98.427z
				 M27.669,101.571h0.501c-0.068-0.455-0.08-0.958-0.08-1.462v-6.893c0-1.817,0.762-1.989,1.415-1.991h0.159v-0.321
				c-0.597,0.004-1.195,0.059-1.797,0.059c-0.694,0-1.368-0.055-2.053-0.059l-0.001,0.321h0.268
				c0.465,0.002,1.384,0.209,1.384,1.492l-0.021,5.727l-0.029,0.029l-0.052,0.049l-6.737-7.618c-0.45,0-0.888,0.059-1.35,0.059
				c-0.555,0-1.124-0.055-1.673-0.059l-0.003,0.321h0.135c0.711,0.002,1.442,0.544,1.442,1.431v6.38
				c0,1.213-0.338,1.986-1.427,1.991l-0.146-0.005v0.325c0.656-0.005,1.332-0.061,1.994-0.061c0.632,0,1.263,0.056,1.888,0.061
				v-0.32h-0.191c-1.192-0.005-1.487-0.524-1.488-1.841v-6.413L27.669,101.571z M28.245,101.704l-0.624-0.021l-7.688-8.568v6.072
				c0.019,1.316,0.219,1.69,1.359,1.705h0.325v0.065v0.521H21.55c-0.656,0-1.308-0.061-1.954-0.061
				c-0.678,0-1.374,0.061-2.061,0.061h-0.066v-0.064v-0.521h0.066h0.213c1.001-0.005,1.287-0.648,1.298-1.855v-6.38
				c-0.002-0.807-0.664-1.297-1.313-1.297h-0.265V91.29v-0.518h0.066c0.579,0,1.172,0.06,1.74,0.06c0.452,0,0.89-0.06,1.4-0.036
				l6.657,7.494v-5.572c-0.008-1.203-0.812-1.349-1.252-1.358H25.68V91.29v-0.518h0.067c0.716,0,1.413,0.06,2.121,0.06
				c0.616,0,1.237-0.06,1.864-0.06h0.066v0.066v0.521h-0.066h-0.226c-0.625,0.016-1.267,0.071-1.286,1.857v6.893
				c0,0.53,0.017,1.059,0.09,1.519l0.014,0.076H28.245z"/>
			<path fill="#1D1D1B" d="M32,91.596c-1.137,0-1.181,0.274-1.409,1.379h-0.455c0.06-0.425,0.135-0.849,0.182-1.287
				c0.061-0.427,0.091-0.849,0.091-1.287h0.363c0.122,0.455,0.5,0.438,0.912,0.438h7.813c0.411,0,0.789-0.016,0.82-0.471
				l0.361,0.063c-0.059,0.408-0.121,0.817-0.165,1.227c-0.029,0.409-0.029,0.817-0.029,1.227l-0.456,0.168
				c-0.031-0.56-0.105-1.456-1.121-1.456h-2.484v8.06c0,1.168,0.531,1.302,1.257,1.302h0.289v0.456c-0.591,0-1.652-0.06-2.468-0.06
				c-0.91,0-1.972,0.06-2.563,0.06v-0.456h0.289c0.835,0,1.257-0.074,1.257-1.271v-8.091H32z"/>
			<path fill="#1D1D1B" d="M37.972,101.478c-0.597,0-1.656-0.061-2.47-0.061c-0.909,0-1.968,0.061-2.563,0.061h-0.064v-0.064v-0.521
				h0.064h0.289c0.835-0.02,1.17-0.03,1.189-1.205v-8.025H32v-0.065v-0.067h2.549v8.158c0,1.216-0.49,1.339-1.321,1.341h-0.225
				v0.319c0.598-0.004,1.619-0.06,2.498-0.06c0.789,0,1.8,0.056,2.401,0.06v-0.319h-0.221c-0.732-0.002-1.323-0.182-1.323-1.372
				v-8.127h2.55c1.016,0.004,1.151,0.867,1.183,1.432l0.328-0.121c0-0.396,0.001-0.792,0.029-1.19
				c0.044-0.392,0.1-0.775,0.157-1.164l-0.23-0.038c-0.07,0.44-0.497,0.464-0.877,0.458h-7.813h-0.08
				c-0.356,0.001-0.745-0.017-0.881-0.439h-0.25c-0.002,0.419-0.031,0.825-0.088,1.229c-0.045,0.416-0.114,0.815-0.17,1.217h0.323
				c0.2-1.057,0.329-1.397,1.461-1.383v0.067v0.065c-1.122,0.021-1.097,0.209-1.344,1.329l-0.011,0.051h-0.053h-0.53l0.008-0.078
				c0.062-0.423,0.138-0.848,0.183-1.288c0.063-0.42,0.092-0.84,0.092-1.274v-0.067h0.065h0.416l0.012,0.048
				c0.103,0.382,0.382,0.385,0.769,0.392h0.08h7.813c0.422-0.007,0.729-0.013,0.755-0.409l0.006-0.071l0.068,0.014l0.429,0.068
				l-0.011,0.066c-0.06,0.406-0.119,0.814-0.165,1.221c-0.028,0.405-0.028,0.813-0.028,1.223v0.046l-0.044,0.017l-0.536,0.197
				l-0.004-0.088c-0.042-0.57-0.1-1.395-1.058-1.395h-2.418v7.994c0.016,1.142,0.469,1.222,1.191,1.236h0.354v0.065v0.521H37.972z"
				/>
			<path fill="#1D1D1B" d="M41.164,100.957h0.213c0.544,0,1.121-0.074,1.121-0.863v-7.936c0-0.789-0.577-0.864-1.121-0.864h-0.213
				v-0.455c0.921,0,2.5,0.061,3.77,0.061c1.275,0,2.848-0.061,3.878-0.061c-0.026,0.65-0.012,1.653,0.032,2.318l-0.457,0.12
				c-0.073-0.984-0.254-1.771-1.846-1.771h-2.104v3.967h1.8c0.909,0,1.107-0.514,1.196-1.333h0.454
				c-0.03,0.593-0.046,1.183-0.046,1.773c0,0.576,0.016,1.151,0.046,1.727l-0.454,0.091c-0.089-0.908-0.135-1.499-1.181-1.499
				h-1.815v3.528c0,0.985,0.875,0.985,1.846,0.985c1.818,0,2.62-0.122,3.075-1.847l0.423,0.104
				c-0.197,0.805-0.378,1.604-0.513,2.409c-0.971,0-2.713-0.06-4.074-0.06c-1.366,0-3.167,0.06-4.032,0.06V100.957z"/>
			<path fill="#1D1D1B" d="M49.211,101.347c0.132-0.766,0.305-1.531,0.491-2.294l-0.298-0.075c-0.454,1.695-1.333,1.846-3.121,1.835
				c-0.955,0-1.909,0-1.914-1.052v-3.595h1.884c1.058-0.01,1.165,0.627,1.24,1.489l0.327-0.067c-0.03-0.559-0.044-1.119-0.044-1.674
				c0-0.569,0.015-1.137,0.044-1.709h-0.327c-0.085,0.792-0.333,1.344-1.256,1.334H44.37v-4.101h2.172
				c1.575-0.012,1.836,0.804,1.905,1.756l0.326-0.089c-0.026-0.427-0.044-0.977-0.044-1.482c0-0.259,0.006-0.505,0.015-0.719
				c-1.029,0.004-2.565,0.059-3.811,0.059s-2.777-0.055-3.704-0.059v0.321h0.146c0.539,0.002,1.184,0.095,1.187,0.933v7.936
				c-0.003,0.837-0.648,0.929-1.187,0.934H41.23v0.319c0.882-0.003,2.633-0.06,3.964-0.06
				C46.531,101.287,48.235,101.344,49.211,101.347 M49.268,101.478c-0.972,0-2.715-0.063-4.074-0.063
				c-1.365,0-3.165,0.063-4.031,0.063H41.1v-0.064v-0.456v-0.065h0.063h0.213c0.548-0.009,1.047-0.058,1.054-0.798v-7.936
				c-0.006-0.74-0.505-0.789-1.054-0.799H41.1v-0.066v-0.521h0.063c0.926,0,2.501,0.06,3.771,0.06c1.273,0,2.846-0.06,3.878-0.06
				h0.067l-0.002,0.07c-0.01,0.227-0.016,0.496-0.016,0.78c0,0.524,0.016,1.098,0.046,1.529l0.002,0.054l-0.051,0.016l-0.532,0.14
				l-0.002-0.079c-0.089-0.982-0.221-1.697-1.781-1.712H44.5L44.5,95.406h1.738c0.874-0.009,1.029-0.455,1.133-1.271l0.003-0.061
				h0.061h0.522l-0.001,0.068c-0.029,0.592-0.047,1.181-0.047,1.771c0,0.572,0.018,1.147,0.047,1.724l0.001,0.055l-0.055,0.013
				l-0.528,0.104l-0.003-0.07c-0.105-0.926-0.112-1.433-1.117-1.443H44.5v3.465c0.002,0.92,0.796,0.915,1.783,0.92
				c1.824-0.011,2.555-0.1,3.011-1.799l0.016-0.062l0.064,0.011l0.485,0.126l-0.014,0.062c-0.197,0.802-0.377,1.604-0.514,2.404
				l-0.012,0.055H49.268z"/>
			<path fill="#1D1D1B" d="M53.767,95.956h0.74c1.517,0,2.333-0.573,2.333-2.362c0-1.347-0.863-2.21-2.213-2.21
				c-0.455,0-0.648,0.047-0.86,0.062V95.956z M51.828,92.442c0-1.104-0.607-1.149-1.077-1.149h-0.273v-0.454
				c0.485,0,1.424,0.061,2.349,0.061c0.907,0,1.635-0.061,2.438-0.061c1.906,0,3.606,0.515,3.606,2.667
				c0,1.362-0.909,2.194-2.105,2.666l2.589,3.876c0.425,0.641,0.726,0.82,1.47,0.909v0.456c-0.501,0-0.986-0.06-1.484-0.06
				c-0.47,0-0.957,0.06-1.424,0.06c-1.167-1.529-2.168-3.165-3.152-4.91h-0.998v3.244c0,1.166,0.544,1.21,1.238,1.21h0.275v0.456
				c-0.865,0-1.74-0.06-2.606-0.06c-0.727,0-1.439,0.06-2.196,0.06v-0.456h0.273c0.563,0,1.077-0.256,1.077-0.816V92.442z"/>
			<path fill="#1D1D1B" d="M54.507,95.894c1.499-0.016,2.255-0.536,2.27-2.295c-0.009-1.324-0.831-2.145-2.15-2.15
				c-0.409,0-0.602,0.037-0.795,0.057v4.389H54.507z M53.766,96.022h-0.067v-4.639l0.058-0.005c0.208-0.017,0.412-0.059,0.87-0.059
				c1.379,0,2.278,0.896,2.279,2.278c-0.004,1.808-0.871,2.423-2.399,2.424H53.766z M53.766,96.438h1.035l0.019,0.034
				c0.986,1.74,1.981,3.376,3.097,4.876c0.461,0,0.948-0.061,1.42-0.061c0.483,0,0.951,0.053,1.421,0.06v-0.333
				c-0.71-0.087-1.043-0.301-1.457-0.929l-2.637-3.943l0.075-0.03c1.187-0.468,2.065-1.276,2.066-2.608
				c0-2.102-1.635-2.589-3.54-2.599c-0.797,0-1.525,0.061-2.438,0.061c-0.89,0-1.789-0.057-2.284-0.061v0.321h0.208
				c0.47,0.002,1.139,0.08,1.139,1.217v7.698c0,0.608-0.569,0.885-1.139,0.887h-0.208v0.319c0.728-0.003,1.419-0.06,2.131-0.06
				c0.846,0,1.702,0.057,2.539,0.06v-0.319h-0.208c-0.689-0.002-1.306-0.087-1.306-1.283v-3.307H53.766z M60.825,101.478
				c-0.508,0-0.99-0.061-1.488-0.061c-0.461,0-0.946,0.061-1.474,0.035c-1.162-1.525-2.158-3.151-3.137-4.881h-0.895v3.173
				c0.017,1.141,0.474,1.132,1.174,1.147h0.34v0.065v0.521h-0.067c-0.866,0-1.746-0.061-2.604-0.061
				c-0.723,0-1.435,0.061-2.196,0.061h-0.066v-0.064v-0.521h0.066h0.273c0.544-0.004,1.005-0.241,1.007-0.751v-7.698
				c-0.011-1.073-0.537-1.068-1.007-1.083h-0.339v-0.065v-0.521h0.066c0.49,0,1.425,0.06,2.349,0.06c0.904,0,1.631-0.06,2.438-0.06
				c1.91,0.005,3.667,0.53,3.672,2.73c0,1.367-0.904,2.222-2.072,2.698l2.544,3.811c0.424,0.628,0.688,0.785,1.424,0.88l0.055,0.009
				v0.057v0.521H60.825z"/>
			<path fill="#1D1D1B" d="M71.109,98.427l0.026-0.03v-5.679c0-1.242-0.86-1.425-1.315-1.425h-0.332v-0.454
				c0.712,0,1.406,0.061,2.12,0.061c0.623,0,1.239-0.061,1.865-0.061v0.454h-0.228c-0.636,0-1.348,0.121-1.348,1.924v6.893
				c0,0.53,0.015,1.061,0.089,1.53h-0.573l-7.8-8.696v6.243c0,1.318,0.255,1.771,1.422,1.771h0.258v0.456
				c-0.65,0-1.303-0.06-1.954-0.06c-0.684,0-1.379,0.06-2.061,0.06v-0.456h0.21c1.046,0,1.366-0.712,1.366-1.92v-6.383
				c0-0.847-0.698-1.361-1.379-1.361h-0.197v-0.454c0.573,0,1.168,0.061,1.743,0.061c0.45,0,0.892-0.061,1.347-0.061L71.109,98.427z
				"/>
			<path fill="#1D1D1B" d="M71.071,98.396v-0.004l-0.011-0.011L71.071,98.396z M71.107,98.427l0.049-0.043L71.107,98.427z
				 M71.413,101.571h0.496c-0.066-0.452-0.08-0.958-0.08-1.462v-6.893c0.001-1.817,0.768-1.986,1.416-1.991h0.159v-0.321
				c-0.596,0.004-1.195,0.059-1.796,0.059c-0.696,0-1.371-0.055-2.056-0.059v0.321h0.268c0.466,0.005,1.384,0.209,1.384,1.492
				l-0.021,5.727l-0.027,0.029l-0.048,0.05l-6.74-7.619c-0.451,0-0.89,0.059-1.347,0.059c-0.562,0-1.128-0.055-1.679-0.059v0.321
				h0.133c0.712,0.005,1.441,0.542,1.441,1.429v6.379c0,1.216-0.342,1.989-1.428,1.994l-0.146-0.002v0.322
				c0.654-0.005,1.329-0.061,1.994-0.061c0.636,0,1.265,0.056,1.891,0.061v-0.32h-0.192c-1.192-0.002-1.489-0.522-1.493-1.842
				v-6.409L71.413,101.571z M71.986,101.704l-0.623-0.021l-7.688-8.567v6.07c0.018,1.319,0.217,1.691,1.359,1.706h0.321v0.065v0.521
				h-0.066c-0.655,0-1.305-0.063-1.954-0.063c-0.676,0-1.376,0.063-2.058,0.063h-0.068v-0.064v-0.521h0.068h0.211
				c1-0.004,1.287-0.648,1.297-1.858v-6.379c-0.002-0.808-0.662-1.295-1.31-1.295h-0.266v-0.066v-0.521h0.068
				c0.578,0,1.171,0.06,1.743,0.06c0.445,0,0.883-0.06,1.392-0.04l6.659,7.498v-5.572c-0.004-1.203-0.811-1.352-1.251-1.358h-0.4
				v-0.066v-0.521h0.066c0.716,0,1.414,0.06,2.122,0.06c0.617,0,1.237-0.06,1.862-0.06h0.067v0.067v0.52H73.47h-0.226
				c-0.625,0.015-1.269,0.071-1.284,1.857v6.893c0,0.53,0.014,1.056,0.091,1.521l0.008,0.074H71.986z"/>
			<path fill="#1D1D1B" d="M78.12,92.536h-0.032l-1.407,4.287h2.83L78.12,92.536z M75.908,99.247
				c-0.153,0.514-0.335,0.911-0.335,1.18c0,0.456,0.638,0.531,1.136,0.531h0.169v0.455c-0.608-0.033-1.227-0.06-1.836-0.06
				c-0.545,0-1.087,0.026-1.634,0.06v-0.455H73.5c0.59,0,1.091-0.35,1.316-0.986l2.424-6.95c0.198-0.562,0.471-1.319,0.563-1.881
				c0.482-0.166,1.091-0.467,1.377-0.651c0.047-0.015,0.075-0.03,0.121-0.03c0.046,0,0.074,0,0.107,0.048
				c0.044,0.119,0.089,0.256,0.136,0.377l2.789,7.924c0.182,0.528,0.362,1.089,0.556,1.546c0.185,0.425,0.503,0.604,1.004,0.604
				h0.091v0.455c-0.683-0.033-1.366-0.06-2.09-0.06c-0.742,0-1.502,0.026-2.274,0.06v-0.455h0.167c0.346,0,0.94-0.061,0.94-0.439
				c0-0.195-0.137-0.604-0.306-1.092l-0.59-1.756h-3.438L75.908,99.247z"/>
			<path fill="#1D1D1B" d="M78.054,92.556l0.035-0.012L78.054,92.556z M76.769,96.756h2.652l-1.318-4.059L76.769,96.756z
				 M76.588,96.889l1.45-4.42h0.05h0.031v0.067l-0.016,0.004l0.016-0.004v-0.067h0.045l1.439,4.42H76.588z M79.685,101.343
				c0.75-0.026,1.485-0.056,2.208-0.056c0.703,0,1.363,0.029,2.021,0.056v-0.317h-0.022c-0.52,0.004-0.877-0.2-1.063-0.647
				c-0.197-0.457-0.381-1.02-0.56-1.551l-2.789-7.923c-0.046-0.121-0.089-0.256-0.128-0.363c-0.015-0.016-0.012-0.016-0.023-0.016
				H79.3c-0.031,0-0.048,0.009-0.088,0.02c-0.291,0.188-0.898,0.487-1.349,0.605c-0.093,0.574-0.366,1.331-0.563,1.892l-2.423,6.952
				c-0.231,0.658-0.763,1.033-1.378,1.031h-0.025v0.317c0.52-0.026,1.044-0.056,1.57-0.056c0.586,0,1.183,0.029,1.763,0.056v-0.317
				h-0.098c-0.494-0.007-1.184-0.061-1.201-0.598c0.001-0.3,0.187-0.688,0.335-1.2l0.064,0.02l-0.064-0.021l0.499-1.618h3.533
				l0.606,1.799c0.17,0.487,0.308,0.891,0.308,1.112c-0.022,0.464-0.66,0.498-1.003,0.507h-0.101V101.343z M83.978,101.478
				c-0.681-0.029-1.364-0.063-2.085-0.063c-0.742,0-1.498,0.034-2.271,0.063l-0.07,0.004v-0.068v-0.524h0.067h0.167
				c0.351,0,0.871-0.078,0.872-0.37c0.004-0.173-0.132-0.588-0.299-1.069l-0.577-1.714H76.44l-0.471,1.531
				c-0.152,0.515-0.336,0.915-0.333,1.161c0.005,0.37,0.571,0.461,1.073,0.461h0.233v0.069v0.523l-0.068-0.004
				c-0.606-0.029-1.224-0.063-1.83-0.063c-0.542,0-1.089,0.034-1.631,0.063l-0.07,0.004v-0.068v-0.524h0.065h0.092
				c0.563-0.001,1.034-0.322,1.252-0.938l2.426-6.953c0.196-0.561,0.471-1.314,0.602-1.92c0.476-0.161,1.085-0.467,1.376-0.649
				c0.042-0.016,0.084-0.035,0.145-0.035c0.037-0.002,0.119,0.008,0.168,0.087c0.043,0.124,0.091,0.261,0.137,0.383l2.789,7.923
				c0.179,0.53,0.36,1.09,0.558,1.539c0.176,0.403,0.453,0.563,0.94,0.563h0.153v0.069v0.523L83.978,101.478z"/>
			<path fill="#1D1D1B" d="M84.649,91.596c-1.136,0-1.182,0.274-1.41,1.379h-0.456c0.06-0.425,0.137-0.849,0.185-1.287
				c0.059-0.427,0.088-0.849,0.088-1.287h0.366c0.119,0.455,0.499,0.438,0.907,0.438h7.817c0.407,0,0.786-0.016,0.816-0.471
				l0.362,0.063c-0.057,0.408-0.117,0.817-0.164,1.227c-0.034,0.409-0.034,0.817-0.034,1.227l-0.453,0.168
				c-0.027-0.56-0.103-1.456-1.12-1.456h-2.484v8.06c0,1.168,0.531,1.302,1.256,1.302h0.29v0.456c-0.591,0-1.65-0.06-2.47-0.06
				c-0.907,0-1.971,0.06-2.561,0.06v-0.456h0.289c0.835,0,1.257-0.074,1.257-1.271v-8.091H84.649z"/>
			<path fill="#1D1D1B" d="M90.617,101.478c-0.595,0-1.657-0.061-2.471-0.061c-0.905,0-1.965,0.061-2.559,0.061H85.52v-0.064v-0.521
				h0.067h0.288c0.835-0.02,1.17-0.03,1.19-1.205l-0.001-8.025h-2.415v-0.065v-0.067h2.548v8.158c0,1.216-0.491,1.336-1.323,1.339
				h-0.224v0.322c0.599-0.005,1.617-0.061,2.495-0.061c0.792,0,1.805,0.056,2.404,0.061v-0.322h-0.223
				c-0.729-0.003-1.32-0.179-1.321-1.37v-8.127h2.549c1.018,0.004,1.15,0.867,1.179,1.432l0.329-0.121
				c0-0.396,0.002-0.792,0.033-1.188c0.041-0.391,0.098-0.777,0.153-1.165l-0.229-0.039c-0.069,0.44-0.497,0.465-0.874,0.458h-7.817
				h-0.078c-0.357,0.004-0.743-0.017-0.881-0.44h-0.248c-0.003,0.419-0.033,0.826-0.093,1.23c-0.042,0.417-0.114,0.818-0.172,1.217
				h0.325c0.2-1.057,0.331-1.399,1.466-1.383v0.067v0.065c-1.124,0.019-1.099,0.209-1.346,1.329l-0.011,0.051h-0.053h-0.532
				l0.01-0.075c0.063-0.426,0.138-0.851,0.182-1.287c0.062-0.424,0.09-0.844,0.09-1.278v-0.067h0.067h0.414l0.013,0.048
				c0.106,0.382,0.382,0.385,0.769,0.392h0.078h7.817c0.419-0.007,0.725-0.013,0.752-0.408l0.002-0.072l0.07,0.014l0.43,0.068
				l-0.011,0.066c-0.062,0.406-0.12,0.814-0.165,1.221c-0.031,0.405-0.031,0.813-0.031,1.223v0.046l-0.044,0.017l-0.536,0.197
				l-0.002-0.088c-0.04-0.57-0.1-1.395-1.057-1.395h-2.419v7.994c0.016,1.142,0.469,1.222,1.191,1.236h0.354v0.065v0.521H90.617z"/>
			<path fill="#1D1D1B" d="M93.885,100.957h0.212c0.546,0,1.12-0.074,1.12-0.863v-7.936c0-0.789-0.573-0.864-1.12-0.864h-0.212
				v-0.455c0.591,0,1.499,0.061,2.24,0.061c0.759,0,1.668-0.061,2.382-0.061v0.455h-0.213c-0.548,0-1.124,0.075-1.124,0.864v7.936
				c0,0.789,0.576,0.863,1.124,0.863h0.213v0.456c-0.728,0-1.638-0.06-2.395-0.06c-0.744,0-1.636,0.06-2.228,0.06V100.957z"/>
			<path fill="#1D1D1B" d="M98.438,101.347v-0.321h-0.143c-0.544,0-1.187-0.095-1.187-0.932v-7.936c0-0.838,0.643-0.931,1.187-0.933
				h0.143v-0.321c-0.699,0.004-1.576,0.059-2.313,0.059c-0.719,0-1.586-0.055-2.174-0.059v0.321h0.147
				c0.538,0.002,1.184,0.095,1.185,0.933v7.936c-0.001,0.837-0.647,0.932-1.185,0.932h-0.147v0.321
				c0.583-0.007,1.44-0.06,2.162-0.06C96.847,101.287,97.724,101.343,98.438,101.347 M98.507,101.478
				c-0.732,0-1.639-0.063-2.395-0.063c-0.742,0-1.636,0.063-2.228,0.063H93.82v-0.064v-0.456v-0.065h0.065h0.213
				c0.546-0.009,1.049-0.057,1.053-0.798v-7.936c-0.003-0.74-0.507-0.789-1.053-0.799H93.82v-0.066v-0.521h0.065
				c0.592,0,1.503,0.06,2.24,0.06c0.755,0,1.664-0.06,2.382-0.06h0.063v0.066v0.521h-0.063h-0.212
				c-0.555,0.01-1.053,0.059-1.059,0.799v7.936c0.006,0.741,0.503,0.789,1.059,0.798h0.275v0.065v0.521H98.507z"/>
			<path fill="#1D1D1B" d="M104.776,100.973c2.94,0,3.452-2.592,3.452-4.801c0-2.213-1.194-4.894-3.71-4.894
				c-2.65,0-3.438,2.363-3.438,4.392C101.08,98.381,102.323,100.973,104.776,100.973 M104.547,90.611
				c3.23,0,5.803,2.002,5.803,5.229c0,3.484-2.5,5.8-5.725,5.8c-3.213,0-5.666-2.182-5.666-5.438
				C98.959,93.052,101.397,90.611,104.547,90.611"/>
			<path fill="#1D1D1B" d="M101.013,95.67c0.005-2.038,0.8-4.459,3.505-4.459c2.573,0.006,3.772,2.735,3.777,4.961
				c-0.005,2.209-0.524,4.863-3.518,4.863v-0.063v-0.065c2.88-0.003,3.38-2.526,3.386-4.735c0-2.194-1.182-4.824-3.645-4.828
				c-2.599,0.003-3.366,2.309-3.373,4.326c0.001,2.698,1.233,5.232,3.632,5.237v0.065v0.063
				C102.262,101.033,101.018,98.396,101.013,95.67 M98.892,96.201c0.006-3.187,2.472-5.65,5.655-5.655v0.065v0.066
				c-3.114,0-5.523,2.407-5.526,5.523c0.006,3.221,2.423,5.369,5.606,5.37c3.192-0.001,5.656-2.283,5.66-5.734
				c-0.002-3.186-2.537-5.156-5.74-5.159v-0.066v-0.065c3.252,0.003,5.863,2.024,5.869,5.291c-0.003,3.521-2.533,5.861-5.789,5.867
				C101.385,101.698,98.898,99.494,98.892,96.201"/>
			<path fill="#1D1D1B" d="M120.558,98.427l0.031-0.03v-5.679c0-1.242-0.866-1.425-1.32-1.425h-0.33v-0.454
				c0.71,0,1.408,0.061,2.118,0.061c0.623,0,1.244-0.061,1.866-0.061v0.454h-0.228c-0.635,0-1.349,0.121-1.349,1.924v6.893
				c0,0.53,0.016,1.061,0.092,1.53h-0.576l-7.803-8.696v6.243c0,1.318,0.258,1.771,1.422,1.771h0.26v0.456
				c-0.652,0-1.302-0.06-1.954-0.06c-0.682,0-1.379,0.06-2.061,0.06v-0.456h0.213c1.047,0,1.363-0.712,1.363-1.92v-6.383
				c0-0.847-0.694-1.361-1.38-1.361h-0.196v-0.454c0.576,0,1.166,0.061,1.743,0.061c0.454,0,0.89-0.061,1.347-0.061L120.558,98.427z
				"/>
			<path fill="#1D1D1B" d="M120.523,98.396v-0.004l-0.012-0.011L120.523,98.396z M120.558,98.427l0.048-0.043L120.558,98.427z
				 M120.862,101.571h0.497c-0.064-0.455-0.079-0.958-0.079-1.462v-6.893c0-1.821,0.765-1.986,1.415-1.991h0.164v-0.321
				c-0.601,0.004-1.197,0.059-1.803,0.059c-0.69,0-1.367-0.055-2.053-0.059v0.321h0.267c0.468,0.005,1.382,0.212,1.382,1.492
				l-0.016,5.727l-0.029,0.029l-0.048,0.05l-6.742-7.619c-0.448,0-0.889,0.059-1.348,0.059c-0.558,0-1.127-0.055-1.678-0.059v0.321
				h0.132c0.712,0.005,1.444,0.542,1.444,1.429v6.382c0,1.213-0.338,1.986-1.429,1.991l-0.148-0.002v0.322
				c0.657-0.005,1.332-0.061,1.997-0.061c0.632,0,1.26,0.056,1.888,0.061v-0.32h-0.195c-1.189-0.002-1.487-0.522-1.487-1.841v-6.413
				L120.862,101.571z M121.438,101.704l-0.626-0.021l-7.688-8.567v6.071c0.018,1.318,0.219,1.689,1.356,1.702h0.326v0.069v0.52
				h-0.064c-0.655,0-1.306-0.061-1.954-0.061c-0.679,0-1.376,0.061-2.063,0.061h-0.062v-0.064v-0.524h0.062h0.214
				c0.999-0.002,1.287-0.646,1.298-1.853v-6.382c0-0.808-0.663-1.295-1.314-1.295h-0.26v-0.066v-0.521h0.062
				c0.581,0,1.171,0.06,1.744,0.06c0.45,0,0.885-0.06,1.398-0.036l6.656,7.494v-5.572c-0.005-1.203-0.812-1.349-1.254-1.358h-0.399
				v-0.066v-0.521h0.069c0.711,0,1.411,0.06,2.116,0.06c0.62,0,1.238-0.06,1.868-0.06h0.063v0.066v0.521h-0.063h-0.229
				c-0.624,0.016-1.269,0.073-1.282,1.857v6.893c0,0.53,0.012,1.059,0.086,1.521l0.013,0.074H121.438z"/>
			<path fill="#1D1D1B" d="M127.571,92.536h-0.03l-1.412,4.287h2.836L127.571,92.536z M125.356,99.247
				c-0.148,0.514-0.332,0.911-0.332,1.18c0,0.456,0.638,0.531,1.135,0.531h0.169v0.455c-0.606-0.033-1.228-0.06-1.835-0.06
				c-0.545,0-1.09,0.026-1.633,0.06v-0.455h0.086c0.594,0,1.096-0.35,1.317-0.986l2.428-6.95c0.196-0.562,0.47-1.319,0.557-1.881
				c0.487-0.166,1.091-0.467,1.383-0.651c0.042-0.015,0.073-0.03,0.12-0.03c0.044,0,0.073,0,0.104,0.048
				c0.046,0.119,0.091,0.256,0.137,0.377l2.787,7.924c0.181,0.528,0.363,1.089,0.562,1.546c0.182,0.425,0.5,0.604,0.999,0.604h0.093
				v0.455c-0.683-0.033-1.365-0.06-2.093-0.06c-0.741,0-1.5,0.026-2.273,0.06v-0.455h0.168c0.346,0,0.94-0.061,0.94-0.439
				c0-0.195-0.136-0.604-0.305-1.092l-0.59-1.756h-3.438L125.356,99.247z"/>
			<path fill="#1D1D1B" d="M127.508,92.556l0.03-0.012L127.508,92.556z M126.221,96.756h2.649l-1.317-4.057L126.221,96.756z
				 M126.038,96.888l1.455-4.419h0.045h0.033v0.067l-0.018,0.004l0.018-0.004v-0.067h0.046l1.432,4.419H126.038z M129.133,101.344
				c0.75-0.027,1.487-0.057,2.209-0.057c0.704,0,1.363,0.029,2.024,0.056l-0.002-0.317h-0.025c-0.513,0.002-0.87-0.2-1.06-0.647
				c-0.199-0.457-0.38-1.02-0.561-1.548l-2.788-7.926c-0.045-0.121-0.093-0.256-0.128-0.361c-0.013-0.018-0.012-0.018-0.021-0.018
				h-0.03c-0.033,0-0.05,0.01-0.085,0.021c-0.296,0.186-0.903,0.489-1.35,0.604c-0.094,0.574-0.369,1.33-0.564,1.892l-2.426,6.952
				c-0.23,0.658-0.76,1.033-1.379,1.031h-0.022v0.317c0.521-0.026,1.042-0.056,1.569-0.056c0.587,0,1.186,0.029,1.768,0.056v-0.317
				h-0.103c-0.493-0.007-1.183-0.059-1.202-0.599c0.004-0.299,0.19-0.686,0.339-1.199l0.061,0.02l-0.061-0.021l0.499-1.618h3.53
				l0.609,1.799c0.167,0.487,0.305,0.891,0.305,1.112c-0.022,0.464-0.659,0.498-1.003,0.507h-0.103V101.344z M133.427,101.478
				c-0.683-0.027-1.363-0.061-2.085-0.061c-0.739,0-1.499,0.033-2.27,0.061l-0.067,0.004v-0.068v-0.521h0.065h0.166
				c0.352,0,0.874-0.081,0.874-0.373c0.004-0.173-0.133-0.586-0.303-1.069l-0.575-1.714h-3.344l-0.468,1.531
				c-0.152,0.519-0.332,0.915-0.33,1.16c0,0.371,0.568,0.465,1.069,0.465h0.232v0.065v0.524l-0.068-0.004
				c-0.604-0.027-1.225-0.061-1.829-0.061c-0.542,0-1.086,0.033-1.633,0.061l-0.066,0.004v-0.068v-0.521h0.066h0.086
				c0.564-0.003,1.037-0.326,1.259-0.94l2.423-6.953c0.194-0.561,0.467-1.314,0.601-1.918c0.476-0.165,1.084-0.469,1.379-0.651
				c0.039-0.016,0.082-0.033,0.144-0.033c0.039-0.004,0.118,0.006,0.165,0.089c0.046,0.119,0.091,0.257,0.14,0.379l2.786,7.923
				c0.182,0.53,0.363,1.09,0.56,1.541c0.179,0.401,0.453,0.561,0.937,0.564h0.157v0.065v0.524L133.427,101.478z"/>
			<path fill="#1D1D1B" d="M137.25,99.927c0,0.609,0.421,0.788,0.907,0.852c0.62,0.045,1.302,0.045,2.001-0.032
				c0.635-0.076,1.181-0.438,1.453-0.819c0.241-0.332,0.377-0.757,0.47-1.089h0.438c-0.167,0.863-0.378,1.713-0.561,2.575
				c-1.33,0-2.667-0.06-3.998-0.06c-1.334,0-2.667,0.06-3.999,0.06v-0.456h0.209c0.546,0,1.139-0.074,1.139-1.014v-7.785
				c0-0.789-0.593-0.865-1.139-0.865h-0.209v-0.454c0.801,0,1.59,0.061,2.392,0.061c0.774,0,1.53-0.061,2.304-0.061v0.454h-0.381
				c-0.576,0-1.027,0.017-1.027,0.818V99.927z"/>
			<path fill="#1D1D1B" d="M141.903,101.347c0.175-0.823,0.374-1.627,0.537-2.444h-0.313c-0.093,0.329-0.228,0.736-0.465,1.065
				c-0.284,0.393-0.844,0.763-1.501,0.845c-0.396,0.04-0.79,0.061-1.161,0.061c-0.293,0-0.577-0.013-0.853-0.032
				c-0.493-0.055-0.969-0.266-0.969-0.914v-7.815c0-0.842,0.533-0.886,1.098-0.886h0.312v-0.321
				c-0.746,0.004-1.483,0.061-2.236,0.061c-0.783,0-1.551-0.057-2.326-0.061v0.321h0.145c0.54,0,1.202,0.095,1.202,0.93v7.788
				c0,0.98-0.659,1.082-1.202,1.082h-0.145v0.321c1.309-0.003,2.618-0.06,3.934-0.06
				C139.277,101.287,140.592,101.344,141.903,101.347 M141.958,101.478c-1.336,0-2.67-0.061-3.999-0.061
				c-1.333,0-2.666,0.061-4.002,0.061h-0.063v-0.064v-0.521h0.063h0.213c0.547-0.013,1.068-0.051,1.074-0.948v-7.788
				c-0.006-0.737-0.524-0.786-1.074-0.796h-0.276v-0.066v-0.521h0.063c0.807,0,1.595,0.06,2.395,0.06c0.771,0,1.525-0.06,2.305-0.06
				h0.061v0.066v0.521h-0.061h-0.381c-0.587,0.015-0.952-0.012-0.965,0.752v7.815c0.004,0.566,0.375,0.718,0.849,0.785
				c0.266,0.019,0.548,0.029,0.84,0.029c0.371,0,0.755-0.018,1.146-0.06c0.617-0.073,1.148-0.43,1.41-0.791
				c0.234-0.324,0.366-0.739,0.458-1.069l0.012-0.05h0.052h0.52l-0.014,0.08c-0.171,0.866-0.379,1.711-0.563,2.574l-0.012,0.052
				H141.958z"/>
			<path fill="#1D1D1B" d="M142.079,92.008h0.188c0.206,0,0.301-0.155,0.301-0.407c0-0.254-0.146-0.344-0.312-0.344h-0.178V92.008z
				 M141.541,92.849v-0.077c0.195-0.028,0.231-0.023,0.231-0.143v-1.182c0-0.166-0.016-0.224-0.225-0.215v-0.081h0.816
				c0.28,0,0.539,0.134,0.539,0.424c0,0.237-0.156,0.413-0.377,0.481l0.263,0.365c0.122,0.165,0.261,0.321,0.351,0.376v0.051h-0.311
				c-0.149,0-0.281-0.313-0.573-0.732h-0.177v0.528c0,0.104,0.037,0.099,0.233,0.127v0.077H141.541z M142.334,93.302
				c0.715,0,1.262-0.608,1.262-1.294c0-0.688-0.541-1.3-1.262-1.3c-0.718,0-1.264,0.612-1.264,1.3
				C141.07,92.693,141.616,93.302,142.334,93.302 M142.334,90.409c0.914,0,1.596,0.701,1.596,1.599c0,0.896-0.682,1.591-1.596,1.591
				c-0.912,0-1.595-0.694-1.595-1.591C140.739,91.11,141.422,90.409,142.334,90.409"/>
		</g>
		<g>
			<circle fill="#FFFFFF" cx="73.375" cy="37.359" r="25.655"/>
			<path fill="#004A97" d="M73.411,63.473c-14.703,0.07-26.804-11.841-26.804-26.341c0-15.847,12.101-26.807,26.804-26.804h6.89
				c14.528-0.003,27.788,10.952,27.788,26.804c0,14.494-13.26,26.341-27.788,26.341H73.411z M73.47,12.525
				C60.034,12.53,49.149,23.418,49.146,36.854c0.002,13.434,10.888,24.319,24.324,24.322c13.436-0.003,24.323-10.889,24.327-24.322
				C97.793,23.418,86.906,12.53,73.47,12.525z M67.948,51.24V22.465c-5.782,2.227-9.882,7.821-9.897,14.39
				C58.065,43.421,62.166,49.016,67.948,51.24z M88.89,36.854c-0.01-6.57-4.117-12.174-9.903-14.393v28.783
				C84.773,49.023,88.88,43.426,88.89,36.854z"/>
		</g>
	</g>
</g>
</svg>
