<?xml version="1.0" encoding="utf-8"?>
<!-- Generator: Adobe Illustrator 16.0.3, SVG Export Plug-In . SVG Version: 6.00 Build 0)  -->
<!DOCTYPE svg PUBLIC "-//W3C//DTD SVG 1.1//EN" "http://www.w3.org/Graphics/SVG/1.1/DTD/svg11.dtd">
<svg version="1.1" id="acceptance" xmlns="http://www.w3.org/2000/svg" xmlns:xlink="http://www.w3.org/1999/xlink" x="0px" y="0px"
	 width="177.27px" height="113.387px" viewBox="0 0 177.27 113.387" enable-background="new 0 0 177.27 113.387"
	 xml:space="preserve">
<g id="discover">
	<g>
		<polygon fill="#FFFFFF" points="0.622,0.654 176.628,0.645 176.628,112.738 0.647,112.742 		"/>
		<path fill="#EE7D00" d="M176.007,62.986c0,0-48.094,33.936-136.179,49.125h136.179V62.986z"/>
		<path fill="#1D1D1B" d="M176.628,0L0,0.018v113.369h177.27L177.259,0H176.628z M175.988,1.285c0,1.258,0,109.551,0,110.814
			c-1.27,0-173.436,0-174.708,0c0-1.256-0.007-109.547-0.007-110.811C2.55,1.289,174.705,1.285,175.988,1.285z"/>
		<path fill="#1D1D1B" d="M15.501,34.695H8.156v25.652h7.306c3.885,0,6.69-0.916,9.153-2.961c2.926-2.422,4.656-6.072,4.656-9.848
			C29.271,39.969,23.615,34.695,15.501,34.695z M21.346,53.965c-1.572,1.42-3.614,2.039-6.847,2.039h-1.343V39.041h1.343
			c3.232,0,5.194,0.578,6.847,2.074c1.73,1.541,2.771,3.93,2.771,6.387C24.117,49.965,23.076,52.426,21.346,53.965z"/>
		<rect x="31.574" y="34.695" fill="#1D1D1B" width="5.003" height="25.652"/>
		<path fill="#1D1D1B" d="M48.813,44.539c-3.003-1.111-3.885-1.844-3.885-3.23c0-1.615,1.57-2.842,3.728-2.842
			c1.499,0,2.731,0.615,4.035,2.076l2.617-3.428c-2.151-1.881-4.725-2.844-7.537-2.844c-4.539,0-8.001,3.15-8.001,7.35
			c0,3.535,1.612,5.344,6.312,7.035c1.959,0.691,2.955,1.15,3.459,1.461c1,0.652,1.5,1.576,1.5,2.654
			c0,2.078-1.652,3.619-3.885,3.619c-2.387,0-4.309-1.195-5.461-3.424l-3.232,3.113c2.305,3.385,5.073,4.883,8.881,4.883
			c5.199,0,8.848-3.457,8.848-8.422C56.19,48.465,54.504,46.621,48.813,44.539z"/>
		<path fill="#1D1D1B" d="M57.769,47.539c0,7.541,5.921,13.387,13.54,13.387c2.153,0,3.998-0.424,6.273-1.494v-5.891
			c-2.001,2.002-3.772,2.809-6.041,2.809c-5.039,0-8.616-3.652-8.616-8.848c0-4.924,3.69-8.809,8.384-8.809
			c2.387,0,4.192,0.852,6.273,2.885v-5.887c-2.197-1.113-4.003-1.576-6.155-1.576C63.846,34.115,57.769,40.08,57.769,47.539z"/>
		<polygon fill="#1D1D1B" points="117.254,51.926 110.414,34.695 104.947,34.695 115.833,61.006 118.525,61.006 129.607,34.695 
			124.184,34.695 		"/>
		<polygon fill="#1D1D1B" points="131.87,60.348 146.061,60.348 146.061,56.004 136.87,56.004 136.87,49.08 145.722,49.08 
			145.722,44.736 136.87,44.736 136.87,39.041 146.061,39.041 146.061,34.695 131.87,34.695 		"/>
		<path fill="#1D1D1B" d="M165.871,42.27c0-4.803-3.308-7.574-9.078-7.574h-7.419v25.652h4.998V50.043h0.652l6.925,10.305h6.153
			l-8.075-10.807C163.796,48.773,165.871,46.197,165.871,42.27z M155.833,46.504h-1.461v-7.768h1.54
			c3.116,0,4.811,1.305,4.811,3.803C160.723,45.117,159.028,46.504,155.833,46.504z"/>
		<g>
			<g>
				<linearGradient id="SVGID_1_" gradientUnits="userSpaceOnUse" x1="99.8462" y1="58.5459" x2="90.398" y2="43.7529">
					<stop  offset="0" style="stop-color:#F59F00"/>
					<stop  offset="0.2298" style="stop-color:#F49A00"/>
					<stop  offset="0.4895" style="stop-color:#F28D00"/>
					<stop  offset="0.6196" style="stop-color:#F08300"/>
					<stop  offset="0.7642" style="stop-color:#EE7902"/>
					<stop  offset="1" style="stop-color:#EC6D05"/>
				</linearGradient>
				<circle fill="url(#SVGID_1_)" cx="92.861" cy="47.609" r="13.646"/>
				<linearGradient id="SVGID_2_" gradientUnits="userSpaceOnUse" x1="98.3545" y1="58.3467" x2="84.5454" y2="31.356">
					<stop  offset="0" style="stop-color:#F08300;stop-opacity:0"/>
					<stop  offset="0.3669" style="stop-color:#DD6A14;stop-opacity:0.2766"/>
					<stop  offset="0.7066" style="stop-color:#D25B21;stop-opacity:0.5327"/>
					<stop  offset="0.9816" style="stop-color:#CE5625;stop-opacity:0.74"/>
				</linearGradient>
				<circle opacity="0.65" fill="url(#SVGID_2_)" cx="92.861" cy="47.609" r="13.646"/>
			</g>
			<g opacity="0.5">
				<defs>
					<circle id="SVGID_3_" opacity="0.5" cx="92.86" cy="47.613" r="13.646"/>
				</defs>
				<clipPath id="SVGID_4_">
					<use xlink:href="#SVGID_3_"  overflow="visible"/>
				</clipPath>
				<g clip-path="url(#SVGID_4_)">
					<circle fill="#1D1D1B" cx="92.904" cy="47.656" r="13.921"/>
					<circle fill="#1E1E1C" cx="92.912" cy="47.666" r="13.919"/>
					<circle fill="#1F1F1D" cx="92.92" cy="47.675" r="13.918"/>
					<circle fill="#20201E" cx="92.927" cy="47.683" r="13.917"/>
					<circle fill="#21211F" cx="92.934" cy="47.692" r="13.916"/>
					<circle fill="#21211F" cx="92.942" cy="47.701" r="13.915"/>
					<circle fill="#222220" cx="92.95" cy="47.709" r="13.913"/>
					<circle fill="#232321" cx="92.957" cy="47.718" r="13.912"/>
					<circle fill="#242422" cx="92.964" cy="47.727" r="13.91"/>
					<circle fill="#252523" cx="92.972" cy="47.735" r="13.909"/>
					<circle fill="#262624" cx="92.98" cy="47.745" r="13.908"/>
					<circle fill="#272725" cx="92.987" cy="47.753" r="13.906"/>
					<circle fill="#282826" cx="92.995" cy="47.761" r="13.905"/>
					<circle fill="#292927" cx="93.002" cy="47.771" r="13.903"/>
					<circle fill="#292928" cx="93.01" cy="47.779" r="13.902"/>
					<circle fill="#2A2A28" cx="93.018" cy="47.787" r="13.9"/>
					<circle fill="#2B2B29" cx="93.024" cy="47.796" r="13.899"/>
					<circle fill="#2C2C2A" cx="93.032" cy="47.805" r="13.897"/>
					<circle fill="#2D2D2B" cx="93.04" cy="47.813" r="13.896"/>
					<circle fill="#2E2E2C" cx="93.048" cy="47.822" r="13.896"/>
					<circle fill="#2F2F2D" cx="93.055" cy="47.831" r="13.894"/>
					<circle fill="#30302E" cx="93.063" cy="47.84" r="13.893"/>
					<circle fill="#30302F" cx="93.07" cy="47.849" r="13.892"/>
					<circle fill="#313130" cx="93.078" cy="47.857" r="13.89"/>
					<circle fill="#323230" cx="93.085" cy="47.866" r="13.888"/>
					<circle fill="#333331" cx="93.092" cy="47.875" r="13.887"/>
					<circle fill="#343432" cx="93.101" cy="47.883" r="13.885"/>
					<circle fill="#353533" cx="93.108" cy="47.892" r="13.884"/>
					<circle fill="#363634" cx="93.115" cy="47.9" r="13.883"/>
					<circle fill="#373735" cx="93.123" cy="47.909" r="13.882"/>
					<circle fill="#383836" cx="93.13" cy="47.918" r="13.88"/>
					<circle fill="#383837" cx="93.138" cy="47.927" r="13.879"/>
					<circle fill="#393938" cx="93.146" cy="47.935" r="13.877"/>
					<circle fill="#3A3A39" cx="93.153" cy="47.944" r="13.876"/>
					<circle fill="#3B3B39" cx="93.161" cy="47.953" r="13.875"/>
					<circle fill="#3C3C3A" cx="93.168" cy="47.961" r="13.874"/>
					<circle fill="#3D3D3B" cx="93.176" cy="47.97" r="13.872"/>
					<circle fill="#3E3E3C" cx="93.184" cy="47.979" r="13.871"/>
					<circle fill="#3F3F3D" cx="93.191" cy="47.987" r="13.869"/>
					<circle fill="#40403E" cx="93.198" cy="47.996" r="13.868"/>
					<circle fill="#40403F" cx="93.206" cy="48.004" r="13.867"/>
					<circle fill="#414140" cx="93.213" cy="48.014" r="13.865"/>
					<circle fill="#424241" cx="93.221" cy="48.022" r="13.864"/>
					<circle fill="#434342" cx="93.229" cy="48.031" r="13.863"/>
					<circle fill="#444442" cx="93.236" cy="48.04" r="13.861"/>
					<circle fill="#454543" cx="93.244" cy="48.048" r="13.86"/>
					<circle fill="#464644" cx="93.251" cy="48.057" r="13.859"/>
					<circle fill="#474745" cx="93.259" cy="48.065" r="13.857"/>
					<circle fill="#484846" cx="93.266" cy="48.074" r="13.855"/>
					<circle fill="#484847" cx="93.273" cy="48.083" r="13.854"/>
					<circle fill="#494948" cx="93.282" cy="48.092" r="13.853"/>
					<circle fill="#4A4A49" cx="93.289" cy="48.101" r="13.852"/>
					<circle fill="#4B4B4A" cx="93.296" cy="48.109" r="13.85"/>
					<circle fill="#4C4C4A" cx="93.304" cy="48.118" r="13.849"/>
					<circle fill="#4D4D4B" cx="93.312" cy="48.127" r="13.848"/>
					<circle fill="#4E4E4C" cx="93.319" cy="48.135" r="13.846"/>
					<circle fill="#4F4F4D" cx="93.326" cy="48.144" r="13.845"/>
					<circle fill="#4F4F4E" cx="93.334" cy="48.153" r="13.843"/>
					<circle fill="#50504F" cx="93.342" cy="48.162" r="13.842"/>
					<circle fill="#515150" cx="93.349" cy="48.17" r="13.841"/>
					<circle fill="#525251" cx="93.356" cy="48.178" r="13.839"/>
					<circle fill="#535352" cx="93.364" cy="48.188" r="13.838"/>
					<circle fill="#545453" cx="93.372" cy="48.196" r="13.837"/>
					<circle fill="#555553" cx="93.379" cy="48.205" r="13.835"/>
					<circle fill="#565654" cx="93.387" cy="48.213" r="13.834"/>
					<circle fill="#575755" cx="93.395" cy="48.222" r="13.833"/>
					<circle fill="#575756" cx="93.402" cy="48.231" r="13.831"/>
					<circle fill="#585857" cx="93.41" cy="48.24" r="13.83"/>
					<circle fill="#595958" cx="93.417" cy="48.249" r="13.829"/>
					<circle fill="#5A5A59" cx="93.424" cy="48.257" r="13.827"/>
					<circle fill="#5B5B5A" cx="93.433" cy="48.266" r="13.826"/>
					<circle fill="#5C5C5B" cx="93.439" cy="48.274" r="13.825"/>
					<circle fill="#5D5D5B" cx="93.447" cy="48.282" r="13.823"/>
					<circle fill="#5E5E5C" cx="93.455" cy="48.292" r="13.822"/>
					<circle fill="#5F5F5D" cx="93.463" cy="48.301" r="13.82"/>
					<circle fill="#5F5F5E" cx="93.47" cy="48.31" r="13.819"/>
					<circle fill="#60605F" cx="93.477" cy="48.317" r="13.817"/>
					<circle fill="#616160" cx="93.485" cy="48.326" r="13.816"/>
					<circle fill="#626261" cx="93.493" cy="48.335" r="13.815"/>
					<circle fill="#636362" cx="93.5" cy="48.344" r="13.814"/>
					<circle fill="#646463" cx="93.507" cy="48.352" r="13.813"/>
					<circle fill="#656564" cx="93.515" cy="48.361" r="13.811"/>
					<circle fill="#666664" cx="93.523" cy="48.37" r="13.81"/>
					<circle fill="#676765" cx="93.53" cy="48.378" r="13.808"/>
					<circle fill="#676766" cx="93.538" cy="48.387" r="13.807"/>
					<circle fill="#686867" cx="93.545" cy="48.396" r="13.806"/>
					<circle fill="#696968" cx="93.553" cy="48.405" r="13.804"/>
					<circle fill="#6A6A69" cx="93.561" cy="48.414" r="13.803"/>
					<circle fill="#6B6B6A" cx="93.567" cy="48.422" r="13.802"/>
					<circle fill="#6C6C6B" cx="93.575" cy="48.431" r="13.8"/>
					<circle fill="#6D6D6C" cx="93.583" cy="48.439" r="13.799"/>
					<circle fill="#6E6E6C" cx="93.591" cy="48.448" r="13.798"/>
					<circle fill="#6E6E6D" cx="93.598" cy="48.457" r="13.796"/>
					<circle fill="#6F6F6E" cx="93.605" cy="48.466" r="13.795"/>
					<circle fill="#70706F" cx="93.613" cy="48.474" r="13.793"/>
					<circle fill="#717170" cx="93.621" cy="48.483" r="13.792"/>
					<circle fill="#727271" cx="93.628" cy="48.492" r="13.791"/>
					<circle fill="#737372" cx="93.636" cy="48.5" r="13.79"/>
					<circle fill="#747473" cx="93.644" cy="48.509" r="13.788"/>
					<circle fill="#757574" cx="93.651" cy="48.518" r="13.787"/>
					<circle fill="#767675" cx="93.658" cy="48.526" r="13.786"/>
					<circle fill="#767675" cx="93.666" cy="48.535" r="13.784"/>
					<circle fill="#777776" cx="93.673" cy="48.544" r="13.782"/>
					<circle fill="#787877" cx="93.681" cy="48.553" r="13.781"/>
					<circle fill="#797978" cx="93.688" cy="48.562" r="13.78"/>
					<circle fill="#7A7A79" cx="93.696" cy="48.569" r="13.778"/>
					<circle fill="#7B7B7A" cx="93.704" cy="48.578" r="13.777"/>
					<circle fill="#7C7C7B" cx="93.711" cy="48.587" r="13.776"/>
					<circle fill="#7D7D7C" cx="93.719" cy="48.596" r="13.774"/>
					<circle fill="#7E7E7D" cx="93.726" cy="48.605" r="13.773"/>
					<circle fill="#7E7E7E" cx="93.733" cy="48.613" r="13.771"/>
					<circle fill="#7F7F7E" cx="93.741" cy="48.622" r="13.771"/>
					<circle fill="#80807F" cx="93.749" cy="48.631" r="13.77"/>
					<circle fill="#818180" cx="93.756" cy="48.64" r="13.768"/>
					<circle fill="#828281" cx="93.764" cy="48.648" r="13.766"/>
					<circle fill="#838382" cx="93.771" cy="48.657" r="13.765"/>
					<circle fill="#848483" cx="93.779" cy="48.665" r="13.764"/>
					<circle fill="#858584" cx="93.786" cy="48.674" r="13.762"/>
					<circle fill="#858585" cx="93.794" cy="48.683" r="13.761"/>
					<circle fill="#868686" cx="93.802" cy="48.691" r="13.76"/>
					<circle fill="#878786" cx="93.809" cy="48.7" r="13.759"/>
					<circle fill="#888887" cx="93.816" cy="48.709" r="13.757"/>
					<circle fill="#898988" cx="93.824" cy="48.717" r="13.755"/>
					<circle fill="#8A8A89" cx="93.832" cy="48.727" r="13.754"/>
					<circle fill="#8B8B8A" cx="93.839" cy="48.735" r="13.753"/>
					<circle fill="#8C8C8B" cx="93.847" cy="48.744" r="13.751"/>
					<circle fill="#8D8D8C" cx="93.854" cy="48.752" r="13.75"/>
					<circle fill="#8D8D8D" cx="93.862" cy="48.761" r="13.749"/>
					<circle fill="#8E8E8E" cx="93.87" cy="48.77" r="13.748"/>
					<circle fill="#8F8F8F" cx="93.877" cy="48.778" r="13.746"/>
					<circle fill="#90908F" cx="93.885" cy="48.788" r="13.745"/>
					<circle fill="#919190" cx="93.893" cy="48.796" r="13.743"/>
					<circle fill="#929291" cx="93.9" cy="48.805" r="13.742"/>
					<circle fill="#939392" cx="93.907" cy="48.813" r="13.741"/>
					<circle fill="#949493" cx="93.915" cy="48.822" r="13.739"/>
					<circle fill="#959594" cx="93.922" cy="48.831" r="13.738"/>
					<circle fill="#959595" cx="93.93" cy="48.839" r="13.737"/>
					<circle fill="#969696" cx="93.938" cy="48.848" r="13.735"/>
					<circle fill="#979797" cx="93.945" cy="48.857" r="13.734"/>
					<circle fill="#989897" cx="93.953" cy="48.865" r="13.732"/>
					<circle fill="#999998" cx="93.96" cy="48.874" r="13.731"/>
					<circle fill="#9A9A99" cx="93.968" cy="48.882" r="13.73"/>
					<circle fill="#9B9B9A" cx="93.975" cy="48.892" r="13.729"/>
					<circle fill="#9C9C9B" cx="93.982" cy="48.9" r="13.727"/>
					<circle fill="#9D9D9C" cx="93.99" cy="48.909" r="13.726"/>
					<circle fill="#9D9D9D" cx="93.998" cy="48.917" r="13.724"/>
					<circle fill="#9E9E9E" cx="94.005" cy="48.926" r="13.723"/>
					<circle fill="#9F9F9F" cx="94.013" cy="48.935" r="13.722"/>
					<circle fill="#A0A0A0" cx="94.021" cy="48.944" r="13.72"/>
					<circle fill="#A1A1A0" cx="94.028" cy="48.952" r="13.719"/>
					<circle fill="#A2A2A1" cx="94.035" cy="48.961" r="13.717"/>
					<circle fill="#A3A3A2" cx="94.043" cy="48.97" r="13.716"/>
					<circle fill="#A4A4A3" cx="94.05" cy="48.979" r="13.715"/>
					<circle fill="#A4A4A4" cx="94.058" cy="48.987" r="13.714"/>
					<circle fill="#A5A5A5" cx="94.065" cy="48.996" r="13.712"/>
					<circle fill="#A6A6A6" cx="94.073" cy="49.004" r="13.71"/>
					<circle fill="#A7A7A7" cx="94.081" cy="49.013" r="13.709"/>
					<circle fill="#A8A8A8" cx="94.088" cy="49.021" r="13.708"/>
					<circle fill="#A9A9A8" cx="94.096" cy="49.03" r="13.707"/>
					<circle fill="#AAAAA9" cx="94.103" cy="49.039" r="13.705"/>
					<circle fill="#ABABAA" cx="94.111" cy="49.048" r="13.704"/>
					<circle fill="#ACACAB" cx="94.118" cy="49.057" r="13.703"/>
					<circle fill="#ACACAC" cx="94.126" cy="49.065" r="13.701"/>
					<circle fill="#ADADAD" cx="94.133" cy="49.074" r="13.7"/>
					<circle fill="#AEAEAE" cx="94.141" cy="49.083" r="13.699"/>
					<circle fill="#AFAFAF" cx="94.148" cy="49.092" r="13.697"/>
					<circle fill="#B0B0B0" cx="94.156" cy="49.1" r="13.696"/>
					<circle fill="#B1B1B1" cx="94.163" cy="49.108" r="13.694"/>
					<circle fill="#B2B2B1" cx="94.171" cy="49.117" r="13.693"/>
					<circle fill="#B3B3B2" cx="94.179" cy="49.126" r="13.691"/>
					<circle fill="#B4B4B3" cx="94.186" cy="49.135" r="13.69"/>
					<circle fill="#B4B4B4" cx="94.193" cy="49.144" r="13.689"/>
					<circle fill="#B5B5B5" cx="94.201" cy="49.152" r="13.688"/>
					<circle fill="#B6B6B6" cx="94.208" cy="49.161" r="13.687"/>
					<circle fill="#B7B7B7" cx="94.216" cy="49.169" r="13.685"/>
					<circle fill="#B8B8B8" cx="94.224" cy="49.179" r="13.684"/>
					<circle fill="#B9B9B9" cx="94.231" cy="49.187" r="13.682"/>
					<circle fill="#BABABA" cx="94.239" cy="49.196" r="13.681"/>
					<circle fill="#BBBBBA" cx="94.247" cy="49.204" r="13.68"/>
					<circle fill="#BCBCBB" cx="94.254" cy="49.213" r="13.679"/>
					<circle fill="#BCBCBC" cx="94.262" cy="49.222" r="13.677"/>
					<circle fill="#BDBDBD" cx="94.27" cy="49.23" r="13.676"/>
					<circle fill="#BEBEBE" cx="94.277" cy="49.239" r="13.674"/>
					<circle fill="#BFBFBF" cx="94.284" cy="49.248" r="13.673"/>
					<circle fill="#C0C0C0" cx="94.292" cy="49.256" r="13.671"/>
					<circle fill="#C1C1C1" cx="94.299" cy="49.265" r="13.67"/>
					<circle fill="#C2C2C2" cx="94.307" cy="49.274" r="13.668"/>
					<circle fill="#C3C3C2" cx="94.314" cy="49.283" r="13.667"/>
					<circle fill="#C3C3C3" cx="94.322" cy="49.291" r="13.666"/>
					<circle fill="#C4C4C4" cx="94.33" cy="49.3" r="13.665"/>
					<circle fill="#C5C5C5" cx="94.337" cy="49.309" r="13.664"/>
					<circle fill="#C6C6C6" cx="94.345" cy="49.318" r="13.662"/>
					<circle fill="#C7C7C7" cx="94.352" cy="49.326" r="13.66"/>
					<circle fill="#C8C8C8" cx="94.36" cy="49.335" r="13.659"/>
					<circle fill="#C9C9C9" cx="94.367" cy="49.344" r="13.658"/>
					<circle fill="#CACACA" cx="94.375" cy="49.353" r="13.656"/>
					<circle fill="#CBCBCB" cx="94.382" cy="49.361" r="13.655"/>
					<circle fill="#CBCBCB" cx="94.39" cy="49.37" r="13.654"/>
					<circle fill="#CCCCCC" cx="94.397" cy="49.378" r="13.652"/>
					<circle fill="#CDCDCD" cx="94.405" cy="49.387" r="13.651"/>
					<circle fill="#CECECE" cx="94.413" cy="49.396" r="13.65"/>
					<circle fill="#CFCFCF" cx="94.42" cy="49.404" r="13.647"/>
					<circle opacity="0.995" fill="#CFCFCF" cx="94.426" cy="49.412" r="13.648"/>
					<circle opacity="0.9901" fill="#CFCFCF" cx="94.433" cy="49.42" r="13.648"/>
					<circle opacity="0.9851" fill="#D0D0D0" cx="94.439" cy="49.428" r="13.649"/>
					<circle opacity="0.9801" fill="#D0D0D0" cx="94.446" cy="49.436" r="13.648"/>
					<circle opacity="0.9751" fill="#D0D0D0" cx="94.453" cy="49.444" r="13.648"/>
					<circle opacity="0.9701" fill="#D0D0D0" cx="94.459" cy="49.452" r="13.648"/>
					<circle opacity="0.9652" fill="#D1D1D1" cx="94.466" cy="49.459" r="13.648"/>
					<circle opacity="0.9602" fill="#D1D1D1" cx="94.472" cy="49.467" r="13.649"/>
					<circle opacity="0.9552" fill="#D1D1D1" cx="94.478" cy="49.475" r="13.648"/>
					<circle opacity="0.9502" fill="#D1D1D1" cx="94.485" cy="49.483" r="13.649"/>
					<circle opacity="0.9453" fill="#D2D2D2" cx="94.491" cy="49.491" r="13.648"/>
					<circle opacity="0.9403" fill="#D2D2D2" cx="94.498" cy="49.498" r="13.648"/>
					<circle opacity="0.9353" fill="#D2D2D2" cx="94.505" cy="49.507" r="13.648"/>
					<circle opacity="0.9303" fill="#D2D2D2" cx="94.511" cy="49.515" r="13.648"/>
					<circle opacity="0.9254" fill="#D3D3D3" cx="94.518" cy="49.522" r="13.648"/>
					<circle opacity="0.9204" fill="#D3D3D3" cx="94.524" cy="49.53" r="13.648"/>
					<circle opacity="0.9154" fill="#D3D3D3" cx="94.53" cy="49.538" r="13.648"/>
					<circle opacity="0.9104" fill="#D3D3D3" cx="94.537" cy="49.546" r="13.648"/>
					<circle opacity="0.9055" fill="#D4D4D4" cx="94.543" cy="49.554" r="13.648"/>
					<circle opacity="0.9005" fill="#D4D4D4" cx="94.55" cy="49.562" r="13.648"/>
					<circle opacity="0.8955" fill="#D4D4D4" cx="94.557" cy="49.569" r="13.648"/>
					<circle opacity="0.8905" fill="#D4D4D4" cx="94.563" cy="49.577" r="13.648"/>
					<circle opacity="0.8856" fill="#D4D4D4" cx="94.57" cy="49.585" r="13.648"/>
					<circle opacity="0.8806" fill="#D5D5D5" cx="94.576" cy="49.593" r="13.648"/>
					<circle opacity="0.8756" fill="#D5D5D5" cx="94.583" cy="49.601" r="13.648"/>
					<circle opacity="0.8706" fill="#D5D5D5" cx="94.589" cy="49.609" r="13.648"/>
					<circle opacity="0.8657" fill="#D5D5D5" cx="94.596" cy="49.616" r="13.648"/>
					<circle opacity="0.8607" fill="#D6D6D6" cx="94.602" cy="49.624" r="13.648"/>
					<circle opacity="0.8557" fill="#D6D6D6" cx="94.609" cy="49.633" r="13.648"/>
					<circle opacity="0.8507" fill="#D6D6D6" cx="94.615" cy="49.64" r="13.648"/>
					<circle opacity="0.8458" fill="#D6D6D6" cx="94.622" cy="49.648" r="13.648"/>
					<circle opacity="0.8408" fill="#D7D7D7" cx="94.628" cy="49.655" r="13.648"/>
					<circle opacity="0.8358" fill="#D7D7D7" cx="94.635" cy="49.664" r="13.648"/>
					<circle opacity="0.8308" fill="#D7D7D7" cx="94.642" cy="49.672" r="13.648"/>
					<circle opacity="0.8259" fill="#D7D7D7" cx="94.648" cy="49.679" r="13.648"/>
					<circle opacity="0.8209" fill="#D8D8D8" cx="94.654" cy="49.688" r="13.648"/>
					<circle opacity="0.8159" fill="#D8D8D8" cx="94.661" cy="49.695" r="13.648"/>
					<circle opacity="0.8109" fill="#D8D8D8" cx="94.668" cy="49.703" r="13.648"/>
					<circle opacity="0.806" fill="#D8D8D8" cx="94.674" cy="49.711" r="13.648"/>
					<circle opacity="0.801" fill="#D9D9D9" cx="94.681" cy="49.718" r="13.648"/>
					<circle opacity="0.796" fill="#D9D9D9" cx="94.687" cy="49.727" r="13.648"/>
					<circle opacity="0.791" fill="#D9D9D9" cx="94.694" cy="49.734" r="13.648"/>
					<circle opacity="0.7861" fill="#D9D9D9" cx="94.7" cy="49.742" r="13.648"/>
					<circle opacity="0.7811" fill="#DADADA" cx="94.707" cy="49.75" r="13.648"/>
					<circle opacity="0.7761" fill="#DADADA" cx="94.713" cy="49.758" r="13.648"/>
					<circle opacity="0.7711" fill="#DADADA" cx="94.72" cy="49.766" r="13.648"/>
					<circle opacity="0.7662" fill="#DADADA" cx="94.727" cy="49.773" r="13.648"/>
					<circle opacity="0.7612" fill="#DADADA" cx="94.733" cy="49.781" r="13.648"/>
					<circle opacity="0.7562" fill="#DBDBDB" cx="94.739" cy="49.789" r="13.648"/>
					<circle opacity="0.7512" fill="#DBDBDB" cx="94.746" cy="49.797" r="13.648"/>
					<circle opacity="0.7463" fill="#DBDBDB" cx="94.752" cy="49.805" r="13.648"/>
					<circle opacity="0.7413" fill="#DBDBDB" cx="94.758" cy="49.813" r="13.648"/>
					<circle opacity="0.7363" fill="#DCDCDC" cx="94.765" cy="49.82" r="13.648"/>
					<circle opacity="0.7313" fill="#DCDCDC" cx="94.771" cy="49.829" r="13.648"/>
					<circle opacity="0.7264" fill="#DCDCDC" cx="94.778" cy="49.836" r="13.648"/>
					<circle opacity="0.7214" fill="#DCDCDC" cx="94.784" cy="49.844" r="13.648"/>
					<circle opacity="0.7164" fill="#DDDDDD" cx="94.791" cy="49.852" r="13.648"/>
					<circle opacity="0.7114" fill="#DDDDDD" cx="94.798" cy="49.86" r="13.648"/>
					<circle opacity="0.7065" fill="#DDDDDD" cx="94.804" cy="49.868" r="13.648"/>
					<circle opacity="0.7015" fill="#DDDDDD" cx="94.811" cy="49.875" r="13.648"/>
					<circle opacity="0.6965" fill="#DEDEDE" cx="94.817" cy="49.883" r="13.648"/>
					<circle opacity="0.6915" fill="#DEDEDE" cx="94.824" cy="49.891" r="13.648"/>
					<circle opacity="0.6866" fill="#DEDEDE" cx="94.83" cy="49.899" r="13.648"/>
					<circle opacity="0.6816" fill="#DEDEDE" cx="94.837" cy="49.907" r="13.648"/>
					<circle opacity="0.6766" fill="#DFDFDF" cx="94.844" cy="49.915" r="13.648"/>
					<circle opacity="0.6716" fill="#DFDFDF" cx="94.85" cy="49.923" r="13.648"/>
					<circle opacity="0.6667" fill="#DFDFDF" cx="94.856" cy="49.931" r="13.648"/>
					<circle opacity="0.6617" fill="#DFDFDF" cx="94.863" cy="49.938" r="13.648"/>
					<circle opacity="0.6567" fill="#DFDFDF" cx="94.87" cy="49.946" r="13.648"/>
					<circle opacity="0.6517" fill="#E0E0E0" cx="94.876" cy="49.955" r="13.648"/>
					<circle opacity="0.6468" fill="#E0E0E0" cx="94.883" cy="49.962" r="13.648"/>
					<circle opacity="0.6418" fill="#E0E0E0" cx="94.889" cy="49.97" r="13.648"/>
					<circle opacity="0.6368" fill="#E0E0E0" cx="94.896" cy="49.978" r="13.648"/>
					<circle opacity="0.6318" fill="#E1E1E1" cx="94.902" cy="49.986" r="13.648"/>
					<circle opacity="0.6269" fill="#E1E1E1" cx="94.909" cy="49.994" r="13.648"/>
					<circle opacity="0.6219" fill="#E1E1E1" cx="94.915" cy="50.001" r="13.647"/>
					<circle opacity="0.6169" fill="#E1E1E1" cx="94.922" cy="50.009" r="13.648"/>
					<circle opacity="0.6119" fill="#E2E2E2" cx="94.929" cy="50.017" r="13.648"/>
					<circle opacity="0.607" fill="#E2E2E2" cx="94.935" cy="50.025" r="13.648"/>
					<circle opacity="0.602" fill="#E2E2E2" cx="94.941" cy="50.033" r="13.648"/>
					<circle opacity="0.597" fill="#E2E2E2" cx="94.948" cy="50.041" r="13.648"/>
					<circle opacity="0.592" fill="#E3E3E3" cx="94.955" cy="50.049" r="13.648"/>
					<circle opacity="0.5871" fill="#E3E3E3" cx="94.961" cy="50.056" r="13.648"/>
					<circle opacity="0.5821" fill="#E3E3E3" cx="94.967" cy="50.064" r="13.648"/>
					<circle opacity="0.5771" fill="#E3E3E3" cx="94.974" cy="50.072" r="13.648"/>
					<circle opacity="0.5721" fill="#E4E4E4" cx="94.98" cy="50.081" r="13.648"/>
					<circle opacity="0.5672" fill="#E4E4E4" cx="94.986" cy="50.088" r="13.648"/>
					<circle opacity="0.5622" fill="#E4E4E4" cx="94.993" cy="50.095" r="13.648"/>
					<circle opacity="0.5572" fill="#E4E4E4" cx="95" cy="50.104" r="13.648"/>
					<circle opacity="0.5522" fill="#E4E4E4" cx="95.006" cy="50.112" r="13.648"/>
					<circle opacity="0.5473" fill="#E5E5E5" cx="95.013" cy="50.119" r="13.648"/>
					<circle opacity="0.5423" fill="#E5E5E5" cx="95.019" cy="50.126" r="13.648"/>
					<circle opacity="0.5373" fill="#E5E5E5" cx="95.025" cy="50.135" r="13.648"/>
					<circle opacity="0.5323" fill="#E5E5E5" cx="95.032" cy="50.143" r="13.648"/>
					<circle opacity="0.5274" fill="#E6E6E6" cx="95.039" cy="50.151" r="13.648"/>
					<circle opacity="0.5224" fill="#E6E6E6" cx="95.045" cy="50.158" r="13.648"/>
					<circle opacity="0.5174" fill="#E6E6E6" cx="95.052" cy="50.167" r="13.648"/>
					<circle opacity="0.5124" fill="#E6E6E6" cx="95.059" cy="50.174" r="13.648"/>
					<circle opacity="0.5075" fill="#E7E7E7" cx="95.065" cy="50.182" r="13.648"/>
					<circle opacity="0.5025" fill="#E7E7E7" cx="95.071" cy="50.189" r="13.648"/>
					<circle opacity="0.4975" fill="#E7E7E7" cx="95.078" cy="50.198" r="13.648"/>
					<circle opacity="0.4925" fill="#E7E7E7" cx="95.084" cy="50.206" r="13.648"/>
					<circle opacity="0.4876" fill="#E8E8E8" cx="95.091" cy="50.213" r="13.648"/>
					<circle opacity="0.4826" fill="#E8E8E8" cx="95.098" cy="50.221" r="13.648"/>
					<circle opacity="0.4776" fill="#E8E8E8" cx="95.104" cy="50.229" r="13.648"/>
					<circle opacity="0.4726" fill="#E8E8E8" cx="95.111" cy="50.237" r="13.647"/>
					<circle opacity="0.4677" fill="#E9E9E9" cx="95.117" cy="50.245" r="13.647"/>
					<circle opacity="0.4627" fill="#E9E9E9" cx="95.124" cy="50.252" r="13.648"/>
					<circle opacity="0.4577" fill="#E9E9E9" cx="95.13" cy="50.261" r="13.647"/>
					<circle opacity="0.4527" fill="#E9E9E9" cx="95.137" cy="50.268" r="13.648"/>
					<circle opacity="0.4478" fill="#EAEAEA" cx="95.143" cy="50.276" r="13.647"/>
					<circle opacity="0.4428" fill="#EAEAEA" cx="95.15" cy="50.284" r="13.648"/>
					<circle opacity="0.4378" fill="#EAEAEA" cx="95.156" cy="50.292" r="13.647"/>
					<circle opacity="0.4328" fill="#EAEAEA" cx="95.162" cy="50.3" r="13.647"/>
					<circle opacity="0.4279" fill="#EAEAEA" cx="95.169" cy="50.308" r="13.648"/>
					<circle opacity="0.4229" fill="#EBEBEB" cx="95.176" cy="50.315" r="13.647"/>
					<circle opacity="0.4179" fill="#EBEBEB" cx="95.183" cy="50.323" r="13.647"/>
					<circle opacity="0.4129" fill="#EBEBEB" cx="95.188" cy="50.332" r="13.648"/>
					<circle opacity="0.408" fill="#EBEBEB" cx="95.195" cy="50.339" r="13.647"/>
					<circle opacity="0.403" fill="#ECECEC" cx="95.202" cy="50.347" r="13.648"/>
					<circle opacity="0.398" fill="#ECECEC" cx="95.208" cy="50.355" r="13.648"/>
					<circle opacity="0.393" fill="#ECECEC" cx="95.215" cy="50.363" r="13.648"/>
					<circle opacity="0.3881" fill="#ECECEC" cx="95.222" cy="50.371" r="13.648"/>
					<circle opacity="0.3831" fill="#EDEDED" cx="95.228" cy="50.378" r="13.648"/>
					<circle opacity="0.3781" fill="#EDEDED" cx="95.234" cy="50.386" r="13.648"/>
					<circle opacity="0.3731" fill="#EDEDED" cx="95.241" cy="50.394" r="13.648"/>
					<circle opacity="0.3682" fill="#EDEDED" cx="95.247" cy="50.402" r="13.648"/>
					<circle opacity="0.3632" fill="#EEEEEE" cx="95.254" cy="50.41" r="13.648"/>
					<circle opacity="0.3582" fill="#EEEEEE" cx="95.261" cy="50.417" r="13.648"/>
					<circle opacity="0.3532" fill="#EEEEEE" cx="95.267" cy="50.425" r="13.648"/>
					<circle opacity="0.3483" fill="#EEEEEE" cx="95.273" cy="50.433" r="13.648"/>
					<circle opacity="0.3433" fill="#EFEFEF" cx="95.28" cy="50.441" r="13.648"/>
					<circle opacity="0.3383" fill="#EFEFEF" cx="95.286" cy="50.449" r="13.647"/>
					<circle opacity="0.3333" fill="#EFEFEF" cx="95.293" cy="50.457" r="13.648"/>
					<circle opacity="0.3284" fill="#EFEFEF" cx="95.3" cy="50.465" r="13.648"/>
					<circle opacity="0.3234" fill="#EFEFEF" cx="95.306" cy="50.472" r="13.648"/>
					<circle opacity="0.3184" fill="#F0F0F0" cx="95.313" cy="50.481" r="13.648"/>
					<circle opacity="0.3134" fill="#F0F0F0" cx="95.319" cy="50.489" r="13.648"/>
					<circle opacity="0.3085" fill="#F0F0F0" cx="95.325" cy="50.497" r="13.648"/>
					<circle opacity="0.3035" fill="#F0F0F0" cx="95.332" cy="50.504" r="13.648"/>
					<circle opacity="0.2985" fill="#F1F1F1" cx="95.338" cy="50.512" r="13.648"/>
					<circle opacity="0.2935" fill="#F1F1F1" cx="95.345" cy="50.52" r="13.648"/>
					<circle opacity="0.2886" fill="#F1F1F1" cx="95.352" cy="50.528" r="13.648"/>
					<circle opacity="0.2836" fill="#F1F1F1" cx="95.358" cy="50.536" r="13.648"/>
					<circle opacity="0.2786" fill="#F2F2F2" cx="95.365" cy="50.544" r="13.647"/>
					<circle opacity="0.2736" fill="#F2F2F2" cx="95.371" cy="50.551" r="13.648"/>
					<circle opacity="0.2687" fill="#F2F2F2" cx="95.377" cy="50.56" r="13.647"/>
					<circle opacity="0.2637" fill="#F2F2F2" cx="95.384" cy="50.567" r="13.648"/>
					<circle opacity="0.2587" fill="#F3F3F3" cx="95.391" cy="50.575" r="13.647"/>
					<circle opacity="0.2537" fill="#F3F3F3" cx="95.397" cy="50.583" r="13.648"/>
					<circle opacity="0.2488" fill="#F3F3F3" cx="95.404" cy="50.591" r="13.647"/>
					<circle opacity="0.2438" fill="#F3F3F3" cx="95.41" cy="50.599" r="13.647"/>
					<circle opacity="0.2388" fill="#F4F4F4" cx="95.417" cy="50.606" r="13.647"/>
					<circle opacity="0.2338" fill="#F4F4F4" cx="95.423" cy="50.614" r="13.647"/>
					<circle opacity="0.2289" fill="#F4F4F4" cx="95.43" cy="50.622" r="13.647"/>
					<circle opacity="0.2239" fill="#F4F4F4" cx="95.437" cy="50.63" r="13.647"/>
					<circle opacity="0.2189" fill="#F4F4F4" cx="95.443" cy="50.638" r="13.647"/>
					<circle opacity="0.2139" fill="#F5F5F5" cx="95.449" cy="50.646" r="13.647"/>
					<circle opacity="0.209" fill="#F5F5F5" cx="95.456" cy="50.653" r="13.647"/>
					<circle opacity="0.204" fill="#F5F5F5" cx="95.462" cy="50.661" r="13.647"/>
					<circle opacity="0.199" fill="#F5F5F5" cx="95.469" cy="50.669" r="13.647"/>
					<circle opacity="0.194" fill="#F6F6F6" cx="95.476" cy="50.677" r="13.647"/>
					<circle opacity="0.1891" fill="#F6F6F6" cx="95.482" cy="50.685" r="13.648"/>
					<circle opacity="0.1841" fill="#F6F6F6" cx="95.489" cy="50.693" r="13.648"/>
					<circle opacity="0.1791" fill="#F6F6F6" cx="95.495" cy="50.7" r="13.647"/>
					<circle opacity="0.1741" fill="#F7F7F7" cx="95.501" cy="50.708" r="13.648"/>
					<circle opacity="0.1692" fill="#F7F7F7" cx="95.508" cy="50.716" r="13.648"/>
					<circle opacity="0.1642" fill="#F7F7F7" cx="95.515" cy="50.724" r="13.647"/>
					<circle opacity="0.1592" fill="#F7F7F7" cx="95.521" cy="50.732" r="13.648"/>
					<circle opacity="0.1542" fill="#F8F8F8" cx="95.527" cy="50.74" r="13.648"/>
					<circle opacity="0.1493" fill="#F8F8F8" cx="95.534" cy="50.748" r="13.647"/>
					<circle opacity="0.1443" fill="#F8F8F8" cx="95.54" cy="50.755" r="13.648"/>
					<circle opacity="0.1393" fill="#F8F8F8" cx="95.547" cy="50.764" r="13.647"/>
					<circle opacity="0.1343" fill="#F9F9F9" cx="95.554" cy="50.771" r="13.648"/>
					<circle opacity="0.1294" fill="#F9F9F9" cx="95.561" cy="50.779" r="13.647"/>
					<circle opacity="0.1244" fill="#F9F9F9" cx="95.566" cy="50.787" r="13.647"/>
					<circle opacity="0.1194" fill="#F9F9F9" cx="95.573" cy="50.795" r="13.647"/>
					<circle opacity="0.1144" fill="#FAFAFA" cx="95.58" cy="50.803" r="13.647"/>
					<circle opacity="0.1095" fill="#FAFAFA" cx="95.586" cy="50.811" r="13.647"/>
					<circle opacity="0.1045" fill="#FAFAFA" cx="95.592" cy="50.818" r="13.647"/>
					<circle opacity="0.0995" fill="#FAFAFA" cx="95.599" cy="50.826" r="13.647"/>
					<circle opacity="0.0945" fill="#FAFAFA" cx="95.605" cy="50.834" r="13.647"/>
					<circle opacity="0.0896" fill="#FBFBFB" cx="95.612" cy="50.842" r="13.648"/>
					<circle opacity="0.0846" fill="#FBFBFB" cx="95.619" cy="50.85" r="13.647"/>
					<circle opacity="0.0796" fill="#FBFBFB" cx="95.625" cy="50.857" r="13.647"/>
					<circle opacity="0.0746" fill="#FBFBFB" cx="95.632" cy="50.866" r="13.648"/>
					<circle opacity="0.0697" fill="#FCFCFC" cx="95.638" cy="50.873" r="13.647"/>
					<circle opacity="0.0647" fill="#FCFCFC" cx="95.645" cy="50.881" r="13.647"/>
					<path opacity="0.0597" fill="#FCFCFC" d="M95.651,37.241c7.538,0,13.647,6.112,13.647,13.646
						c0,7.539-6.109,13.649-13.647,13.649c-7.537,0-13.647-6.11-13.647-13.649C82.004,43.354,88.114,37.241,95.651,37.241z"/>
					<circle opacity="0.0547" fill="#FCFCFC" cx="95.658" cy="50.897" r="13.647"/>
					<circle opacity="0.0498" fill="#FDFDFD" cx="95.664" cy="50.905" r="13.648"/>
					<circle opacity="0.0448" fill="#FDFDFD" cx="95.671" cy="50.913" r="13.648"/>
					<circle opacity="0.0398" fill="#FDFDFD" cx="95.677" cy="50.92" r="13.647"/>
					<path opacity="0.0348" fill="#FDFDFD" d="M95.684,37.281c7.539,0,13.647,6.111,13.647,13.646
						c0,7.539-6.109,13.649-13.647,13.649c-7.537,0-13.647-6.11-13.647-13.649C82.037,43.393,88.147,37.281,95.684,37.281z"/>
					<circle opacity="0.0299" fill="#FEFEFE" cx="95.69" cy="50.936" r="13.648"/>
					<circle opacity="0.0249" fill="#FEFEFE" cx="95.697" cy="50.944" r="13.647"/>
					<circle opacity="0.0199" fill="#FEFEFE" cx="95.704" cy="50.952" r="13.647"/>
					<circle opacity="0.0149" fill="#FEFEFE" cx="95.71" cy="50.96" r="13.647"/>
					<circle opacity="0.0099" fill="#FFFFFF" cx="95.716" cy="50.967" r="13.648"/>
					<circle opacity="0.005" fill="#FFFFFF" cx="95.723" cy="50.976" r="13.647"/>
					<circle opacity="0" fill="#FFFFFF" cx="95.729" cy="50.982" r="13.647"/>
				</g>
			</g>
		</g>
		<g>
			<path fill="#1D1D1B" d="M169.064,35.66c0-0.449-0.31-0.695-0.854-0.695h-0.724v2.254h0.538v-0.875l0.631,0.875h0.657l-0.741-0.93
				C168.89,36.203,169.064,35.973,169.064,35.66z M168.116,35.967h-0.091v-0.588h0.097c0.267,0,0.404,0.094,0.404,0.289
				C168.526,35.867,168.387,35.967,168.116,35.967z"/>
			<path fill="#1D1D1B" d="M168.319,34.123c-1.094,0-1.963,0.873-1.963,1.965s0.878,1.967,1.963,1.967
				c1.067,0,1.94-0.885,1.94-1.967C170.26,35.012,169.387,34.123,168.319,34.123z M168.312,37.701c-0.861,0-1.565-0.717-1.565-1.611
				c0-0.896,0.696-1.613,1.565-1.613c0.858,0,1.557,0.732,1.557,1.613C169.868,36.979,169.17,37.701,168.312,37.701z"/>
		</g>
	</g>
</g>
</svg>
