<?xml version="1.0" encoding="utf-8"?>
<!-- Generator: Adobe Illustrator 16.0.3, SVG Export Plug-In . SVG Version: 6.00 Build 0)  -->
<!DOCTYPE svg PUBLIC "-//W3C//DTD SVG 1.1//EN" "http://www.w3.org/Graphics/SVG/1.1/DTD/svg11.dtd">
<svg version="1.1" id="acceptance" xmlns="http://www.w3.org/2000/svg" xmlns:xlink="http://www.w3.org/1999/xlink" x="0px" y="0px"
	 width="179.242px" height="113.387px" viewBox="0 0 179.242 113.387" enable-background="new 0 0 179.242 113.387"
	 xml:space="preserve">
<g id="mastercard">
	<g>
		<rect x="0" fill="#11306E" width="179.243" height="113.387"/>
		<g>
			<g>
				<g>
					<circle fill="#E30613" cx="56.693" cy="56.693" r="49.063"/>
					<g>
						<path fill="#F7A600" d="M122.564,7.63c-12.68,0-24.23,4.81-32.938,12.699c-1.771,1.608-3.425,3.346-4.951,5.194h9.912
							c1.354,1.649,2.602,3.382,3.741,5.197H80.933c-1.04,1.667-1.987,3.399-2.826,5.195h23.046
							c0.788,1.682,1.481,3.414,2.078,5.194H76.028c-0.567,1.691-1.044,3.426-1.425,5.193h30.051
							c0.719,3.35,1.102,6.825,1.102,10.39c0,5.447-0.887,10.689-2.526,15.586H76.028c0.596,1.779,1.291,3.513,2.076,5.197h23.048
							c-0.842,1.791-1.784,3.525-2.83,5.195h-17.39c1.135,1.81,2.385,3.545,3.742,5.191h9.909c-1.523,1.851-3.179,3.588-4.955,5.195
							c8.708,7.891,20.256,12.697,32.936,12.697c27.096,0,49.062-21.965,49.062-49.063C171.626,29.599,149.661,7.63,122.564,7.63z"
							/>
					</g>
				</g>
				<path fill="#FFFFFF" d="M165.087,84.043c0-0.876,0.71-1.584,1.585-1.584c0.877,0,1.584,0.708,1.584,1.584
					c0,0.875-0.707,1.585-1.584,1.585C165.798,85.628,165.087,84.918,165.087,84.043z M166.673,85.248
					c0.664,0,1.204-0.541,1.204-1.205c0-0.668-0.541-1.204-1.204-1.204c-0.666,0-1.205,0.536-1.205,1.204
					C165.468,84.707,166.007,85.248,166.673,85.248z M166.458,84.737h-0.326v-1.39h0.591c0.121,0,0.247,0,0.355,0.066
					c0.111,0.079,0.176,0.212,0.176,0.35c0,0.158-0.091,0.305-0.242,0.36l0.257,0.613h-0.36l-0.213-0.55h-0.238V84.737z
					 M166.458,83.949h0.18c0.066,0,0.138,0.004,0.198-0.027c0.053-0.035,0.082-0.098,0.082-0.161c0-0.053-0.037-0.115-0.081-0.143
					c-0.058-0.033-0.147-0.025-0.208-0.025h-0.172V83.949z"/>
			</g>
			<g>
				<g>
					<path fill="#11306E" d="M45.237,62.064c-0.559-0.063-0.806-0.083-1.189-0.083c-3.019,0-4.545,1.036-4.545,3.082
						c0,1.26,0.745,2.061,1.908,2.061C43.581,67.124,45.145,65.059,45.237,62.064z M49.112,71.083c-0.71,0-4.415,0-4.415,0
						l0.102-2.098c-1.346,1.657-3.143,2.447-5.583,2.447c-2.886,0-4.866-2.253-4.866-5.527c0-4.93,3.442-7.804,9.351-7.804
						c0.605,0,1.379,0.057,2.171,0.156c0.165-0.668,0.208-0.953,0.208-1.313c0-1.338-0.928-1.841-3.416-1.841
						c-2.606-0.027-4.755,0.622-5.639,0.911c0.056-0.336,0.739-4.551,0.739-4.551c2.653-0.781,4.404-1.071,6.374-1.071
						c4.575,0,6.998,2.053,6.993,5.935c0.009,1.04-0.164,2.321-0.432,4.01C50.239,63.268,49.247,69.554,49.112,71.083z"/>
					<polygon fill="#11306E" points="32.122,71.083 26.794,71.083 29.848,51.953 23.033,71.083 19.404,71.083 18.955,52.061 
						15.748,71.083 10.762,71.083 14.927,46.197 22.586,46.197 23.05,60.126 27.722,46.197 36.241,46.197 					"/>
					<path fill="#11306E" d="M129.146,62.064c-0.559-0.063-0.802-0.083-1.186-0.083c-3.021,0-4.546,1.036-4.546,3.082
						c0,1.26,0.742,2.061,1.908,2.061C127.491,67.124,129.055,65.059,129.146,62.064z M133.022,71.083c-0.712,0-4.413,0-4.413,0
						l0.1-2.098c-1.346,1.657-3.142,2.447-5.58,2.447c-2.89,0-4.867-2.253-4.867-5.527c0-4.93,3.443-7.804,9.351-7.804
						c0.604,0,1.376,0.057,2.17,0.156c0.165-0.668,0.208-0.953,0.208-1.313c0-1.338-0.927-1.841-3.415-1.841
						c-2.606-0.027-4.755,0.622-5.641,0.911c0.059-0.336,0.743-4.551,0.743-4.551c2.652-0.781,4.404-1.071,6.371-1.071
						c4.578,0,6.998,2.053,6.993,5.935c0.009,1.04-0.162,2.321-0.432,4.01C134.151,63.268,133.156,69.554,133.022,71.083z"/>
					<path fill="#11306E" d="M72.783,70.775c-1.458,0.459-2.595,0.657-3.827,0.657c-2.723,0-4.209-1.564-4.209-4.446
						c-0.038-0.895,0.391-3.248,0.73-5.394c0.308-1.892,2.31-13.812,2.31-13.812h5.293l-0.617,3.063h3.197l-0.721,4.865h-3.21
						c-0.615,3.848-1.492,8.643-1.501,9.278c0,1.044,0.557,1.499,1.824,1.499c0.607,0,1.077-0.062,1.436-0.19L72.783,70.775z"/>
					<path fill="#11306E" d="M89.017,70.611c-1.82,0.557-3.573,0.827-5.432,0.821c-5.928-0.008-9.017-3.102-9.017-9.028
						c0-6.918,3.929-12.012,9.266-12.012c4.364,0,7.153,2.852,7.153,7.321c0,1.487-0.19,2.935-0.654,4.979H79.79
						c-0.356,2.937,1.522,4.158,4.604,4.158c1.893,0,3.603-0.391,5.503-1.271L89.017,70.611z M86.04,58.613
						C86.071,58.191,86.601,55,83.575,55c-1.686,0-2.892,1.286-3.381,3.613H86.04z"/>
					<path fill="#11306E" d="M52.306,57.243c0,2.558,1.241,4.323,4.056,5.65c2.156,1.015,2.492,1.314,2.492,2.233
						c0,1.26-0.953,1.832-3.059,1.832c-1.59,0-3.068-0.25-4.773-0.801c0,0-0.698,4.463-0.731,4.676
						c1.21,0.263,2.29,0.506,5.542,0.599c5.62,0,8.216-2.14,8.216-6.765c0-2.78-1.085-4.413-3.755-5.641
						c-2.232-1.024-2.49-1.254-2.49-2.197c0-1.096,0.887-1.654,2.607-1.654c1.046,0,2.474,0.112,3.829,0.303l0.757-4.692
						c-1.379-0.22-3.47-0.394-4.688-0.394C54.35,50.393,52.287,53.504,52.306,57.243z"/>
					<path fill="#11306E" d="M114.921,50.927c1.479,0,2.861,0.385,4.76,1.343l0.872-5.401c-0.783-0.306-3.528-2.106-5.854-2.106
						c-3.563,0-6.58,1.771-8.697,4.687c-3.092-1.021-4.364,1.047-5.921,3.108l-1.384,0.322c0.104-0.679,0.2-1.353,0.169-2.035
						h-4.895c-0.666,6.266-1.851,12.609-2.777,18.878l-0.242,1.361h5.329c0.889-5.779,1.375-9.479,1.672-11.984l2.006-1.112
						c0.301-1.117,1.237-1.493,3.12-1.446c-0.245,1.319-0.378,2.71-0.378,4.148c0,6.622,3.577,10.744,9.309,10.744
						c1.477,0,2.746-0.194,4.709-0.729l0.933-5.671c-1.766,0.867-3.212,1.276-4.523,1.276c-3.097,0-4.97-2.287-4.97-6.063
						C108.158,54.766,110.943,50.927,114.921,50.927z"/>
					<path fill="#11306E" d="M160.018,46.197l-1.185,7.188c-1.454-1.915-3.018-3.303-5.083-3.303c-2.688,0-5.134,2.037-6.736,5.038
						c-2.231-0.463-4.536-1.25-4.536-1.25l-0.001,0.02c0.177-1.677,0.253-2.697,0.235-3.047h-4.893
						c-0.665,6.266-1.851,12.609-2.776,18.878l-0.245,1.361h5.331c0.719-4.671,1.269-8.554,1.675-11.629
						c1.822-1.646,2.733-3.079,4.57-2.985c-0.815,1.971-1.29,4.239-1.29,6.566c0,5.059,2.558,8.397,6.431,8.397
						c1.952,0,3.45-0.674,4.911-2.233l-0.251,1.882h5.04l4.057-24.884H160.018z M153.355,66.408c-1.813,0-2.73-1.345-2.73-3.99
						c0-3.979,1.716-6.798,4.131-6.798c1.831,0,2.823,1.392,2.823,3.963C157.579,63.596,155.835,66.408,153.355,66.408z"/>
				</g>
				<g>
					<polygon fill="#FFFFFF" points="33.654,69.606 28.328,69.606 31.38,50.477 24.567,69.606 20.937,69.606 20.488,50.588 
						17.281,69.606 12.295,69.606 16.46,44.723 24.12,44.723 24.333,60.126 29.501,44.723 37.773,44.723 					"/>
					<path fill="#FFFFFF" d="M46.771,60.592c-0.558-0.065-0.805-0.084-1.189-0.084c-3.019,0-4.547,1.034-4.547,3.079
						c0,1.258,0.746,2.063,1.91,2.063C45.115,65.65,46.678,63.585,46.771,60.592z M50.644,69.606c-0.709,0-4.413,0-4.413,0
						l0.101-2.096c-1.346,1.655-3.142,2.447-5.582,2.447c-2.887,0-4.865-2.257-4.865-5.531c0-4.929,3.442-7.8,9.351-7.8
						c0.604,0,1.378,0.056,2.17,0.157c0.166-0.669,0.208-0.954,0.208-1.316c0-1.338-0.928-1.837-3.416-1.837
						c-2.607-0.031-4.755,0.618-5.639,0.907c0.056-0.336,0.739-4.55,0.739-4.55c2.654-0.779,4.405-1.072,6.375-1.072
						c4.574,0,6.997,2.055,6.992,5.935c0.009,1.04-0.163,2.326-0.431,4.01C51.772,61.789,50.78,68.078,50.644,69.606z"/>
					<path fill="#FFFFFF" d="M122.086,45.392l-0.873,5.4c-1.902-0.956-3.28-1.344-4.758-1.344c-3.977,0-6.766,3.844-6.766,9.326
						c0,3.776,1.875,6.059,4.972,6.059c1.311,0,2.76-0.406,4.523-1.276l-0.936,5.671c-1.961,0.535-3.23,0.73-4.707,0.73
						c-5.735,0-9.308-4.124-9.308-10.745c0-8.896,4.938-15.113,11.997-15.113C118.557,44.1,121.304,45.084,122.086,45.392z"/>
					<path fill="#FFFFFF" d="M130.678,60.592c-0.556-0.065-0.803-0.084-1.186-0.084c-3.018,0-4.546,1.034-4.546,3.079
						c0,1.258,0.745,2.063,1.908,2.063C129.023,65.65,130.589,63.585,130.678,60.592z M134.555,69.606c-0.709,0-4.413,0-4.413,0
						l0.1-2.096c-1.346,1.655-3.143,2.447-5.581,2.447c-2.889,0-4.866-2.257-4.866-5.531c0-4.929,3.439-7.8,9.35-7.8
						c0.604,0,1.377,0.056,2.169,0.157c0.165-0.669,0.209-0.954,0.209-1.316c0-1.338-0.925-1.837-3.415-1.837
						c-2.604-0.031-4.752,0.618-5.638,0.907c0.056-0.336,0.739-4.55,0.739-4.55c2.655-0.779,4.404-1.072,6.374-1.072
						c4.573,0,6.998,2.055,6.992,5.935c0.011,1.04-0.162,2.326-0.43,4.01C135.683,61.789,134.691,68.078,134.555,69.606z"/>
					<path fill="#FFFFFF" d="M74.316,69.299c-1.457,0.459-2.594,0.659-3.826,0.659c-2.723,0-4.21-1.566-4.21-4.445
						c-0.037-0.897,0.393-3.246,0.731-5.396c0.307-1.893,2.31-13.811,2.31-13.811h5.294l-0.619,3.062h2.718l-0.723,4.863h-2.728
						c-0.615,3.853-1.492,8.644-1.502,9.279c0,1.047,0.558,1.499,1.825,1.499c0.606,0,1.077-0.059,1.437-0.19L74.316,69.299z"/>
					<path fill="#FFFFFF" d="M90.551,69.139c-1.819,0.557-3.577,0.82-5.434,0.819c-5.928-0.005-9.017-3.102-9.017-9.029
						c0-6.92,3.93-12.013,9.263-12.013c4.369,0,7.156,2.852,7.156,7.326c0,1.484-0.194,2.932-0.651,4.977H81.324
						c-0.358,2.936,1.522,4.161,4.601,4.161c1.895,0,3.605-0.393,5.507-1.276L90.551,69.139z M87.575,57.137
						c0.029-0.424,0.561-3.613-2.464-3.613c-1.686,0-2.892,1.289-3.383,3.613H87.575z"/>
					<path fill="#FFFFFF" d="M53.839,55.767c0,2.563,1.242,4.323,4.057,5.651c2.157,1.015,2.491,1.314,2.491,2.233
						c0,1.262-0.951,1.831-3.059,1.831c-1.589,0-3.067-0.246-4.773-0.796c0,0-0.698,4.459-0.73,4.67
						c1.21,0.265,2.29,0.507,5.542,0.602c5.622,0,8.217-2.141,8.217-6.765c0-2.782-1.087-4.413-3.755-5.639
						c-2.233-1.028-2.49-1.255-2.49-2.2c0-1.095,0.885-1.656,2.607-1.656c1.044,0,2.473,0.115,3.827,0.306l0.759-4.693
						c-1.379-0.218-3.47-0.395-4.688-0.395C55.882,48.916,53.82,52.027,53.839,55.767z"/>
					<path fill="#FFFFFF" d="M162.746,69.606h-5.038l0.25-1.884c-1.461,1.562-2.959,2.235-4.911,2.235
						c-3.871,0-6.432-3.337-6.432-8.399c0-6.73,3.971-12.405,8.667-12.405c2.066,0,3.63,0.844,5.087,2.761l1.181-7.191h5.253
						L162.746,69.606z M154.888,64.93c2.482,0,4.224-2.811,4.224-6.819c0-2.571-0.992-3.969-2.823-3.969
						c-2.416,0-4.131,2.821-4.131,6.801C152.158,63.591,153.077,64.93,154.888,64.93z"/>
					<path fill="#FFFFFF" d="M139.353,49.368c-0.667,6.265-1.851,12.608-2.777,18.877l-0.242,1.361h5.327
						c1.905-12.377,2.364-14.792,5.354-14.489c0.476-2.534,1.361-4.752,2.021-5.87c-2.23-0.465-3.477,0.795-5.109,3.191
						c0.13-1.036,0.365-2.042,0.321-3.07H139.353z"/>
					<path fill="#FFFFFF" d="M95.507,49.368c-0.669,6.265-1.855,12.608-2.78,18.877l-0.242,1.361h5.329
						c1.907-12.377,2.364-14.792,5.349-14.489c0.479-2.534,1.366-4.752,2.024-5.87c-2.229-0.465-3.477,0.795-5.106,3.191
						c0.129-1.036,0.365-2.042,0.318-3.07H95.507z"/>
					<g>
						<path fill="#FFFFFF" d="M165.086,68.022c0-0.879,0.712-1.586,1.583-1.586c0.877,0,1.584,0.707,1.584,1.586
							c0,0.872-0.707,1.584-1.584,1.584C165.798,69.606,165.086,68.895,165.086,68.022z M166.668,69.227
							c0.668,0,1.207-0.541,1.207-1.204c0-0.665-0.539-1.206-1.207-1.206c-0.665,0-1.203,0.541-1.203,1.206
							C165.466,68.686,166.003,69.227,166.668,69.227z M166.455,68.714h-0.324v-1.39h0.589c0.123,0,0.247,0.005,0.354,0.071
							c0.115,0.075,0.177,0.209,0.177,0.347c0,0.157-0.091,0.305-0.239,0.36l0.256,0.611h-0.36l-0.213-0.549h-0.239V68.714z
							 M166.455,67.927h0.18c0.065,0,0.141,0.006,0.198-0.027c0.053-0.033,0.08-0.1,0.08-0.16c0-0.053-0.032-0.112-0.077-0.145
							c-0.056-0.031-0.147-0.022-0.208-0.022h-0.174V67.927z"/>
					</g>
				</g>
			</g>
		</g>
	</g>
</g>
</svg>
