<?xml version="1.0" encoding="utf-8"?>
<!-- Generator: Adobe Illustrator 16.0.3, SVG Export Plug-In . SVG Version: 6.00 Build 0)  -->
<!DOCTYPE svg PUBLIC "-//W3C//DTD SVG 1.1//EN" "http://www.w3.org/Graphics/SVG/1.1/DTD/svg11.dtd">
<svg version="1.1" id="acceptance" xmlns="http://www.w3.org/2000/svg" xmlns:xlink="http://www.w3.org/1999/xlink" x="0px" y="0px"
	 width="179.242px" height="113.387px" viewBox="0 0 179.242 113.387" enable-background="new 0 0 179.242 113.387"
	 xml:space="preserve">
<g id="mondex">
	<g>
		<g>
			<rect x="-0.001" fill="#11306E" width="179.244" height="113.387"/>
		</g>
		<g>
			<g>
				<g>
					<ellipse fill="#0096DC" cx="56.692" cy="56.694" rx="49.067" ry="49.061"/>
					<g>
						<path fill="#F7A600" d="M89.629,93.058c8.708,7.89,20.259,12.696,32.938,12.696c27.098,0,49.065-21.964,49.065-49.06
							c0-27.094-21.968-49.063-49.065-49.063c-12.678,0-24.234,4.807-32.939,12.7c-1.772,1.606-3.428,3.345-4.953,5.192h9.912
							c1.355,1.647,2.605,3.381,3.741,5.196H80.933c-1.042,1.668-1.988,3.401-2.827,5.195h23.046
							c0.788,1.683,1.482,3.415,2.078,5.193H76.026c-0.565,1.692-1.042,3.426-1.423,5.194h30.052
							c0.38,1.771,0.668,3.577,0.854,5.411c-2.144,1.725-3.493,4.967-3.493,9.015c0,3.066,0.936,4.98,2.773,5.724
							c-0.402,1.988-0.924,3.931-1.559,5.824H76.026c0.598,1.78,1.292,3.513,2.078,5.195h23.048
							c-0.84,1.794-1.784,3.527-2.828,5.196H80.933c1.136,1.812,2.386,3.548,3.741,5.192h9.911
							C93.062,89.711,91.405,91.449,89.629,93.058z"/>
					</g>
				</g>
				<path fill="#FFFFFF" d="M165.091,84.04c0-0.873,0.71-1.583,1.586-1.583c0.876,0,1.583,0.71,1.583,1.583
					c0,0.877-0.707,1.587-1.583,1.587C165.802,85.627,165.091,84.917,165.091,84.04z M166.677,85.247
					c0.665,0,1.205-0.541,1.205-1.207c0-0.665-0.54-1.202-1.205-1.202c-0.666,0-1.205,0.537-1.205,1.202
					C165.472,84.706,166.012,85.247,166.677,85.247z M166.462,84.737h-0.325v-1.391h0.588c0.124,0,0.248,0,0.356,0.068
					c0.113,0.077,0.177,0.21,0.177,0.349c0,0.157-0.092,0.304-0.242,0.359l0.256,0.614h-0.36l-0.211-0.551h-0.239V84.737z
					 M166.462,83.947h0.18c0.067,0,0.138,0.005,0.199-0.026c0.053-0.035,0.081-0.099,0.081-0.159c0-0.054-0.034-0.115-0.078-0.142
					c-0.058-0.034-0.148-0.027-0.208-0.027h-0.173V83.947z"/>
			</g>
			<g>
				<g>
					<polygon fill="#11306E" points="47.593,70.38 41.486,70.38 45.115,51.257 36.757,70.38 31.19,70.38 30.173,51.368 
						26.531,70.38 20.989,70.38 25.708,45.504 35.253,45.504 36.051,59.371 42.096,45.504 52.408,45.504 					"/>
					<path fill="#11306E" d="M66.69,58.475c0,4.583-1.881,7.299-4.851,7.299c-2.166,0.031-3.478-1.784-3.478-4.503
						c0-3.224,1.915-6.864,4.993-6.864C65.838,54.406,66.69,56.377,66.69,58.475z M73.246,58.602c0-5.079-3.337-9.042-9.62-9.042
						c-7.23,0-11.905,4.816-11.905,11.914c0,5.079,2.758,9.236,9.608,9.236C68.24,70.71,73.246,67.02,73.246,58.602z"/>
					<path fill="#11306E" d="M76.263,55.34c0.308-1.758,0.583-3.478,0.754-5.312h5.72l-0.479,3.32h0.068
						c1.781-2.266,3.619-3.789,6.872-3.789c3.598,0,5.55,3.047,5.55,7.033c0,1.366-0.103,2.147-0.479,4.293l-1.644,9.494h-6.371
						l1.712-9.534c0.17-1.013,0.411-2.027,0.411-3.082c0-1.211-0.686-2.424-2.397-2.343c-2.591,0-4.133,2.578-4.579,5.585
						l-1.746,9.374H73.5L76.263,55.34z"/>
					<path fill="#11306E" d="M114.779,70.377h-5.818l0.298-1.946c-1.705,1.583-3.451,2.283-5.728,2.283
						c-4.518,0-7.502-3.396-7.502-8.541c0-6.843,4.629-12.613,10.108-12.613c2.412,0,4.226,0.855,5.925,2.801l1.435-7.54h6.065
						L114.779,70.377z M105.68,65.601c2.894,0,4.927-2.858,4.927-6.935c0-2.615-1.157-4.033-3.292-4.033
						c-2.822,0-4.82,2.87-4.82,6.914C102.495,64.239,103.564,65.601,105.68,65.601z"/>
					<path fill="#11306E" d="M156.71,50.028h-6.577l-2.83,4.569l-1.998-4.569h-5.645l3.323,8.207l-7.417,9.65l0.494-2.583
						c-2.258,0.726-4.003,0.807-6.165,0.807c-3.549,0-5.759-1.275-5.304-4.186h12.162c0.529-2.05,0.748-3.505,0.748-4.999
						c0-4.495-3.214-7.362-8.25-7.362c-6.154,0-10.688,5.118-10.688,12.071c0,5.96,3.564,9.073,10.4,9.076
						c1.611,0.004,3.186-0.014,4.713-0.333h7.47l5.13-7.841l2.563,7.841h6.352l-4.912-11.865L156.71,50.028z M129.118,54.191
						c3.52,0.069,2.841,3.191,2.841,3.633h-6.743C125.783,55.488,127.175,54.191,129.118,54.191z"/>
				</g>
				<g>
					<polygon fill="#FFFFFF" points="49.126,68.847 43.02,68.847 46.649,49.725 38.291,68.847 32.723,68.847 31.705,49.834 
						28.063,68.847 22.521,68.847 27.242,43.972 36.787,43.972 37.291,59.371 44.01,43.972 53.941,43.972 					"/>
					<path fill="#FFFFFF" d="M68.225,56.941c0,4.584-1.881,7.298-4.853,7.298c-2.166,0.033-3.478-1.784-3.478-4.501
						c0-3.225,1.915-6.865,4.994-6.865C67.371,52.873,68.225,54.844,68.225,56.941z M74.778,57.067c0-5.079-3.335-9.04-9.62-9.04
						c-7.229,0-11.904,4.816-11.904,11.915c0,5.077,2.758,9.235,9.608,9.235C69.773,69.178,74.778,65.485,74.778,57.067z"/>
					<path fill="#FFFFFF" d="M77.796,53.806c0.308-1.757,0.583-3.477,0.753-5.311h5.722l-0.479,3.321h0.067
						c1.782-2.268,3.619-3.789,6.872-3.789c3.598,0,5.55,3.045,5.55,7.032c0,1.365-0.103,2.147-0.478,4.294l-1.644,9.493h-6.372
						l1.712-9.533c0.17-1.015,0.411-2.028,0.411-3.084c0-1.21-0.686-2.424-2.396-2.342c-2.592,0-4.134,2.577-4.58,5.585
						l-1.746,9.374h-6.154L77.796,53.806z"/>
					<path fill="#FFFFFF" d="M116.311,68.845h-5.816l0.297-1.946c-1.705,1.583-3.451,2.281-5.729,2.281
						c-4.517,0-7.501-3.396-7.501-8.54c0-6.842,4.63-12.612,10.107-12.612c2.414,0,4.227,0.854,5.927,2.8l1.435-7.541h6.063
						L116.311,68.845z M107.213,64.066c2.893,0,4.927-2.857,4.927-6.934c0-2.615-1.156-4.032-3.293-4.032
						c-2.822,0-4.819,2.87-4.819,6.915C104.027,62.706,105.097,64.066,107.213,64.066z"/>
					<path fill="#FFFFFF" d="M133.491,56.291c0-0.441,0.681-3.563-2.841-3.633c-1.944,0-3.333,1.297-3.9,3.633H133.491z
						 M135.464,68.419c-1.989,0.731-2.825,0.764-4.968,0.759c-6.837-0.005-10.4-3.117-10.4-9.076
						c0-6.953,4.534-12.072,10.687-12.072c5.036,0,8.25,2.867,8.25,7.362c0,1.493-0.218,2.949-0.747,5h-12.162
						c-0.455,2.908,1.756,4.185,5.304,4.185c2.163,0,2.667-0.081,4.925-0.806L135.464,68.419z"/>
					<path fill="#FFFFFF" d="M144.474,58.235l-3.944-9.74h6.308l1.958,6.103l3.779-6.103h6.789l-7.592,10.017l4.181,10.335h-6.125
						l-2.06-6.311l-4.121,6.311h-7.325L144.474,58.235z"/>
					<path fill="#FFFFFF" d="M157.028,67.262c0-0.878,0.711-1.585,1.584-1.585c0.876,0,1.583,0.707,1.583,1.585
						c0,0.873-0.707,1.585-1.583,1.585C157.74,68.847,157.028,68.135,157.028,67.262z M158.612,68.466
						c0.667,0,1.206-0.54,1.206-1.204s-0.539-1.205-1.206-1.205c-0.666,0-1.204,0.541-1.204,1.205S157.947,68.466,158.612,68.466z
						 M158.399,67.954h-0.325v-1.39h0.589c0.123,0,0.247,0.004,0.354,0.07c0.116,0.076,0.178,0.209,0.178,0.348
						c0,0.158-0.091,0.305-0.24,0.36l0.256,0.611h-0.36l-0.213-0.55h-0.238V67.954z M158.399,67.167h0.18
						c0.064,0,0.14,0.007,0.197-0.026c0.053-0.033,0.081-0.101,0.081-0.161c0-0.053-0.031-0.112-0.078-0.145
						c-0.056-0.031-0.147-0.021-0.207-0.021h-0.173V67.167z"/>
				</g>
			</g>
		</g>
	</g>
</g>
</svg>
