<?xml version="1.0" encoding="utf-8"?>
<!-- Generator: Adobe Illustrator 16.0.3, SVG Export Plug-In . SVG Version: 6.00 Build 0)  -->
<!DOCTYPE svg PUBLIC "-//W3C//DTD SVG 1.1//EN" "http://www.w3.org/Graphics/SVG/1.1/DTD/svg11.dtd">
<svg version="1.1" id="Layer_1" xmlns="http://www.w3.org/2000/svg" xmlns:xlink="http://www.w3.org/1999/xlink" x="0px" y="0px"
	 width="224.358px" height="113.386px" viewBox="0 0 224.358 113.386" enable-background="new 0 0 224.358 113.386"
	 xml:space="preserve">
<g>
	<defs>
		<rect id="SVGID_1_" width="224.358" height="113.386"/>
	</defs>
	<clipPath id="SVGID_2_">
		<use xlink:href="#SVGID_1_"  overflow="visible"/>
	</clipPath>
	<path clip-path="url(#SVGID_2_)" fill="#2929C9" d="M167.67,0c-13.137,0-20.779,3.837-28.17,7.549
		c-7.513,3.773-14.608,7.336-27.321,7.343c-12.714-0.006-19.81-3.569-27.323-7.343C77.466,3.838,69.823,0,56.687,0
		C25.43,0,0,25.433,0,56.693s25.43,56.692,56.687,56.692c13.136,0,20.778-3.837,28.169-7.548c7.513-3.772,14.61-7.336,27.323-7.342
		c12.714,0.006,19.81,3.569,27.323,7.342c7.39,3.711,15.033,7.548,28.169,7.548c31.257,0,56.688-25.432,56.688-56.692
		S198.927,0,167.67,0"/>
	<path clip-path="url(#SVGID_2_)" fill="#FFFFFF" d="M59.146,65.753c-4.783,0-8.66-3.877-8.66-8.661c0-4.783,3.877-8.66,8.66-8.66
		c4.783,0,8.66,3.877,8.66,8.66C67.806,61.876,63.929,65.753,59.146,65.753 M61.142,35.393c-4.165,0-7.764,1.378-10.69,3.606v-0.626
		c0-1.058-0.866-1.924-1.923-1.924H37.541c-1.059,0-1.924,0.866-1.924,1.924v53.5c0,1.058,0.865,1.923,1.924,1.923h10.987
		c1.058,0,1.923-0.865,1.923-1.923V75.457c2.927,2.095,6.526,3.334,10.69,3.334c11.983,0,21.699-9.714,21.699-21.699
		C82.841,45.108,73.125,35.393,61.142,35.393 M188.712,38.374v37.398c0,1.058-0.864,1.923-1.923,1.923h-10.987
		c-1.058,0-1.924-0.865-1.924-1.923V38.374c0-1.058,0.866-1.924,1.924-1.924h10.987C187.848,36.449,188.712,37.315,188.712,38.374
		 M172.635,22.907c0-4.782,3.878-8.66,8.66-8.66c4.783,0,8.66,3.877,8.66,8.66c0,4.783-3.877,8.661-8.66,8.661
		C176.513,31.567,172.635,27.689,172.635,22.907 M162.445,38.374v37.398c0,1.058-0.866,1.923-1.924,1.923h-10.987
		c-1.058,0-1.923-0.865-1.923-1.923V38.374c0-1.058,0.865-1.924,1.923-1.924h10.987C161.579,36.449,162.445,37.315,162.445,38.374
		 M163.687,22.907c0,4.783-3.877,8.661-8.659,8.661c-4.783,0-8.66-3.878-8.66-8.661c0-4.782,3.877-8.66,8.66-8.66
		C159.81,14.247,163.687,18.125,163.687,22.907 M113.034,65.753c-4.783,0-8.661-3.877-8.661-8.661c0-4.783,3.878-8.66,8.661-8.66
		c4.782,0,8.659,3.877,8.659,8.66C121.693,61.876,117.816,65.753,113.034,65.753 M134.622,36.449h-10.987
		c-1.058,0-1.924,0.866-1.924,1.924v0.612c-2.923-2.22-6.518-3.593-10.673-3.593c-11.984,0-21.7,9.715-21.7,21.699
		c0,11.985,9.716,21.699,21.7,21.699c4.155,0,7.75-1.234,10.673-3.322v0.303c0,1.058,0.866,1.923,1.924,1.923h10.987
		c1.058,0,1.923-0.865,1.923-1.923V38.374C136.544,37.315,135.679,36.449,134.622,36.449"/>
</g>
</svg>
