<?xml version="1.0" encoding="utf-8"?>
<!-- Generator: Adobe Illustrator 16.0.3, SVG Export Plug-In . SVG Version: 6.00 Build 0)  -->
<!DOCTYPE svg PUBLIC "-//W3C//DTD SVG 1.1//EN" "http://www.w3.org/Graphics/SVG/1.1/DTD/svg11.dtd">
<svg version="1.1" id="acceptance" xmlns="http://www.w3.org/2000/svg" xmlns:xlink="http://www.w3.org/1999/xlink" x="0px" y="0px"
	 width="167.316px" height="113.387px" viewBox="0 0 167.316 113.387" enable-background="new 0 0 167.316 113.387"
	 xml:space="preserve">
<g id="unionpay">
	<g>
		<path fill="#FFFFFF" d="M38.716,0c-9.745,0-18.789,7.365-21.039,17.131c0,0.002-17.169,74.625-17.169,74.625
			c-1.271,5.498-0.13,11.036,3.122,15.198c3.201,4.086,8.144,6.433,13.555,6.433h111.409c9.739,0,18.786-7.362,21.047-17.122
			c0-0.011,17.167-74.634,17.167-74.634c1.271-5.497,0.131-11.047-3.125-15.201C160.479,2.344,155.542,0,150.131,0H38.716z"/>
		<path fill="#E20613" d="M40.279,12.095h35.594c4.971,0,8.06,4.044,6.898,9.028l-16.57,71.141
			c-1.167,4.983-6.141,9.025-11.109,9.025H19.498c-4.974,0-8.062-4.042-6.896-9.025l16.573-71.141
			C30.336,16.139,35.305,12.095,40.279,12.095L40.279,12.095z"/>
		<path fill="#004E95" d="M72.92,12.095h35.591c4.973,0,8.063,4.044,6.896,9.028L98.834,92.264
			c-1.167,4.983-6.136,9.025-11.115,9.025H52.133c-4.979,0-8.063-4.042-6.896-9.025l16.568-71.141
			C62.972,16.139,67.946,12.095,72.92,12.095L72.92,12.095z"/>
		<path fill="#008087" d="M112.229,12.095h35.589c4.974,0,8.063,4.044,6.896,9.028l-16.567,71.141
			c-1.167,4.983-6.141,9.025-11.115,9.025H91.438c-4.974,0-8.063-4.042-6.896-9.025l16.568-71.141
			C102.277,16.139,107.251,12.095,112.229,12.095L112.229,12.095z"/>
		<path fill-rule="evenodd" clip-rule="evenodd" fill="#FFFFFF" d="M106.74,79.011h3.354l0.755-3.231h-3.354L106.74,79.011z
			 M108.818,70.118l-0.891,3.805c0,0,1.229-0.653,1.907-0.837c0.672-0.182,1.708-0.296,1.708-0.296l0.636-2.672H108.818z
			 M110.11,64.617l-0.86,3.673c0,0,1.209-0.568,1.881-0.75c0.677-0.181,1.708-0.25,1.708-0.25l0.62-2.673H110.11z M117.532,64.617
			l-3.359,14.35h1.161l-0.703,2.979h-1.162l-0.213,0.909h-4.125l0.213-0.909h-8.385l0.656-2.747l0.854-0.014l3.411-14.568
			l0.678-2.945h4.213l-0.333,1.493c0,0,1.063-0.815,2.104-1.089c1.047-0.273,7.146-0.38,7.146-0.38l-0.708,2.921H117.532z"/>
		<path fill-rule="evenodd" clip-rule="evenodd" fill="#FFFFFF" d="M119.917,61.701h4.489l0.052,1.672
			c-0.026,0.271,0.213,0.406,0.74,0.416h0.755l-0.677,2.767h-2.427c-2.104,0.151-2.901-0.756-2.849-1.769L119.917,61.701z"/>
		<path fill-rule="evenodd" clip-rule="evenodd" fill="#FFFFFF" d="M120.678,74.815h-4.287l0.573-2.463h4.891l0.547-2.255h-4.833
			l0.651-2.769h13.448l-0.656,2.769h-4.516l-0.546,2.255h4.521l-0.578,2.463h-4.886l-0.807,1.039h1.984l0.703,3.104
			c0.057,0.305,0.088,0.506,0.192,0.633c0.104,0.109,0.708,0.164,1.052,0.164h0.6l-0.708,3.028h-1.527
			c-0.234,0-0.588-0.01-1.067-0.052c-0.464-0.036-0.813-0.302-1.131-0.448c-0.292-0.135-0.734-0.481-0.875-1.057l-0.682-3.094
			l-2.01,3.057c-0.651,0.948-1.557,1.683-3.167,1.683h-3.125l0.63-2.683h1.198c0.343,0,0.645-0.141,0.858-0.252
			c0.22-0.102,0.412-0.219,0.626-0.544L120.678,74.815z"/>
		<path fill-rule="evenodd" clip-rule="evenodd" fill="#FFFFFF" d="M73.321,68.076h11.336l-0.651,2.709h-4.552l-0.555,2.307h4.627
			l-0.671,2.802h-4.628l-0.897,3.737c-0.105,0.419,1.132,0.477,1.581,0.477l2.299-0.308l-0.739,3.079h-5.232
			c-0.417,0-0.737-0.048-1.198-0.162c-0.448-0.106-0.654-0.308-0.87-0.609c-0.206-0.291-0.513-0.547-0.357-1.197l1.193-4.969h-2.579
			l0.685-2.85h2.583l0.549-2.307h-2.573L73.321,68.076z"/>
		<path fill-rule="evenodd" clip-rule="evenodd" fill="#FFFFFF" d="M80.657,63.217h4.657l-0.678,2.82h-6.356l-0.656,0.606
			c-0.269,0.281-0.386,0.164-0.753,0.365c-0.354,0.188-1.085,0.541-2.065,0.541h-2.036l0.653-2.719h0.61
			c0.521,0,0.872-0.046,1.046-0.163c0.188-0.117,0.398-0.412,0.627-0.879l1.037-2.124h4.633L80.657,63.217z"/>
		<path fill-rule="evenodd" clip-rule="evenodd" fill="#FFFFFF" d="M89.87,67.868c0,0,1.193-1.161,3.35-1.542
			c0.49-0.088,3.589-0.063,3.589-0.063l0.37-1.557h-6.552L89.87,67.868z M96.083,69.051h-6.495l-0.318,1.307h5.625
			c0.662-0.067,0.802,0.016,0.854-0.008L96.083,69.051z M87.208,61.686h3.969l-0.458,2c0,0,1.193-1.002,2.052-1.338
			c0.854-0.34,2.812-0.625,2.812-0.625l6.407-0.042l-1.729,7.281c-0.296,1.245-0.672,2.052-0.911,2.425
			c-0.229,0.364-0.484,0.689-1.026,0.997c-0.531,0.281-1.01,0.442-1.458,0.489c-0.432,0.036-1.078,0.05-1.975,0.06h-6.177
			l-1.38,5.764c-0.14,0.57-0.198,0.838-0.083,0.989c0.105,0.141,0.323,0.297,0.615,0.297l2.704-0.261l-0.735,3.159h-3.057
			c-0.963,0-1.677-0.013-2.167-0.06c-0.474-0.037-0.963,0-1.302-0.261c-0.308-0.244-0.755-0.567-0.766-0.906
			c0.01-0.315,0.104-0.833,0.26-1.542L87.208,61.686z"/>
		<path fill-rule="evenodd" clip-rule="evenodd" fill="#FFFFFF" d="M99.496,73.443l-0.25,1.753
			c-0.136,0.539-0.235,0.953-0.625,1.313c-0.411,0.369-0.901,0.75-2.088,0.75l-2.187,0.086l0.093,1.974
			c0.016,0.573,0.157,0.514,0.25,0.604c0.104,0.097,0.202,0.139,0.302,0.165l0.698-0.026l2.083-0.127l-0.683,2.897h-2.405
			c-1.698,0-2.949-0.052-3.38-0.358c-0.422-0.279-0.5-0.6-0.521-1.139l-0.323-7.716h3.849l0.046,1.578h0.922
			c0.323,0,0.532-0.032,0.662-0.114c0.109-0.084,0.182-0.214,0.234-0.411l0.292-1.228H99.496z"/>
		<path fill="#FFFFFF" d="M44.493,34.808c-0.135,0.638-2.609,12.029-2.615,12.034c-0.531,2.298-0.917,3.954-2.224,5.016
			c-0.761,0.609-1.62,0.909-2.63,0.909c-1.62,0-2.568-0.811-2.734-2.339l-0.031-0.519c0,0,0.495-3.088,0.5-3.104
			c0,0,2.599-10.385,3.057-11.765c0.016-0.073,0.026-0.115,0.042-0.161c-5.047,0.062-5.948,0.015-6.01-0.073
			c-0.026,0.109-0.161,0.755-0.161,0.755L29.04,47.271l-0.229,0.992l-0.432,3.24c0,0.966,0.188,1.755,0.568,2.411
			c1.203,2.114,4.646,2.432,6.588,2.432c2.505,0,4.854-0.547,6.448-1.502c2.75-1.638,3.479-4.195,4.125-6.45l0.297-1.162
			c0,0,2.671-10.791,3.13-12.195c0.016-0.075,0.026-0.112,0.037-0.158C45.92,34.933,44.836,34.889,44.493,34.808z"/>
		<path fill="#FFFFFF" d="M59.264,56.228c-1.797-0.021-2.417-0.021-4.51,0.072l-0.084-0.14c0.183-0.809,0.386-1.589,0.568-2.396
			l0.25-1.08c0.391-1.706,0.771-3.662,0.813-4.264c0.042-0.365,0.157-1.266-0.87-1.266c-0.438,0-0.896,0.208-1.354,0.417
			c-0.25,0.896-0.76,3.432-1,4.583c-0.516,2.44-0.552,2.716-0.781,3.911l-0.151,0.162c-1.843-0.021-2.484-0.021-4.604,0.072
			l-0.099-0.161c0.354-1.453,0.708-2.904,1.042-4.354c0.896-3.913,1.104-5.411,1.349-7.391l0.167-0.14
			c2.073-0.277,2.567-0.344,4.817-0.806l0.183,0.206l-0.339,1.266c0.375-0.229,0.745-0.458,1.136-0.666
			c1.052-0.506,2.229-0.667,2.87-0.667c0.979,0,2.057,0.275,2.505,1.405c0.432,1.011,0.146,2.256-0.417,4.719l-0.286,1.245
			c-0.578,2.739-0.672,3.246-0.985,5.109L59.264,56.228z"/>
		<path fill="#FFFFFF" d="M66.54,56.228c-1.083-0.011-1.776-0.016-2.453-0.008c-0.672,0.008-1.328,0.033-2.333,0.08l-0.057-0.083
			l-0.063-0.078c0.271-1.042,0.417-1.406,0.558-1.771c0.135-0.366,0.265-0.736,0.505-1.785c0.313-1.362,0.505-2.331,0.646-3.162
			c0.141-0.825,0.229-1.513,0.329-2.307l0.083-0.068l0.088-0.073c1.073-0.147,1.756-0.247,2.448-0.359
			c0.698-0.111,1.407-0.239,2.526-0.447l0.037,0.094l0.037,0.094c-0.209,0.852-0.417,1.708-0.62,2.56
			c-0.204,0.852-0.401,1.708-0.6,2.561c-0.406,1.802-0.562,2.484-0.656,2.947c-0.094,0.464-0.12,0.714-0.276,1.646l-0.1,0.083
			L66.54,56.228z"/>
		<path fill="#FFFFFF" d="M77.941,49.86c-0.104,0.461-0.506,2.206-1.063,2.94c-0.37,0.53-0.833,0.854-1.333,0.854
			c-0.141,0-1.026,0-1.047-1.313c-0.01-0.644,0.12-1.31,0.287-2.045c0.474-2.07,1.031-3.814,2.448-3.814
			C78.352,46.482,78.419,47.769,77.941,49.86z M82.615,50.066c0.63-2.759,0.151-4.044-0.469-4.828
			c-0.938-1.193-2.576-1.584-4.29-1.584c-1.026,0-3.468,0.114-5.38,1.886c-1.364,1.26-2.01,2.984-2.391,4.64
			c-0.385,1.681-0.833,4.738,1.948,5.839c0.875,0.37,2.104,0.485,2.901,0.485c2.052,0,4.146-0.573,5.716-2.253
			C81.87,52.918,82.422,50.895,82.615,50.066z"/>
		<path fill="#FFFFFF" d="M129.162,43.795c-2.239,0.408-2.828,0.5-4.975,0.797l-0.167,0.135c-0.026,0.184-0.047,0.35-0.072,0.524
			c-0.333-0.547-0.803-1.026-1.558-1.315c-0.958-0.37-3.208,0.114-5.12,1.87c-1.365,1.255-2.011,2.966-2.391,4.609
			c-0.385,1.666-0.833,4.702,1.948,5.797c0.875,0.365,1.683,0.474,2.479,0.432c0.854-0.044,1.635-0.491,2.37-1.106
			c-0.068,0.261-0.13,0.523-0.198,0.783l0.125,0.163c2.005-0.095,2.62-0.095,4.781-0.068l0.198-0.162
			c0.313-1.849,0.615-3.65,1.438-7.21c0.39-1.69,0.801-3.378,1.213-5.066L129.162,43.795z M122.079,53.017
			c-0.37,0.522-1.24,0.846-1.74,0.846c-0.141,0-1.026,0-1.046-1.302c-0.011-0.641,0.119-1.303,0.287-2.031
			c0.473-2.053,1.03-3.786,2.447-3.786c0.922,0,1.37,0.903,1.246,2.375c-0.073,0.331-0.136,0.63-0.225,1.021
			c-0.151,0.641-0.328,1.271-0.484,1.908C122.417,52.423,122.261,52.776,122.079,53.017z"/>
		<path fill="#FFFFFF" d="M94.845,56.228c-1.797-0.021-2.412-0.021-4.511,0.072l-0.083-0.14c0.188-0.809,0.385-1.589,0.573-2.396
			l0.245-1.08c0.39-1.706,0.771-3.662,0.817-4.264c0.037-0.365,0.151-1.266-0.875-1.266c-0.432,0-0.89,0.208-1.349,0.417
			c-0.25,0.896-0.761,3.432-1.005,4.583c-0.511,2.44-0.553,2.716-0.781,3.911l-0.151,0.162c-1.839-0.021-2.479-0.021-4.6,0.072
			l-0.099-0.161c0.354-1.453,0.708-2.904,1.042-4.354c0.896-3.913,1.099-5.411,1.349-7.391l0.167-0.14
			c2.068-0.277,2.568-0.344,4.813-0.806l0.182,0.206l-0.333,1.266c0.37-0.229,0.745-0.458,1.13-0.666
			c1.052-0.506,2.229-0.667,2.87-0.667c0.979,0,2.058,0.275,2.511,1.405c0.427,1.011,0.14,2.256-0.422,4.719l-0.281,1.245
			c-0.584,2.739-0.677,3.246-0.99,5.109L94.845,56.228z"/>
		<path fill="#FFFFFF" d="M110.36,34.785c-0.005,0-1.49,0.03-1.49,0.03c-3.87,0.039-5.421,0.029-6.063-0.052
			c-0.057,0.276-0.162,0.784-0.162,0.786c0,0-1.38,6.428-1.38,6.433c0,0-3.317,13.667-3.473,14.308
			c3.375-0.047,4.765-0.05,5.344,0.016c0.135-0.646,0.921-4.453,0.927-4.461c0,0,0.671-2.806,0.713-2.894
			c0,0,0.203-0.297,0.422-0.411h0.302c2.912,0,6.208,0,8.787-1.901c1.75-1.291,2.953-3.208,3.489-5.541
			c0.135-0.578,0.24-1.261,0.24-1.948c0-0.88-0.177-1.774-0.699-2.479C116,34.84,113.391,34.815,110.36,34.785z M112.297,41.482
			c-0.323,1.422-1.234,2.62-2.427,3.208c-0.99,0.492-2.183,0.534-3.422,0.534h-0.807l0.072-0.325c0,0,1.469-6.412,1.464-6.392
			l0.042-0.324l0.031-0.259l0.583,0.058c0,0,3.036,0.271,3.114,0.287C112.146,38.728,112.652,39.926,112.297,41.482z"/>
		<path fill="#FFFFFF" d="M68.503,45.243c1.183-0.815,1.333-1.959,0.328-2.553c-1.005-0.588-2.776-0.403-3.963,0.412
			c-1.193,0.823-1.333,1.966-0.333,2.558C65.54,46.251,67.315,46.066,68.503,45.243z"/>
		<path fill-rule="evenodd" clip-rule="evenodd" fill="#FFFFFF" d="M144.073,43.774l-0.176-0.204
			c-2.204,0.456-2.604,0.527-4.631,0.798l-0.162,0.138c-0.005,0.034-0.01,0.067-0.015,0.102l-0.011-0.025
			c-1.521,3.494-1.469,2.739-2.698,5.479c-0.005-0.125-0.011-0.219-0.016-0.336l-0.307-5.95l-0.188-0.204
			c-2.317,0.456-2.375,0.527-4.51,0.798l-0.172,0.138c-0.01,0.081-0.021,0.159-0.031,0.242l0.021,0.021
			c0.26,1.374,0.203,1.072,0.469,3.224c0.12,1.052,0.287,2.122,0.406,3.172c0.218,1.734,0.333,2.614,0.588,5.261
			c-1.443,2.396-1.786,3.297-3.162,5.396v0.005l-0.984,1.558c-0.109,0.167-0.213,0.271-0.349,0.323
			c-0.156,0.066-0.37,0.094-0.651,0.094h-0.75l-0.625,2.801l2.792-0.041c1.62-0.013,2.646-0.813,3.203-1.823l1.709-2.98
			L144.073,43.774z"/>
	</g>
</g>
</svg>
