<?xml version="1.0" encoding="utf-8"?>
<!-- Generator: Adobe Illustrator 16.0.3, SVG Export Plug-In . SVG Version: 6.00 Build 0)  -->
<!DOCTYPE svg PUBLIC "-//W3C//DTD SVG 1.1//EN" "http://www.w3.org/Graphics/SVG/1.1/DTD/svg11.dtd">
<svg version="1.1" id="acceptance" xmlns="http://www.w3.org/2000/svg" xmlns:xlink="http://www.w3.org/1999/xlink" x="0px" y="0px"
	 width="178.494px" height="113.387px" viewBox="0 0 178.494 113.387" enable-background="new 0 0 178.494 113.387"
	 xml:space="preserve">
<g id="visa">
	<g>
		<path id="path4147" fill="#FFFFFF" d="M178.494,113.387H0V0h178.494V113.387L178.494,113.387z"/>
		<path id="path4149" fill="#F7B600" d="M2.972,94.963h172.547v15.469H2.972V94.963z"/>
		<path id="path4151" fill="#1A1F71" d="M2.972,18.444h172.547V2.975H2.972V18.444z"/>
		<g id="g4155">
			<g id="g4161" transform="translate(305.1123,421.1924)">
				<path id="path4163" fill="#1A1F71" d="M-217.354-385.705l-9.096,42.521h-11.001l9.097-42.521H-217.354z M-171.075-358.248
					l5.792-15.969l3.331,15.969H-171.075L-171.075-358.248z M-158.796-343.185h10.171l-8.886-42.521h-9.383
					c-2.115,0-3.896,1.227-4.685,3.118l-16.507,39.402h11.553l2.294-6.35h14.11L-158.796-343.185z M-187.514-357.066
					c0.049-11.222-15.512-11.844-15.409-16.856c0.034-1.524,1.487-3.147,4.665-3.563c1.576-0.203,5.921-0.367,10.849,1.903
					l1.927-9.021c-2.647-0.957-6.053-1.879-10.289-1.879c-10.875,0-18.526,5.775-18.587,14.055
					c-0.07,6.122,5.465,9.535,9.625,11.573c4.29,2.084,5.728,3.421,5.707,5.282c-0.03,2.854-3.422,4.116-6.579,4.164
					c-5.534,0.086-8.741-1.496-11.298-2.688l-1.997,9.321c2.575,1.179,7.318,2.204,12.23,2.257
					C-195.107-342.517-187.548-348.227-187.514-357.066 M-233.073-385.705l-17.824,42.521h-11.626l-8.772-33.935
					c-0.532-2.087-0.995-2.854-2.612-3.734c-2.645-1.438-7.013-2.781-10.852-3.617l0.26-1.234h18.718
					c2.384,0,4.529,1.587,5.075,4.333l4.633,24.607l11.444-28.94H-233.073z"/>
			</g>
		</g>
	</g>
</g>
</svg>
