<?xml version="1.0" encoding="UTF-8" standalone="no"?>

<svg
   xmlns:dc="http://purl.org/dc/elements/1.1/"
   xmlns:cc="http://creativecommons.org/ns#"
   xmlns:rdf="http://www.w3.org/1999/02/22-rdf-syntax-ns#"
   xmlns:svg="http://www.w3.org/2000/svg"
   xmlns="http://www.w3.org/2000/svg"
   version="1.1"
   width="300"
   height="158.55804"
   id="svg2">
  <defs
     id="defs4">
    <clipPath
       id="clipPath2999">
      <path
         d="M 0,117 200,117 200,0 0,0 0,117 z"
         id="path3001" />
    </clipPath>
  </defs>
  <metadata
     id="metadata7">
    <rdf:RDF>
      <cc:Work
         rdf:about="">
        <dc:format>image/svg+xml</dc:format>
        <dc:type
           rdf:resource="http://purl.org/dc/dcmitype/StillImage" />
        <dc:title></dc:title>
      </cc:Work>
    </rdf:RDF>
  </metadata>
  <g
     transform="translate(-99.432492,-280.31876)"
     id="layer1">
    <g
       transform="matrix(1.25,0,0,-1.25,83.302741,453.98105)"
       id="g2993">
      <g
         id="g2995">
        <g
           transform="matrix(1.3813839,0,0,1.3813839,-5.5315154,-5.218628)"
           clip-path="url(#clipPath2999)"
           id="g2997">
          <g
             transform="translate(137.0908,89.1885)"
             id="g3003">
            <path
               d="M 0,0 C 3.87,0 7.005,3.134 7.005,7 7.005,10.867 3.87,14.004 0,14.004 -3.863,14.004 -6.998,10.867 -6.998,7 -6.998,3.134 -3.863,0 0,0 M -53.648,-3.779 C -53.965,-4.574 -56.239,-11 -61.742,-17.66 l 0,28.477 -14.66,-2.897 0,-51.62 14.66,0 0,15.956 c 4.247,-6.367 6.343,-15.956 6.343,-15.956 l 17.56,0 c -1.737,7.221 -9.335,20.536 -9.335,20.536 6.819,8.645 9.814,17.857 10.29,19.385 l -16.764,0 z m 38.54,0.538 c -13.13,-0.422 -19.797,-6.313 -19.797,-18.024 l 0,-22.435 14.327,0 0,18.296 c 0,7.011 0.918,10.018 9.238,10.304 l 0,11.653 c -1.4,0.298 -3.768,0.206 -3.768,0.206 m -85.88,-6.223 c -1.796,0.117 -5.953,0.386 -5.953,4.129 0,4.516 5.985,4.516 8.23,4.516 3.947,0 9.059,-1.165 12.71,-2.258 0,0 2.037,-0.718 3.77,-1.453 l 0.161,-0.044 0,0.164 0,12.205 -0.221,0.065 c -4.309,1.507 -9.319,2.957 -18.607,2.957 -16.015,0 -21.689,-9.329 -21.689,-17.321 0,-4.607 1.974,-15.451 20.316,-16.702 1.554,-0.095 5.68,-0.333 5.68,-4.2 0,-3.194 -3.378,-5.076 -9.059,-5.076 -6.226,0 -12.268,1.587 -15.936,3.093 l 0,-12.738 c 5.493,-1.439 11.683,-2.159 18.94,-2.159 15.659,0 22.672,8.827 22.672,17.575 0,9.919 -7.848,16.365 -21.014,17.247 m 93.887,-34.236 14.209,0 0,39.875 -14.209,0 0,-39.875 z m 40.965,51.976 0,-51.976 14.212,0 0,54.517 -14.212,-2.541 z m -20.736,0 14.197,2.541 0,-54.517 -14.197,0 0,51.976 z"
               id="path3005"
               style="fill:#862165;fill-opacity:1;fill-rule:nonzero;stroke:none" />
          </g>
          <g
             transform="translate(30.7617,18.6729)"
             id="g3007">
            <path
               d="m 0,0 0,8.419 c 0,0.96 -0.356,1.616 -1.316,1.616 -0.741,0 -1.454,-0.463 -2.194,-1.177 l 0,-8.858 -4.141,0 0,8.419 c 0,0.96 -0.356,1.616 -1.317,1.616 -0.767,0 -1.452,-0.463 -2.193,-1.177 l 0,-8.858 -4.141,0 0,13.438 3.648,0 0.301,-1.837 c 1.207,1.233 2.441,2.111 4.169,2.111 1.836,0 2.851,-0.905 3.344,-2.111 1.208,1.206 2.524,2.111 4.196,2.111 2.495,0 3.812,-1.565 3.812,-4.168 L 4.168,0 0,0 z"
               id="path3009"
               style="fill:#000000;fill-opacity:1;fill-rule:nonzero;stroke:none" />
          </g>
          <g
             transform="translate(43.48,28.9844)"
             id="g3011">
            <path
               d="m 0,0 c -1.59,0 -2.439,-1.397 -2.439,-3.592 0,-2.167 0.876,-3.647 2.439,-3.647 1.591,0 2.469,1.454 2.469,3.619 C 2.469,-1.453 1.591,0 0,0 m -0.027,-10.584 c -3.702,0 -6.416,2.659 -6.416,6.964 0,4.305 2.742,7.02 6.443,7.02 3.729,0 6.473,-2.687 6.473,-6.992 0,-4.304 -2.771,-6.992 -6.5,-6.992"
               id="path3013"
               style="fill:#000000;fill-opacity:1;fill-rule:nonzero;stroke:none" />
          </g>
          <g
             transform="translate(59.9307,18.6729)"
             id="g3015">
            <path
               d="m 0,0 0,8.419 c 0,0.96 -0.385,1.616 -1.371,1.616 -0.796,0 -1.536,-0.463 -2.276,-1.203 l 0,-8.832 -4.142,0 0,13.438 3.648,0 0.302,-1.837 c 1.207,1.177 2.496,2.111 4.196,2.111 2.495,0 3.811,-1.565 3.811,-4.168 L 4.168,0 0,0 z"
               id="path3017"
               style="fill:#000000;fill-opacity:1;fill-rule:nonzero;stroke:none" />
          </g>
          <g
             transform="translate(72.4321,29.6973)"
             id="g3019">
            <path
               d="m 0,0 c -1.152,0 -1.975,-1.015 -2.112,-3.071 l 4.223,0 C 1.973,-1.042 1.261,0 0,0 m 5.978,-5.346 -8.062,0 c 0.219,-2.112 1.48,-2.934 3.291,-2.934 1.48,0 2.934,0.548 4.414,1.396 L 6.032,-9.79 c -1.452,-0.931 -3.235,-1.507 -5.347,-1.507 -4.03,0 -6.911,2.138 -6.911,6.937 0,4.386 2.689,7.048 6.334,7.048 4.115,0 5.951,-3.073 5.951,-6.965 0,-0.411 -0.027,-0.851 -0.081,-1.069"
               id="path3021"
               style="fill:#000000;fill-opacity:1;fill-rule:nonzero;stroke:none" />
          </g>
          <g
             transform="translate(87.9438,18.4004)"
             id="g3023">
            <path
               d="m 0,0 c -1.207,-3.511 -2.853,-4.717 -5.785,-4.717 -0.824,0 -1.179,0.082 -1.564,0.163 l -0.521,3.32 c 0.439,-0.137 0.85,-0.22 1.646,-0.22 0.932,0 1.756,0.355 2.193,1.29 l 0.165,0.409 -4.882,13.136 4.442,0.523 2.607,-8.475 2.467,8.281 4.003,0 L 0,0 z"
               id="path3025"
               style="fill:#000000;fill-opacity:1;fill-rule:nonzero;stroke:none" />
          </g>
          <g
             transform="translate(100.7744,28.6826)"
             id="g3027">
            <path
               d="m 0,0 c -0.876,0 -1.591,-0.519 -2.277,-1.29 l 0,-5.318 c 0.548,-0.166 0.878,-0.248 1.507,-0.248 1.619,0 2.771,0.987 2.771,3.648 C 2.001,-0.958 1.18,0 0,0 m -0.657,-10.172 c -2.167,0 -4.197,0.355 -5.76,0.958 l 0,18.347 4.14,0.657 0,-7.842 c 0.85,0.876 2.003,1.754 3.593,1.754 2.741,0 4.826,-2.084 4.826,-6.635 0,-4.993 -2.66,-7.239 -6.799,-7.239"
               id="path3029"
               style="fill:#000000;fill-opacity:1;fill-rule:nonzero;stroke:none" />
          </g>
          <g
             transform="translate(114.9756,28.9844)"
             id="g3031">
            <path
               d="m 0,0 c -1.59,0 -2.44,-1.397 -2.44,-3.592 0,-2.167 0.876,-3.647 2.44,-3.647 1.59,0 2.469,1.454 2.469,3.619 C 2.469,-1.453 1.59,0 0,0 m -0.028,-10.584 c -3.701,0 -6.416,2.659 -6.416,6.964 0,4.305 2.743,7.02 6.444,7.02 3.729,0 6.472,-2.687 6.472,-6.992 0,-4.304 -2.77,-6.992 -6.5,-6.992"
               id="path3033"
               style="fill:#000000;fill-opacity:1;fill-rule:nonzero;stroke:none" />
          </g>
          <g
             transform="translate(129.4258,28.9844)"
             id="g3035">
            <path
               d="m 0,0 c -1.592,0 -2.441,-1.397 -2.441,-3.592 0,-2.167 0.878,-3.647 2.441,-3.647 1.589,0 2.466,1.454 2.466,3.619 C 2.466,-1.453 1.589,0 0,0 m -0.029,-10.584 c -3.7,0 -6.417,2.659 -6.417,6.964 0,4.305 2.742,7.02 6.446,7.02 3.727,0 6.469,-2.687 6.469,-6.992 0,-4.304 -2.77,-6.992 -6.498,-6.992"
               id="path3037"
               style="fill:#000000;fill-opacity:1;fill-rule:nonzero;stroke:none" />
          </g>
          <g
             transform="translate(146.1201,18.4814)"
             id="g3039">
            <path
               d="m 0,0 -3.894,6.443 0,-6.252 -4.139,0 0,19.143 4.139,0.657 0,-11.874 3.591,5.512 4.443,0 L -0.083,7.514 4.307,0.604 0,0 z"
               id="path3041"
               style="fill:#000000;fill-opacity:1;fill-rule:nonzero;stroke:none" />
          </g>
          <g
             transform="translate(156.9492,29.6973)"
             id="g3043">
            <path
               d="m 0,0 c -1.152,0 -1.974,-1.015 -2.112,-3.071 l 4.222,0 C 1.973,-1.042 1.261,0 0,0 m 5.979,-5.346 -8.064,0 c 0.221,-2.112 1.482,-2.934 3.289,-2.934 1.484,0 2.936,0.548 4.418,1.396 L 6.03,-9.79 c -1.451,-0.931 -3.234,-1.507 -5.343,-1.507 -4.033,0 -6.912,2.138 -6.912,6.937 0,4.386 2.688,7.048 6.333,7.048 4.117,0 5.953,-3.073 5.953,-6.965 0,-0.411 -0.031,-0.851 -0.082,-1.069"
               id="path3045"
               style="fill:#000000;fill-opacity:1;fill-rule:nonzero;stroke:none" />
          </g>
          <g
             transform="translate(169.3672,26.1309)"
             id="g3047">
            <path
               d="m 0,0 0,-7.458 -4.141,0 0,13.437 3.62,0 0.44,-2.658 C 0.74,4.854 1.864,6.116 3.839,6.254 L 4.527,2.033 C 2.523,1.894 1.016,1.098 0,0"
               id="path3049"
               style="fill:#000000;fill-opacity:1;fill-rule:nonzero;stroke:none" />
          </g>
          <g
             transform="translate(180.4121,18.4541)"
             id="g3051">
            <path
               d="m 0,0 c -2.139,0 -4.138,0.603 -5.539,1.345 l 0.494,3.153 c 1.593,-0.987 3.538,-1.591 5.075,-1.591 1.153,0 1.699,0.384 1.699,1.016 0,0.684 -0.383,0.984 -2.277,1.452 -3.371,0.877 -4.799,1.782 -4.799,4.306 0,2.496 1.867,4.17 5.155,4.17 1.811,0 3.566,-0.36 4.963,-0.99 L 4.253,9.71 c -1.455,0.794 -3.128,1.259 -4.417,1.259 -0.987,0 -1.426,-0.357 -1.426,-0.878 0,-0.55 0.383,-0.849 2.278,-1.37 C 4.253,7.761 5.514,6.855 5.514,4.359 5.514,1.538 3.565,0 0,0"
               id="path3053"
               style="fill:#000000;fill-opacity:1;fill-rule:nonzero;stroke:none" />
          </g>
        </g>
      </g>
    </g>
  </g>
</svg>
