<?xml version="1.0" encoding="utf-8"?>
<!-- Generator: Adobe Illustrator 16.0.3, SVG Export Plug-In . SVG Version: 6.00 Build 0)  -->
<!DOCTYPE svg PUBLIC "-//W3C//DTD SVG 1.1//EN" "http://www.w3.org/Graphics/SVG/1.1/DTD/svg11.dtd">
<svg version="1.1" id="providers" xmlns="http://www.w3.org/2000/svg" xmlns:xlink="http://www.w3.org/1999/xlink" x="0px" y="0px"
	 width="957.817px" height="113.387px" viewBox="0 0 957.817 113.387" enable-background="new 0 0 957.817 113.387"
	 xml:space="preserve">
<g id="teller">
	<g>
		<polygon fill="#E2231A" points="419.725,0.003 419.725,113.387 499.317,113.387 499.317,91.141 446.761,91.141 446.761,67.924 
			495.574,67.924 495.574,45.47 446.761,45.47 446.761,22.24 499.317,22.24 499.317,0.003 		"/>
		<polygon fill="#E2231A" points="117.369,0.003 117.369,113.387 196.951,113.387 196.951,91.141 144.399,91.141 144.399,67.924 
			193.213,67.924 193.213,45.47 144.399,45.47 144.399,22.24 196.951,22.24 196.951,0.003 		"/>
		<path fill="#E2231A" d="M251.025,0h-27.037v113.387h76.956V90.051h-49.918V0z M0,23.336h34.667v90.051h27.037V23.336h34.674V0H0
			V23.336z M348.419,0h-27.041v113.387h76.978V90.051h-49.938V0z M601.529,75.678c0,0,1.439-0.475,3.762-1.835
			c9.2-5.379,13.769-14.078,14.44-25.553c0.233-5.499,0.233-10.997,0-16.492C618.54,11.626,606.972,0,577.707,0h-51.566v113.387
			h27.036V80.086c0,0,23.275-0.033,23.546-0.033l17.964,33.334h28.65L601.529,75.678z M592.707,46.969
			c-0.728,7.296-4.616,10.42-12.115,10.973c-1.153,0.12-2.396,0.192-3.757,0.192h-23.046V21.948h23.046
			c1.361,0,2.604,0.067,3.757,0.194c7.5,0.551,11.387,3.675,12.115,10.971C593.064,37.723,593.064,42.363,592.707,46.969"/>
		<rect x="663.018" y="0.003" fill="#F7A823" width="113.391" height="22.674"/>
		<rect x="663.018" y="45.359" fill="#F7A823" width="113.391" height="22.676"/>
		<rect x="753.728" y="22.677" fill="#0053A1" width="113.385" height="22.683"/>
		<rect x="753.728" y="68.023" fill="#0053A1" width="113.385" height="22.681"/>
		<rect x="663.018" y="90.704" fill="#F7A823" width="113.391" height="22.683"/>
		<rect x="844.439" y="0.003" fill="#E2231A" width="113.378" height="22.674"/>
		<rect x="844.439" y="45.359" fill="#E2231A" width="113.378" height="22.676"/>
		<rect x="844.439" y="90.704" fill="#E2231A" width="113.378" height="22.683"/>
		<path fill="#E2231A" d="M640.055,13.023h-2.962v4.367h-1.549V5.304h4.609c2.591,0,3.502,1.124,3.502,2.978v1.742
			c0,1.43-0.526,2.419-1.919,2.814l3.13,4.553h-1.783L640.055,13.023z M640.095,6.702h-3.001v4.94h3.001
			c1.492,0,1.999-0.416,1.999-1.604V8.304C642.094,7.099,641.587,6.702,640.095,6.702"/>
		<path fill="#E2231A" d="M649.574,11.349c0,5.446-4.42,9.859-9.863,9.859c-5.437,0-9.856-4.413-9.856-9.859
			c0-5.445,4.42-9.859,9.856-9.859C645.154,1.489,649.574,5.903,649.574,11.349 M639.711,0.009c-6.258,0-11.335,5.078-11.335,11.34
			c0,6.266,5.078,11.336,11.335,11.336c6.261,0,11.341-5.07,11.341-11.336C651.053,5.087,645.973,0.009,639.711,0.009"/>
	</g>
</g>
</svg>
