<?xml version="1.0" encoding="utf-8"?>
<!-- Generator: Adobe Illustrator 16.0.3, SVG Export Plug-In . SVG Version: 6.00 Build 0)  -->
<!DOCTYPE svg PUBLIC "-//W3C//DTD SVG 1.1//EN" "http://www.w3.org/Graphics/SVG/1.1/DTD/svg11.dtd">
<svg version="1.1" id="Layer_1" xmlns="http://www.w3.org/2000/svg" xmlns:xlink="http://www.w3.org/1999/xlink" x="0px" y="0px"
	 width="591.493px" height="113.386px" viewBox="0 0 591.493 113.386" enable-background="new 0 0 591.493 113.386"
	 xml:space="preserve">
<path fill-rule="evenodd" clip-rule="evenodd" fill="#929292" d="M178.357,88.729L194.2,37.791c0.462-1.533,0.938-1.995,2.934-2.352
	l4.228-0.687v-6.171h-22.186l-1.281,6.171l7.624,0.924L172.49,77.855l-11.377-47.596h-12.328l-13.491,47.715L122.16,35.677
	l7.505-0.924v-6.171h-23.586l-1.414,6.171l5.047,1.044c1.414,0.343,1.995,0.581,2.471,1.995l16.543,50.925h12.91l12.896-46.565
	l11.271,46.565L178.357,88.729z"/>
<path fill-rule="evenodd" clip-rule="evenodd" fill="#929292" d="M230.696,81.461c-11.536,0-17.481-7.491-17.481-23.083
	c0-15.487,6.646-22.278,18.063-22.278c11.297,0,16.9,6.792,16.9,22.159C248.178,74.314,241.994,81.461,230.696,81.461z
	 M230.353,89.985c19.939,0,28.845-12.738,28.845-32.439c0-17.575-7.743-30.286-27.682-30.286c-19.94,0-29.321,12.592-29.321,30.999
	C202.194,76.89,210.057,89.985,230.353,89.985z"/>
<path fill-rule="evenodd" clip-rule="evenodd" fill="#929292" d="M295.166,88.651v-6.158l-11.047-0.938
	c-1.797-0.119-1.916-0.463-1.916-2.353V43.79c2.762-2.59,8.879-7.413,14.284-7.413c1.07,0,1.308,0.225,1.44,1.176l1.44,8.192
	l8.206,0.357V28.356c-2.088-0.661-5.669-1.136-8.337-1.136c-8.153,0-14.033,5.047-17.958,9.382l-0.343-0.106l-1.137-8.02h-15.182
	l-1.057,6.25l6.686,2.219c1.176,0.357,1.533,1.176,1.533,2.471v39.919c0,1.757-0.238,2.113-1.876,2.338l-5.867,0.701v6.276H295.166z
	"/>
<path fill-rule="evenodd" clip-rule="evenodd" fill="#929292" d="M336.92,88.651v-6.158l-7.03-0.819
	c-1.756-0.237-1.876-0.463-1.876-2.353V0h-17.944l-1.057,6.237l7.043,2.233c1.177,0.357,1.533,1.176,1.533,2.471v68.379
	c0,1.771-0.238,2.234-1.877,2.353l-7.28,0.701v6.276H336.92z"/>
<path fill-rule="evenodd" clip-rule="evenodd" fill="#929292" d="M382.744,71.407c-5.167,5.153-10.796,9.725-17.72,9.725
	c-8.206,0-13.714-5.272-13.714-21.564c0-13.94,4.334-23.546,15.365-23.546c6.212,0,12.54,3.396,16.068,6.329V71.407z
	 M401.031,88.704V82.44l-5.984-0.819c-1.758-0.237-1.877-0.477-1.877-2.352V0h-17.705l-1.058,6.237l7.043,2.246
	c1.057,0.344,1.52,1.176,1.52,2.352V32.85c-4.571-3.277-10.901-5.629-17.945-5.629c-14.071,0-24.458,9.5-24.458,32.65
	c0,21.498,8.747,30.102,22.12,30.102c9.145,0,15.248-4.07,20.627-9.197l0.462,0.119l0.912,7.81H401.031z"/>
<path fill-rule="evenodd" clip-rule="evenodd" fill="#F11E15" d="M422.808,43.434c3.396-2.696,10.439-7.281,17.944-7.281
	c7.268,0,13.491,5.047,13.491,21.01c0,14.786-4.229,24.048-15.367,24.048c-6.224,0-12.078-3.751-16.068-7.624V43.434z
	 M435.704,113.386v-6.158l-11.019-0.938c-1.759-0.119-1.878-0.462-1.878-2.353V83.564c5.512,4.81,11.139,6.448,17.826,6.448
	c18.393,0,24.352-16.187,24.352-33.788c0-20.64-8.879-28.912-22.001-28.912c-7.979,0-14.548,3.225-20.996,7.928l-0.343-0.119
	l-1.044-6.646h-15.38l-1.058,6.25l6.686,2.219c1.176,0.344,1.533,1.163,1.533,2.445v64.668c0,1.771-0.357,2.113-1.995,2.351
	l-4.811,0.701v6.276H435.704z"/>
<path fill-rule="evenodd" clip-rule="evenodd" fill="#F11E15" d="M508.3,72.768c-3.62,3.383-10.994,8.971-17.878,8.971
	c-5.497,0-8.179-2.563-8.179-8.853c0-6.053,2.802-8.971,12.844-9.896l13.213-1.177V72.768z M526.588,88.704V82.44l-5.986-0.819
	c-1.758-0.237-1.876-0.477-1.876-2.338V48.19c0-16.28-5.563-20.997-22.119-20.997c-9.196,0-22.556,1.652-22.556,16.16l10.095,1.07
	c0.118-8.853,5.247-9.078,12.368-9.078c10.147,0,11.786,4.241,11.786,12.844v6.25l-15.75,1.295
	c-14.073,1.163-21.341,6.66-21.341,18.315c0,5.945,1.878,15.896,16.518,15.896c8.999,0,15.54-3.807,21.155-9.012l0.344,0.104
	l1.044,7.665H526.588z"/>
<path fill-rule="evenodd" clip-rule="evenodd" fill="#F11E15" d="M567.497,113.386v-6.065l-11.351-1.149l28.435-68.855
	c0.582-1.295,1.521-1.758,2.935-1.996l3.978-0.568v-6.171h-23.177l-1.281,6.171l7.953,0.924l-16.265,39.548l-15.566-39.548
	l7.717-0.924v-6.171h-24.221l-1.4,6.171l4.797,1.163c1.401,0.343,1.876,0.581,2.457,1.995l21.063,50.146l-6.791,15.645
	c-0.701,1.651-1.163,2.365-2.564,2.471l-8.43,1.044v6.171H567.497z"/>
<path fill-rule="evenodd" clip-rule="evenodd" fill="#F11E15" d="M56.951,94.241c3.647-1.626,7.664-3.622,11.562-5.986
	C64.747,92.496,60.716,93.619,56.951,94.241z M48.019,101.733c-0.371,0-3.515,0-3.515-1.124c0-0.621,1.004-2.63,1.89-2.867
	c1.876-0.754,5.906-1.758,6.157-1.758c0.37,0,3.647,0.383,4.017,0.383c0.251,0,2.643-0.133,4.03-0.502
	c1.625-0.383,3.647-1.122,5.523-2.246c1.89-1.123,4.651-3.501,5.907-5.497c0.753-1.123,1.136-2.617,2.021-3.619
	c1.123-1.493,3.264-2.749,5.021-4.362c1.758-1.756,3.528-3.62,5.153-5.615C80.828,90.25,60.214,101.733,48.019,101.733z
	 M55.696,16.24c6.408,1.374,13.702,4.109,19.978,10.36c2.022,1.995,3.78,4.744,4.533,6.858c0.37,0.872,0.37,2.246,1.004,3.118
	c1.004,1.506,2.762,2.749,4.017,4.374c1.639,1.744,2.643,3.621,3.528,5.616c0.37,0.621,0.502,1.493,0.872,2.246
	c0.502,0.991,1.388,5.735,1.388,7.493c0,3.621-1.256,8.114-2.894,11.601c0,0.133,0.132,0.133,0.132,0.502v3.119
	c-1.387,19.226-24.643,33.072-39.231,33.072c-1.758,0-6.778-0.25-6.778-3.739c0-0.383,0.251-1.506,0.502-2.378
	c-2.775,0.385-8.179,1.375-11.324,1.375c-2.378,0-13.319-0.12-13.319-5.985c0-5.497,9.805-5.868,11.694-5.868
	c5.272,0,10.808,1.493,16.213,3.991c-0.885,0.251-2.51,0.753-2.762,0.753c-0.383,0-0.885-0.384-1.387-0.502
	c-3.515-1.256-7.545-1.995-11.192-1.995c-2.127,0-2.511-0.132-5.021,0.502c-0.251,0-4.651,1.122-4.651,2.867
	c0,1.241,3.515,1.995,4.268,2.115c1.507,0.25,4.651,0.5,4.902,0.5c22.384,0,57.083-18.472,57.083-40.564
	c0-4.11-1.89-9.977-5.668-13.729c-0.251,1.625-0.622,3.369-1.256,5.126c-0.37,1.124-1.374,3.119-1.374,3.37
	c0,0,6.276,6.858,6.276,8.365c0,0.871-1.374,4.729-1.374,4.862c-1.256-3.369-3.026-6.739-6.541-10.108
	c-0.502,0.502-1.005,1.242-1.507,1.876c-0.634,0.872-1.387,1.744-2.141,2.616c-1.638,1.877-5.404,5.114-5.404,5.483
	c0,0,4.519,4.507,6.039,9.739c0.251,0.753,0.621,2.246,0.621,2.497c0,0.753-2.51,2.378-2.51,2.497
	c-0.132-4.241-1.89-8.733-6.541-12.977c-5.404,3.991-11.06,7.242-16.464,9.859c3.264,2.748,5.153,6.738,5.153,9.605
	c0,1.374-0.753,4.374-1.387,4.743c-0.753,0.502-1.625,0.754-2.511,1.005c1.004-1.255,1.889-4.122,1.889-5.365
	c0-2.246-1.506-5.748-4.03-7.625c-0.622-0.369-1.507-1.241-1.758-1.241c-0.37,0-3.515,1.374-5.271,1.995
	c-2.022,0.754-4.149,1.374-6.29,1.996c-6.409,1.875-12.447,2.999-18.605,2.999c-2.392,0-12.831-0.25-12.831-5.866
	c0-8.364,19.372-9.118,22-9.118c5.788,0,11.325,0.634,17.231,3.251c-1.136,0.369-3.277,1.242-3.528,1.242
	c-0.37,0-6.911-1.864-12.816-1.864c-2.643,0-5.907,0.252-8.417,0.741c-2.022,0.383-4.03,0.885-5.787,1.625
	c-0.634,0.132-5.286,2.127-5.286,3.871c0,0.252,0.753,0.754,1.255,1.004c2.524,1.242,4.784,1.124,7.294,1.124
	c23.758,0,60.215-18.605,62.355-37.95v-3.119C76.93,25.595,57.321,17.482,47.768,17.482c-0.251,0-1.877,0.132-2.894,0.37
	c0.634,0.251,1.387,0.251,2.021,0.502c0.502,0.132,1.124,0.383,1.758,0.622c1.004,0.382,2.761,1.255,3.897,2.246
	c0.873,0.754,1.375,1.876,2.259,2.498c0.635,0.634,1.89,0.502,2.895,0.885c3.263,0.991,7.294,2.484,10.689,3.991
	c1.375,0.74,3.132,1.493,4.651,2.365c0.502,0.383,0.872,1.123,1.255,1.744c0.621,1.005,1.374,2.63,1.626,4.004
	c-6.528-4.876-13.068-7.374-19.609-9.488h-0.37c0.251,3.369-1.137,6.739-3.528,10.108c7.175,1.876,14.707,4.612,22.133,9.738
	c-0.383,0.873-0.886,1.864-1.506,2.735c-3.145-2.246-6.541-3.991-9.686-5.483c-0.753-0.37-11.311-4.242-12.949-4.242
	c-0.383,0-2.894,2.498-4.268,3.621c-3.396,2.735-6.792,4.862-10.188,6.858c9.17,1.255,18.353,3.25,27.523,9.237
	c-0.621,0.62-2.009,1.876-2.378,1.876c-0.251,0-2.643-1.744-4.03-2.378c-6.409-3.119-18.605-6.105-26.018-6.105
	c-0.634,0-7.915,3.119-9.685,3.607c-5.154,1.506-10.809,3.37-16.082,3.37C3.515,60.162,0,60.042,0,57.175
	c0-5.616,19.993-6.99,21.367-6.99h4.399c-3.145,1.242-6.911,2.616-9.923,3.37c-2.894,0.753-5.907,1.242-8.681,2.114
	c-0.502,0.132-1.004,0.502-1.506,0.753c0,0-0.119,0.132,0.251,0.132c0.251,0,4.4-0.634,6.66-1.123
	c11.443-2.749,23.758-7.241,35.082-17.601c2.762-2.63,4.771-5.867,5.405-8.734V26.6c-0.383-2.749-4.4-5.616-6.911-6.369
	c-1.639-0.502-4.783-1.124-5.154-1.124c-0.634,0-1.52,0.371-2.14,1.375c4.017,0.872,8.668,0,12.196,4.995c0,0,0.119,0.119,0,0.37
	c-1.018-0.37-13.333-3.25-15.341-3.25c-0.753,0-6.66,4.123-8.047,4.995c-3.766,2.246-7.664,4.373-11.443,6.236l12.95,0.132
	c5.655,0.37,12.078,1.123,17.851,2.246c-0.251,0.12-2.51,2.498-3.012,2.498c-0.251,0-4.282-0.753-6.29-1.004
	c-3.646-0.502-7.413-0.621-11.191-0.872l-16.332,0.37c-0.886-0.119-2.643-0.237-2.643-1.744c0-1.123,1.374-1.863,2.391-2.246
	c0.753-0.252,1.625-0.74,2.379-0.991c8.047-3.37,16.345-7.862,24.524-12.989c-0.251-0.12-0.767-0.12-1.018-0.12
	c-0.37,0-1.374,0.12-2.128,0.371c0.12,0.132,0.252,0.132,0.371,0.132c-1.124,0.621-3.013,1.862-3.396,1.862
	c-0.872,0-2.127-1.123-2.127-1.862c0-2.247,5.153-2.379,5.523-2.379c5.153-0.119,5.536,0.132,5.906,0.132
	c0.252,0,2.392-1.123,3.78-1.374c2.008-0.502,3.012-0.502,4.902-0.502C50.793,15.487,53.304,15.738,55.696,16.24z"/>
</svg>
