<?xml version="1.0" encoding="utf-8"?>
<!-- Generator: Adobe Illustrator 16.0.3, SVG Export Plug-In . SVG Version: 6.00 Build 0)  -->
<!DOCTYPE svg PUBLIC "-//W3C//DTD SVG 1.1//EN" "http://www.w3.org/Graphics/SVG/1.1/DTD/svg11.dtd">
<svg version="1.1" id="Layer_1" xmlns="http://www.w3.org/2000/svg" xmlns:xlink="http://www.w3.org/1999/xlink" x="0px" y="0px"
	 width="404.655px" height="98.179px" viewBox="0 0 404.655 98.179" enable-background="new 0 0 404.655 98.179"
	 xml:space="preserve">
<g>
	<g>
		<path fill="#009CDE" d="M311.628,21.956h-22.251c-1.521,0-2.816,1.107-3.053,2.609l-8.998,57.053
			c-0.177,1.126,0.692,2.145,1.832,2.145h11.417c1.064,0,1.972-0.775,2.137-1.827l2.552-16.175c0.237-1.503,1.532-2.609,3.054-2.609
			h7.041c14.655,0,23.113-7.093,25.324-21.151c0.995-6.148,0.04-10.979-2.839-14.361C324.68,23.921,319.072,21.956,311.628,21.956z
			 M314.196,42.792c-1.216,7.987-7.315,7.987-13.216,7.987h-3.356l2.354-14.912c0.143-0.901,0.92-1.565,1.832-1.565h1.539
			c4.016,0,7.81,0,9.765,2.288C314.285,37.959,314.638,39.988,314.196,42.792z"/>
		<path fill="#003087" d="M152.932,21.956h-22.25c-1.521,0-2.816,1.107-3.054,2.609l-8.998,57.053
			c-0.177,1.126,0.693,2.145,1.833,2.145h10.624c1.521,0,2.816-1.107,3.054-2.61l2.428-15.392c0.237-1.503,1.532-2.609,3.053-2.609
			h7.041c14.656,0,23.114-7.093,25.325-21.151c0.995-6.148,0.04-10.979-2.838-14.361C165.984,23.921,160.375,21.956,152.932,21.956z
			 M155.5,42.792c-1.216,7.987-7.316,7.987-13.215,7.987h-3.357l2.354-14.912c0.143-0.901,0.919-1.565,1.832-1.565h1.539
			c4.016,0,7.81,0,9.765,2.288C155.588,37.959,155.942,39.988,155.5,42.792z"/>
		<path fill="#003087" d="M219.435,42.537h-10.653c-0.913,0-1.69,0.664-1.833,1.566l-0.468,2.979l-0.745-1.079
			c-2.308-3.35-7.45-4.468-12.585-4.468c-11.77,0-21.826,8.92-23.783,21.431c-1.019,6.241,0.427,12.205,3.966,16.368
			c3.251,3.825,7.891,5.417,13.419,5.417c9.487,0,14.75-6.096,14.75-6.096l-0.476,2.962c-0.179,1.126,0.691,2.146,1.832,2.146h9.595
			c1.521,0,2.815-1.107,3.053-2.609l5.76-36.473C221.445,43.555,220.575,42.537,219.435,42.537z M204.587,63.275
			c-1.029,6.088-5.862,10.174-12.026,10.174c-3.09,0-5.564-0.994-7.154-2.875c-1.576-1.866-2.169-4.524-1.669-7.484
			c0.959-6.033,5.87-10.252,11.94-10.252c3.025,0,5.482,1.004,7.103,2.903C204.413,57.654,205.054,60.33,204.587,63.275z"/>
		<path fill="#009CDE" d="M378.131,42.537h-10.653c-0.913,0-1.69,0.664-1.832,1.566l-0.469,2.979l-0.745-1.079
			c-2.308-3.35-7.45-4.468-12.585-4.468c-11.771,0-21.826,8.92-23.782,21.431c-1.019,6.241,0.427,12.205,3.966,16.368
			c3.251,3.825,7.891,5.417,13.419,5.417c9.487,0,14.75-6.096,14.75-6.096l-0.476,2.962c-0.179,1.126,0.691,2.146,1.832,2.146h9.595
			c1.521,0,2.815-1.107,3.053-2.609l5.76-36.473C380.142,43.555,379.271,42.537,378.131,42.537z M363.284,63.275
			c-1.029,6.088-5.861,10.174-12.025,10.174c-3.091,0-5.564-0.994-7.155-2.875c-1.575-1.866-2.169-4.524-1.669-7.484
			c0.96-6.033,5.869-10.252,11.939-10.252c3.025,0,5.482,1.004,7.104,2.903C363.109,57.654,363.75,60.33,363.284,63.275z"/>
		<path fill="#003087" d="M276.181,42.537h-10.709c-1.024,0-1.982,0.508-2.558,1.355l-14.772,21.756l-6.261-20.906
			c-0.392-1.309-1.596-2.206-2.961-2.206h-10.527c-1.271,0-2.165,1.25-1.756,2.454l11.792,34.612l-11.091,15.649
			c-0.871,1.229,0.008,2.927,1.514,2.927h10.698c1.014,0,1.963-0.497,2.541-1.33l35.614-51.4
			C278.557,44.219,277.677,42.537,276.181,42.537z"/>
		<path fill="#009CDE" d="M390.69,23.522l-9.133,58.097c-0.177,1.126,0.693,2.144,1.832,2.144h9.185
			c1.521,0,2.816-1.107,3.054-2.609l9.004-57.053c0.178-1.126-0.692-2.144-1.832-2.144h-10.277
			C391.609,21.956,390.832,22.62,390.69,23.522z"/>
	</g>
	<g>
		<path fill="#003087" d="M42.152,94.134l2.991-18.966l0.193-1.051c0.145-0.914,0.612-1.75,1.317-2.353
			c0.705-0.602,1.604-0.934,2.531-0.934h2.375c3.958,0,7.596-0.423,10.811-1.257c3.43-0.89,6.48-2.274,9.066-4.113
			c2.742-1.95,5.045-4.471,6.846-7.491c1.9-3.186,3.295-7.021,4.147-11.4c0.753-3.866,0.894-7.327,0.42-10.288
			c-0.501-3.128-1.706-5.797-3.581-7.935c-1.137-1.295-2.592-2.417-4.324-3.335l-0.041-0.021l-0.001-0.05
			c0.605-3.86,0.583-7.078-0.069-9.849c-0.653-2.778-1.978-5.276-4.05-7.638C66.489,2.56,58.677,0.078,47.566,0.078H17.052
			c-1.021,0-2.011,0.365-2.786,1.028c-0.776,0.663-1.291,1.584-1.45,2.592L0.109,84.27c-0.116,0.735,0.095,1.482,0.579,2.047
			c0.484,0.566,1.188,0.892,1.933,0.892h18.93l-0.016,0.09l-1.3,8.244c-0.101,0.641,0.083,1.291,0.504,1.783
			c0.421,0.493,1.035,0.776,1.683,0.776H38.3c0.89,0,1.753-0.318,2.431-0.897s1.126-1.382,1.266-2.261L42.152,94.134z"/>
		<g>
			<path fill="#003087" d="M31.274,25.045c0.201-1.277,1.021-2.322,2.124-2.851c0.501-0.24,1.062-0.374,1.649-0.374h23.919
				c2.834,0,5.476,0.186,7.892,0.575c0.69,0.111,1.362,0.239,2.015,0.383c0.652,0.145,1.286,0.307,1.899,0.486
				c0.307,0.09,0.608,0.184,0.905,0.282c1.186,0.394,2.29,0.858,3.307,1.397c1.198-7.637-0.009-12.834-4.139-17.542
				C66.295,2.22,58.078,0,47.566,0H17.052c-2.148,0-3.978,1.563-4.313,3.686L0.033,84.258c-0.25,1.59,0.979,3.027,2.588,3.027
				h18.838L26.19,57.28L31.274,25.045z"/>
			<path fill="#009CDE" d="M74.982,24.944L74.982,24.944L74.982,24.944c-0.091,0.583-0.193,1.175-0.312,1.787
				c-4.023,20.66-17.792,27.804-35.376,27.804h-8.953c-2.149,0-3.962,1.563-4.297,3.686l0,0l0,0l-4.585,29.065l-1.3,8.245
				c-0.219,1.391,0.855,2.648,2.263,2.648H38.3c1.879,0,3.479-1.367,3.772-3.224l0.156-0.807l2.991-18.969l0.193-1.048
				c0.293-1.856,1.893-3.224,3.772-3.224h2.375c15.383,0,27.428-6.25,30.947-24.324c1.471-7.553,0.71-13.856-3.179-18.288
				C78.152,26.956,76.688,25.848,74.982,24.944z"/>
			<path fill="#012169" d="M70.771,23.265c-0.613-0.179-1.247-0.341-1.899-0.486c-0.653-0.145-1.325-0.272-2.015-0.383
				c-2.416-0.389-5.058-0.575-7.892-0.575H35.046c-0.587,0-1.147,0.134-1.649,0.374c-1.103,0.528-1.922,1.574-2.124,2.851
				L26.19,57.28l-0.147,0.94c0.335-2.122,2.148-3.686,4.297-3.686h8.953c17.584,0,31.353-7.144,35.376-27.804
				c0.119-0.612,0.221-1.205,0.312-1.787c-1.017-0.539-2.121-1.003-3.307-1.397C71.378,23.449,71.077,23.355,70.771,23.265z"/>
		</g>
	</g>
</g>
<g>
</g>
<g>
</g>
<g>
</g>
<g>
</g>
<g>
</g>
<g>
</g>
</svg>
